<?xml version="1.0" encoding="UTF-8" standalone="no"?>
<!DOCTYPE svg PUBLIC "-//W3C//DTD SVG 1.1//EN" "http://www.w3.org/Graphics/SVG/1.1/DTD/svg11.dtd">
<svg width="100%" height="100%" viewBox="0 0 918 466" version="1.1" xmlns="http://www.w3.org/2000/svg" xmlns:xlink="http://www.w3.org/1999/xlink" xml:space="preserve" xmlns:serif="http://www.serif.com/" style="fill-rule:evenodd;clip-rule:evenodd;stroke-linejoin:round;stroke-miterlimit:2;">
    <g transform="matrix(1,0,0,1,0,-1045.66)">
        <g id="Artboard4" transform="matrix(0.960906,0,0,0.722907,939.772,215.875)">
            <rect x="-978.007" y="1147.84" width="954.362" height="644.156" style="fill:none;"/>
            <clipPath id="_clip1">
                <rect x="-978.007" y="1147.84" width="954.362" height="644.156"/>
            </clipPath>
            <g clip-path="url(#_clip1)">
                <g transform="matrix(1.04068,0,0,1.3833,-950.787,-596.268)">
                    <path d="M106.559,1484.46C125.082,1483.1 109.88,1481.15 132.85,1484.84C139.646,1485.94 146.71,1497.51 157.042,1507.36C166.67,1516.53 179.665,1523.85 183.922,1528.94C217.743,1569.36 229.208,1577.84 239.603,1585.47C260.92,1601.13 288.252,1593.59 313.674,1646.28C316.131,1647.66 335.093,1668.99 344.054,1677.37C391.487,1721.69 391.575,1726.26 393.358,1732.04C346.417,1731.68 186.74,1730.75 168.69,1730.4C156.78,1695.48 155.987,1698.64 155.154,1695.54C153.138,1688.05 135.691,1672.58 136.313,1646.04C137.491,1595.7 106.501,1550.73 105.696,1522.36C105.213,1505.36 99.684,1508.87 106.559,1484.46ZM141.102,1516.98C139.01,1515.16 137.375,1509.8 129.597,1511.28C124.631,1512.23 126.237,1518.47 126.357,1521.27C126.376,1521.71 134.417,1538.44 135.21,1550.32C135.715,1557.88 164.953,1628.07 173.303,1629.85C180.233,1631.32 183.956,1636.42 189.743,1631.21C198.693,1623.16 198.134,1623.51 207.208,1615.76C211.252,1612.3 209.602,1610.13 211.595,1605.18C191.387,1586.23 193.411,1575.95 187.414,1565.4C187.024,1564.72 168.773,1538.2 153.081,1539.04C152.722,1534.5 144.183,1518.65 141.102,1516.98Z" style="fill:rgb(22,22,22);"/>
                    <path d="M106.406,1482.38C113.537,1481.86 115.477,1481.25 116.65,1480.93C117.79,1480.62 118.372,1480.48 120.818,1480.81C122.788,1481.07 126.259,1481.67 133.181,1482.79C136.243,1483.28 139.428,1485.55 142.802,1488.94C147.286,1493.44 152.295,1499.96 158.479,1505.85C168.172,1515.08 181.234,1522.48 185.52,1527.6C219.128,1567.77 230.507,1576.21 240.836,1583.8C249.228,1589.96 258.583,1592.43 268.37,1596.55C283.545,1602.92 299.804,1612.96 315.329,1644.91C316.025,1645.47 317.086,1646.45 318.395,1647.77C324.781,1654.19 338.322,1669.16 345.477,1675.85C393.59,1720.81 393.541,1725.56 395.349,1731.43C395.544,1732.06 395.426,1732.75 395.029,1733.29C394.633,1733.82 394.006,1734.13 393.342,1734.12C346.396,1733.76 186.702,1732.83 168.65,1732.49C167.773,1732.47 167.001,1731.9 166.718,1731.08C157.279,1703.4 154.901,1699.86 153.9,1697.99C153.572,1697.37 153.359,1696.89 153.142,1696.09C152.369,1693.21 149.161,1689.14 145.706,1683.63C140.136,1674.74 133.845,1662.41 134.23,1645.99C134.93,1616.07 124.112,1588.07 115.21,1564.39C109.124,1548.19 103.94,1533.95 103.613,1522.42C103.425,1515.8 102.444,1512.38 101.771,1509.13C100.693,1503.92 100.262,1499.13 104.553,1483.89C104.791,1483.05 105.531,1482.44 106.406,1482.38ZM108.175,1486.42C104.624,1499.38 104.89,1503.64 105.851,1508.28C106.561,1511.71 107.58,1515.32 107.778,1522.3C108.095,1533.47 113.215,1547.23 119.11,1562.92C128.18,1587.06 139.109,1615.6 138.395,1646.09C138.034,1661.51 144.006,1673.07 149.238,1681.42C152.984,1687.4 156.327,1691.88 157.166,1695C157.367,1695.75 157.586,1696.04 158.024,1696.84C159.282,1699.16 162.13,1704.82 170.188,1728.34C193.545,1728.7 341.388,1729.57 390.477,1729.94C388.413,1724.64 382.11,1715.78 342.632,1678.89C336.339,1673.01 325.127,1660.76 318.123,1653.46C315.349,1650.57 313.335,1648.47 312.652,1648.09C312.281,1647.88 311.983,1647.56 311.798,1647.18C294.374,1611.07 276.05,1603.84 259.455,1597.5C252.015,1594.66 244.92,1591.97 238.369,1587.15C227.91,1579.47 216.358,1570.95 182.325,1530.27C178.096,1525.22 165.168,1517.97 155.605,1508.87C149.391,1502.94 144.354,1496.4 139.849,1491.88C137.231,1489.25 134.894,1487.28 132.519,1486.9C117.217,1484.44 119.727,1484.5 116.556,1485.27C115.209,1485.59 112.923,1486.03 108.175,1486.42ZM142.369,1515.32C143.458,1516.06 145.074,1517.95 146.727,1520.49C149.931,1525.41 153.57,1532.79 154.766,1536.96C160.989,1537.35 167.523,1541.27 173.197,1546.18C182.14,1553.93 188.984,1563.95 189.225,1564.37C191.089,1567.65 192.215,1570.9 193.429,1574.38C196.089,1582 199.262,1590.76 213.02,1603.66C213.646,1604.24 213.848,1605.16 213.528,1605.95C212.59,1608.29 212.529,1609.97 212.207,1611.47C211.784,1613.44 211.067,1615.2 208.561,1617.34C199.508,1625.07 200.065,1624.73 191.137,1632.76C187.493,1636.04 184.49,1636.04 181.316,1635.02C178.852,1634.23 176.256,1632.61 172.869,1631.88C172.102,1631.72 171.181,1631.25 170.199,1630.37C168.604,1628.95 166.609,1626.28 164.41,1622.71C156.115,1609.24 144.351,1582.46 137.905,1565.52C135.049,1558.01 133.257,1552.35 133.131,1550.46C132.434,1540.01 125.961,1525.74 124.668,1522.68C124.51,1522.3 124.413,1522.04 124.377,1521.93L124.276,1521.36C124.197,1519.53 123.609,1516.34 124.262,1513.87C124.856,1511.62 126.252,1509.8 129.208,1509.23C135.805,1507.98 138.745,1510.81 140.79,1513.37C141.386,1514.11 141.858,1514.84 142.369,1515.32ZM128.418,1520.84C128.445,1520.91 128.477,1520.98 128.508,1521.06C129.862,1524.27 136.558,1539.24 137.289,1550.18C137.39,1551.7 138.748,1555.82 140.824,1561.43C145.887,1575.13 155.325,1597.21 163.33,1612.34C166.216,1617.8 168.903,1622.33 171.127,1625.2C171.794,1626.06 172.408,1626.76 172.971,1627.26C173.273,1627.53 173.502,1627.76 173.737,1627.81C176.647,1628.43 179.024,1629.64 181.211,1630.54C182.671,1631.14 184.005,1631.63 185.435,1631.34C186.36,1631.14 187.3,1630.61 188.35,1629.66C197.32,1621.59 196.76,1621.94 205.854,1614.17C207.752,1612.55 208.032,1611.28 208.3,1609.7C208.495,1608.55 208.686,1607.28 209.174,1605.75C195.481,1592.64 192.24,1583.61 189.496,1575.75C188.366,1572.52 187.338,1569.48 185.603,1566.43C185.376,1566.03 178.892,1556.63 170.469,1549.33C165.114,1544.69 158.998,1540.81 153.192,1541.12C152.064,1541.17 151.094,1540.33 151.005,1539.2C150.767,1536.19 146.633,1527.99 143.234,1522.76C141.953,1520.79 140.878,1519.23 140.108,1518.81C139.974,1518.74 139.849,1518.65 139.734,1518.55C139.029,1517.94 138.351,1516.99 137.539,1515.97C136.208,1514.31 134.279,1512.51 129.986,1513.33C128.613,1513.59 128.255,1514.67 128.142,1515.79C127.965,1517.55 128.315,1519.51 128.418,1520.84Z" style="fill:rgb(22,22,22);"/>
                </g>
                <g id="right-wing" transform="matrix(1.04068,0,0,1.3833,-950.787,-596.268)">
                    <path d="M116.11,1473.32C110.008,1480.79 107.937,1482.11 113.845,1489.78C119.567,1497.21 160.361,1511.95 161.945,1510.53C163.771,1508.88 166.783,1502.04 166.33,1499.95C162.847,1483.93 159.166,1475.94 169.117,1440.66C169.429,1439.55 170.65,1435.22 170.322,1426.36C170.287,1425.43 169.532,1425.79 167.764,1421.58C167.686,1421.4 169.699,1410.66 166.831,1400.29C165.643,1395.99 170.217,1386.09 163.62,1392.44C150.523,1405.04 144.927,1427.37 144.092,1430.71C143.409,1433.43 139.048,1450.84 132.178,1463.73C128.866,1469.95 117.64,1469.71 116.11,1473.32Z" style="fill:rgb(22,22,22);"/>
                    <path d="M114.34,1472.19L114.341,1472.19C114.761,1471.39 115.451,1470.68 116.404,1470.08C117.524,1469.37 119.076,1468.79 120.808,1468.2C122.659,1467.58 124.742,1466.94 126.596,1466.01C128.146,1465.22 129.546,1464.24 130.339,1462.75C137.11,1450.04 141.398,1432.88 142.071,1430.2C142.928,1426.78 148.729,1403.87 162.175,1390.94C163.85,1389.32 165.039,1388.62 165.768,1388.41L166.35,1388.3L167.038,1388.32L168.006,1388.68L168.558,1389.14L168.924,1389.65L169.17,1390.23L169.327,1390.98C169.452,1392.04 169.177,1393.86 168.926,1395.77C168.741,1397.18 168.544,1398.66 168.839,1399.73C171.434,1409.12 170.202,1418.79 169.891,1421.26C170.881,1423.51 171.485,1424.09 171.776,1424.49L172.203,1425.27L172.404,1426.28C172.747,1435.54 171.448,1440.07 171.122,1441.22C161.34,1475.9 164.942,1483.76 168.366,1499.51C168.597,1500.57 168.266,1502.63 167.464,1504.82C166.391,1507.75 164.585,1510.95 163.34,1512.07L162.67,1512.49L161.649,1512.7C160.812,1512.73 158.909,1512.38 156.309,1511.63C148.211,1509.31 132.386,1503.35 122.031,1497.92C117.293,1495.43 113.677,1492.98 112.194,1491.05C109.447,1487.48 108.323,1485.03 108.25,1482.89C108.2,1481.42 108.603,1480.03 109.467,1478.54C110.453,1476.83 112.128,1474.89 114.34,1472.19ZM161.02,1508.45C161.879,1507.33 162.865,1505.26 163.552,1503.38C163.829,1502.63 164.052,1501.9 164.184,1501.27C164.259,1500.91 164.34,1500.61 164.294,1500.39C160.752,1484.1 156.992,1475.97 167.112,1440.09C167.406,1439.05 168.525,1435 168.251,1426.76C167.89,1426.3 166.918,1424.95 165.843,1422.39L165.687,1421.76L165.729,1420.96C165.963,1419.07 167.304,1409.82 164.823,1400.84C164.405,1399.33 164.533,1397.23 164.795,1395.23C164.842,1394.87 164.889,1394.47 164.933,1394.07C152.281,1406.35 146.923,1427.98 146.113,1431.21C145.42,1433.98 140.986,1451.63 134.017,1464.71C132.12,1468.27 128.059,1470.14 124.151,1471.48C122.506,1472.04 120.914,1472.52 119.642,1473.08C119.232,1473.26 118.861,1473.45 118.547,1473.66C118.322,1473.81 118.114,1473.93 118.029,1474.13C117.951,1474.32 117.849,1474.49 117.723,1474.64C115.942,1476.82 114.509,1478.46 113.537,1479.89C112.833,1480.92 112.382,1481.78 112.415,1482.75C112.467,1484.29 113.516,1485.94 115.496,1488.51C116.759,1490.15 119.93,1492.11 123.966,1494.23C134.083,1499.53 149.545,1505.36 157.458,1507.63C158.856,1508.03 160.297,1508.32 161.02,1508.45Z" style="fill:rgb(22,22,22);"/>
                </g>
                <g id="left-wing" transform="matrix(1.04068,0,0,1.3833,-950.787,-596.268)">
                    <path d="M122.562,1515.48C122.562,1528.68 122.83,1532.32 113.052,1540.01C105.807,1545.7 101.195,1540.97 93.79,1535.55C79.962,1525.43 25.007,1524.93 26.184,1515.07C26.702,1510.74 32.746,1507.44 16.382,1500.26C17.089,1498.43 19.14,1497.41 10.1,1489.88C41.366,1489.38 41.24,1490.82 53.981,1494.68C56.168,1495.35 86.69,1495.51 88.017,1495.25C99.989,1492.91 103.578,1487.95 116.834,1499.92C122.48,1505.03 120.682,1508.13 122.562,1515.48Z" style="fill:none;"/>
                    <clipPath id="_clip2">
                        <path d="M122.562,1515.48C122.562,1528.68 122.83,1532.32 113.052,1540.01C105.807,1545.7 101.195,1540.97 93.79,1535.55C79.962,1525.43 25.007,1524.93 26.184,1515.07C26.702,1510.74 32.746,1507.44 16.382,1500.26C17.089,1498.43 19.14,1497.41 10.1,1489.88C41.366,1489.38 41.24,1490.82 53.981,1494.68C56.168,1495.35 86.69,1495.51 88.017,1495.25C99.989,1492.91 103.578,1487.95 116.834,1499.92C122.48,1505.03 120.682,1508.13 122.562,1515.48Z"/>
                    </clipPath>
                    <g clip-path="url(#_clip2)">
                        <path d="M122.562,1515.48C122.562,1528.68 122.83,1532.32 113.052,1540.01C105.807,1545.7 101.195,1540.97 93.79,1535.55C79.962,1525.43 25.007,1524.93 26.184,1515.07C26.702,1510.74 27.565,1508.1 16.382,1500.26C17.089,1498.43 19.14,1497.41 10.1,1489.88C41.366,1489.38 41.24,1490.82 53.981,1494.68C56.168,1495.35 86.69,1495.51 88.017,1495.25C99.989,1492.91 103.578,1487.95 116.834,1499.92C122.48,1505.03 120.682,1508.13 122.562,1515.48Z" style="fill:rgb(22,22,22);"/>
                    </g>
                    <path d="M124.645,1515.48C124.645,1523.87 124.632,1528.6 122.478,1532.8C121.013,1535.67 118.564,1538.32 114.34,1541.64C111.744,1543.68 109.407,1544.55 107.202,1544.66C104.982,1544.78 102.859,1544.12 100.68,1542.93C98.197,1541.56 95.604,1539.46 92.559,1537.23C88.854,1534.52 82.037,1532.6 74.203,1530.93C61.9,1528.31 47.142,1526.45 37.148,1523.95C32.547,1522.8 28.906,1521.46 26.796,1519.94C24.738,1518.45 23.893,1516.69 24.115,1514.83C24.24,1513.79 24.607,1512.79 24.994,1511.8C25.331,1510.94 25.77,1510.1 25.574,1509.16C25.41,1508.37 24.789,1507.58 23.585,1506.62C21.955,1505.31 19.406,1503.86 15.544,1502.16C14.523,1501.72 14.036,1500.54 14.439,1499.5C14.546,1499.23 14.674,1498.97 14.802,1498.71C14.883,1498.54 15.024,1498.39 15.004,1498.17C14.965,1497.73 14.622,1497.22 13.964,1496.42C12.968,1495.2 11.336,1493.62 8.766,1491.48C8.097,1490.92 7.845,1490.01 8.135,1489.18C8.425,1488.36 9.196,1487.81 10.066,1487.79C41.789,1487.29 41.659,1488.77 54.587,1492.69C55.198,1492.88 58.187,1492.96 62.101,1493.06C71.737,1493.32 86.706,1493.38 87.619,1493.2C91.167,1492.51 93.97,1491.58 96.509,1490.94C99.386,1490.22 101.966,1489.86 104.791,1490.38C108.417,1491.06 112.515,1493.21 118.231,1498.38C122.121,1501.89 122.927,1504.59 123.421,1508C123.699,1509.92 123.851,1512.12 124.58,1514.97C124.623,1515.13 124.645,1515.31 124.645,1515.48ZM120.479,1515.74L120.478,1515.74C119.758,1512.84 119.585,1510.58 119.298,1508.6C118.931,1506.07 118.322,1504.08 115.437,1501.47C110.549,1497.05 107.135,1495.06 104.033,1494.48C101.812,1494.07 99.786,1494.42 97.523,1494.99C94.922,1495.64 92.05,1496.58 88.416,1497.29C87.47,1497.48 71.97,1497.49 61.992,1497.23C57.5,1497.11 54.077,1496.89 53.376,1496.68C41.589,1493.1 40.976,1491.65 15.452,1491.89C16.544,1492.98 17.309,1493.88 17.835,1494.63C18.768,1495.95 19.082,1496.98 19.155,1497.8C19.2,1498.31 19.143,1498.76 19.035,1499.17C23.187,1501.12 25.739,1502.82 27.268,1504.31C28.739,1505.75 29.399,1507.08 29.654,1508.31C29.918,1509.59 29.745,1510.78 29.373,1511.95C29.017,1513.07 28.393,1514.15 28.253,1515.32C28.219,1515.6 28.415,1515.82 28.649,1516.06C29.015,1516.44 29.518,1516.78 30.125,1517.12C32.026,1518.17 34.811,1519.07 38.16,1519.91C48.115,1522.4 62.816,1524.25 75.07,1526.86C83.607,1528.67 90.982,1530.91 95.02,1533.87C97.899,1535.97 100.337,1537.99 102.685,1539.27C104.129,1540.07 105.517,1540.58 106.989,1540.5C108.477,1540.42 110.013,1539.75 111.765,1538.37C115.363,1535.54 117.521,1533.34 118.769,1530.9C120.662,1527.21 120.483,1523.04 120.479,1515.74Z" style="fill:rgb(22,22,22);"/>
                </g>
                <g id="bird-head" transform="matrix(1.04068,0,0,1.3833,-950.787,-596.268)">
                    <path d="M114.811,1473.13C112.796,1472.95 106.151,1468.6 104.372,1464.2C101.186,1456.31 101.189,1456.19 101.979,1445.48C98.176,1452.27 97.036,1453.34 93.012,1461.8C89.457,1460.32 89.749,1459.57 85.937,1459.13C89.983,1463.52 98.229,1472.22 98.387,1472.39C103.113,1477.54 102.549,1479.76 106.727,1490.23C107.94,1493.27 123.784,1490.27 122.394,1483.19C121.782,1480.08 117.399,1475.3 114.868,1472.96" style="fill:rgb(22,22,22);"/>
                    <path d="M114.468,1470.92C115.098,1470.79 115.775,1470.96 116.282,1471.43C117.879,1472.91 120.177,1475.31 121.9,1477.7C123.194,1479.5 124.149,1481.32 124.439,1482.79C124.914,1485.21 124.05,1487.32 122.324,1489.04C120.246,1491.1 116.773,1492.54 113.553,1493.15C110.909,1493.65 108.445,1493.56 107.002,1493.01C106.396,1492.78 105.913,1492.47 105.551,1492.12L105.125,1491.62L104.793,1491C100.772,1480.93 101.4,1478.76 96.852,1473.8C96.695,1473.63 88.449,1464.93 84.404,1460.54C83.815,1459.89 83.686,1458.96 84.081,1458.18C84.476,1457.4 85.312,1456.96 86.177,1457.06C89.501,1457.44 89.939,1458.01 92.021,1459.06C95.378,1452.18 96.626,1450.78 100.16,1444.46C100.637,1443.61 101.642,1443.2 102.578,1443.48C103.513,1443.76 104.128,1444.65 104.056,1445.63C103.306,1455.8 103.277,1455.93 106.304,1463.42C107.235,1465.72 109.752,1467.96 111.95,1469.45C112.932,1470.12 113.825,1470.67 114.468,1470.92ZM114.115,1475.12C113.042,1474.86 111.366,1474.1 109.606,1472.9C106.765,1470.96 103.644,1467.96 102.44,1464.98C100.279,1459.63 99.504,1457.68 99.45,1453.94C98.188,1456.11 96.902,1458.47 94.893,1462.69C94.568,1463.38 93.918,1463.8 93.213,1463.87C96.606,1467.48 99.824,1470.88 99.921,1470.99C104.776,1476.27 104.335,1478.55 108.528,1489.12C108.698,1489.17 108.984,1489.25 109.207,1489.28C110.19,1489.39 111.452,1489.31 112.78,1489.06C114.826,1488.67 117.03,1487.89 118.622,1486.73C119.747,1485.9 120.607,1484.9 120.35,1483.6C120.15,1482.58 119.409,1481.37 118.519,1480.14C117.191,1478.29 115.482,1476.44 114.115,1475.12Z" style="fill:rgb(22,22,22);"/>
                </g>
                <g transform="matrix(1.08385,0,0,1.41507,-988.625,-642.112)">
                    <path d="M891.271,1435.3C867.458,1408.61 847.424,1418.97 837.352,1428.63C817.996,1418.43 778.522,1404.26 774.398,1401.54C728.683,1371.43 699.069,1400.4 635.431,1346.66C635.117,1346.39 628.537,1350.37 607.184,1328.05C604.852,1325.61 604.652,1327.28 597.269,1330.3C581.201,1315.43 581.738,1315.27 580.107,1315.18C528.059,1312.25 545.058,1268.04 486.811,1263.48C476.049,1262.64 474.702,1262.93 464.938,1253.98C458.529,1248.1 370.284,1255.28 342.916,1251.98C358.975,1294.29 370.732,1294.77 404.4,1325.12C404.521,1328.9 398.841,1329.53 414.182,1370.77C420.078,1386.62 425.967,1381.34 438.694,1370.23C439.686,1372.88 450.673,1402.24 461.487,1397.3C465.401,1395.51 465.443,1403.92 471.741,1411.83C475.369,1416.39 476.086,1415.11 484.042,1417.93C492.797,1436.25 502.925,1427.06 512.096,1444.74C517.002,1454.2 518.689,1451.86 529.024,1453.34C530.637,1456.44 544.098,1482.27 560.347,1483.72C588.074,1486.21 578.51,1507.64 605.817,1510.33C610.182,1510.76 612.316,1523.61 651.304,1556.34C659.139,1562.92 627.736,1584.79 626.878,1589.6C625.258,1598.68 582.184,1679.58 578.01,1728.5C644.67,1732.51 897.61,1732.17 897.151,1731.4C895.222,1728.13 906.631,1447.25 891.271,1435.3Z" style="fill:rgb(250,249,246);"/>
                    <path d="M892.643,1433.81L892.649,1433.81C893.345,1434.41 894.042,1435.39 894.653,1436.78C895.426,1438.53 896.135,1441.06 896.759,1444.27C899.054,1456.08 900.336,1477.64 900.95,1503.86C902.579,1573.39 899.587,1675.86 899.016,1715.23C898.89,1723.91 899.057,1730.81 899.057,1730.81C899.057,1730.81 898.91,1730.42 898.866,1730.35L899.057,1730.81L899.084,1730.87L899.148,1731.53L899.052,1732.04L898.769,1732.6L898.122,1733.18L897.415,1733.43C896.987,1733.5 894.456,1733.59 890.154,1733.65C848.893,1734.24 637.914,1734.14 577.892,1730.53C577.353,1730.5 576.85,1730.24 576.497,1729.83C576.144,1729.41 575.971,1728.87 576.018,1728.32C578.538,1698.78 595.112,1657.64 608.352,1627.49C617.022,1607.75 624.269,1592.83 624.909,1589.24C625,1588.73 625.251,1588.09 625.717,1587.37C626.422,1586.29 627.726,1584.83 629.415,1583.15C634.554,1578.05 643.477,1570.52 648.043,1564.3C649.26,1562.64 650.162,1561.11 650.467,1559.77C650.635,1559.03 650.585,1558.38 650.031,1557.91C622.535,1534.83 613.236,1521.56 608.621,1515.52C607.723,1514.35 607.029,1513.47 606.402,1512.88C606.112,1512.61 605.901,1512.39 605.624,1512.36C591.134,1510.93 586.411,1504.56 581.648,1498.18C577.435,1492.55 573.183,1486.92 560.172,1485.75C553.222,1485.13 546.694,1480.44 541.319,1474.7C534.461,1467.38 529.465,1458.45 527.745,1455.22C524.559,1454.82 522.252,1454.76 520.411,1454.52C518.76,1454.3 517.424,1453.92 516.188,1453.19C514.274,1452.05 512.547,1449.97 510.327,1445.69C506.051,1437.45 501.538,1435.49 497.087,1433.43C492.114,1431.14 487.196,1428.76 482.616,1419.59C479.915,1418.66 478.126,1418.24 476.758,1417.84C474.09,1417.04 472.742,1416.33 470.187,1413.12C466.305,1408.24 464.71,1403.19 463.208,1400.32C462.99,1399.91 462.781,1399.55 462.554,1399.27C462.514,1399.22 462.453,1399.16 462.407,1399.12C462.373,1399.13 462.335,1399.15 462.305,1399.16C458.331,1400.97 454.246,1399.3 450.57,1395.57C444.825,1389.74 439.972,1378.81 437.869,1373.62C434.12,1376.88 430.978,1379.49 428.262,1381.03C425.679,1382.49 423.383,1383.04 421.307,1382.62C419.501,1382.27 417.793,1381.19 416.199,1379.12C414.871,1377.4 413.581,1374.9 412.311,1371.49C399.7,1337.59 401.133,1330.34 402.059,1326.83C402.145,1326.5 402.239,1326.22 402.306,1325.95C368.892,1295.98 357.147,1295.12 341.05,1252.71C340.798,1252.04 340.906,1251.29 341.336,1250.73C341.766,1250.16 342.455,1249.87 343.152,1249.95C365.018,1252.59 425.795,1248.52 452.508,1249.79C457.383,1250.03 461.169,1250.45 463.461,1251.09C464.798,1251.46 465.731,1251.96 466.276,1252.46C470.89,1256.69 473.484,1258.78 476.227,1259.87C478.981,1260.96 481.859,1261.05 486.964,1261.45C516.919,1263.79 527.529,1276.33 537.338,1288.66C546.571,1300.27 555.024,1311.73 580.217,1313.15C581.218,1313.2 581.734,1313.18 583.514,1314.7C585.203,1316.15 588.698,1319.6 597.677,1327.93C600.642,1326.64 602.277,1325.66 603.409,1325.23C604.28,1324.89 604.986,1324.79 605.638,1324.87C606.565,1324.97 607.474,1325.43 608.617,1326.63C626.808,1345.64 633.407,1344.9 634.815,1344.66L635.772,1344.64L636.277,1344.81L636.708,1345.09C674.452,1376.96 700.094,1379.39 724.325,1382.67C740.936,1384.92 756.896,1387.59 775.485,1399.83C779.511,1402.48 817.329,1416.06 837.027,1426.17C842.327,1421.39 849.905,1416.76 859.061,1416.3C868.712,1415.82 880.218,1419.93 892.643,1433.81ZM628.836,1590.01C628.124,1593.78 620.836,1609.05 612.005,1629.16C599.242,1658.22 583.268,1697.6 580.203,1726.58C642.802,1730.08 849.338,1730.15 890.099,1729.58C892.108,1729.55 893.799,1729.51 894.974,1729.47C894.951,1728.75 894.935,1727.87 894.928,1726.83C894.766,1701.98 898.782,1582.14 896.95,1503.96C896.343,1478.05 895.103,1456.73 892.834,1445.06C892.284,1442.23 891.685,1439.99 891.002,1438.44C890.69,1437.73 890.412,1437.19 890.056,1436.92C889.96,1436.84 889.871,1436.76 889.79,1436.67C878.444,1423.95 868.066,1419.93 859.257,1420.37C850.545,1420.8 843.47,1425.56 838.723,1430.11C838.105,1430.7 837.186,1430.84 836.432,1430.44C817.022,1420.21 777.447,1405.98 773.311,1403.25C755.328,1391.41 739.868,1388.89 723.797,1386.71C699.144,1383.37 673.075,1380.87 634.814,1348.78C632.224,1349.06 624.006,1348.55 605.751,1329.47C605.548,1329.26 605.271,1329.03 605.155,1328.94C604.984,1328.99 604.505,1329.16 604.129,1329.34C602.857,1329.95 601.02,1330.96 598.015,1332.19C597.303,1332.48 596.491,1332.34 595.923,1331.81C586.318,1322.92 582.67,1319.31 580.936,1317.82C580.392,1317.35 580.302,1317.23 579.996,1317.21C553.142,1315.7 544.07,1303.6 534.229,1291.22C524.964,1279.58 514.95,1267.73 486.657,1265.51C481.001,1265.07 477.825,1264.88 474.773,1263.67C471.712,1262.45 468.75,1260.21 463.599,1255.49C463.25,1255.17 462.507,1255.01 461.494,1254.8C459.337,1254.34 456.199,1254.05 452.32,1253.86C426.78,1252.64 370.18,1256.28 345.974,1254.32C361.284,1293.18 373.231,1294.3 405.726,1323.59C406.138,1323.96 406.381,1324.49 406.399,1325.05C406.43,1326.01 406.207,1326.81 405.923,1327.89C405.047,1331.21 404.118,1337.96 416.053,1370.05C417.141,1372.98 418.209,1375.13 419.348,1376.61C420.221,1377.74 421.088,1378.43 422.076,1378.63C423.354,1378.88 424.725,1378.37 426.314,1377.47C429.356,1375.74 432.937,1372.57 437.392,1368.68C437.886,1368.25 438.555,1368.09 439.187,1368.25C439.818,1368.42 440.331,1368.88 440.563,1369.5C441.144,1371.05 445.223,1381.99 450.682,1389.45C452.373,1391.76 454.182,1393.73 456.081,1394.88C457.58,1395.79 459.122,1396.15 460.669,1395.44C461.813,1394.92 462.793,1394.92 463.665,1395.22C464.446,1395.49 465.177,1396.05 465.833,1396.93C466.602,1397.96 467.323,1399.58 468.192,1401.56C469.323,1404.14 470.778,1407.39 473.295,1410.55C475.094,1412.81 476.004,1413.37 477.882,1413.92C479.419,1414.38 481.471,1414.86 484.699,1416.01C485.199,1416.18 485.609,1416.55 485.84,1417.04C489.91,1425.56 494.302,1427.67 498.739,1429.72C503.834,1432.07 508.97,1434.35 513.864,1443.79C515.57,1447.08 516.738,1448.8 518.208,1449.67C519.243,1450.29 520.403,1450.44 521.924,1450.59C523.812,1450.77 526.163,1450.87 529.302,1451.32C529.937,1451.41 530.491,1451.81 530.791,1452.38C531.737,1454.2 536.845,1464.02 544.214,1471.89C548.894,1476.88 554.472,1481.15 560.522,1481.69C575.238,1483.01 580.068,1489.34 584.832,1495.72C589.045,1501.35 593.193,1507.04 606.009,1508.31C606.882,1508.39 607.718,1508.73 608.596,1509.43C609.476,1510.14 610.465,1511.31 611.776,1513.02C616.323,1518.96 625.49,1532.03 652.576,1554.77C654.374,1556.28 654.908,1558.29 654.366,1560.68C653.961,1562.47 652.859,1564.54 651.248,1566.74C646.574,1573.1 637.47,1580.84 632.211,1586.07C630.963,1587.31 629.945,1588.39 629.298,1589.27C629.096,1589.54 628.869,1589.95 628.836,1590.01ZM895.123,1731.5C895.144,1731.82 895.251,1732.13 895.437,1732.45L895.229,1731.98L895.123,1731.5Z" style="fill:rgb(22,22,22);"/>
                    <path d="M652.674,1560.84C653.201,1560.62 687.597,1589.39 690.535,1592.61C707.2,1610.88 705.255,1612.3 719.162,1632.92C740.118,1663.99 751.59,1660.1 752.546,1673.16C752.569,1673.47 758.067,1688.47 758.554,1689.8C745.821,1687.09 741.301,1681.03 730.086,1669.86C713.984,1670.16 716.235,1671.63 701.936,1668.12C698.38,1664.51 697.219,1636.08 683.524,1641.91C665.227,1649.7 663.014,1725.86 661.003,1727.09C646.721,1735.84 646.934,1721.02 647.418,1719.17C654.339,1692.71 646.494,1681.23 653.83,1673.37C663.976,1662.51 668.585,1659.86 666.542,1645.08C654.143,1636.6 660.887,1631.81 644.205,1609.44C638.558,1601.87 613.107,1599.58 634.721,1583.22C653.456,1569.04 649.234,1562.24 652.674,1560.84Z" style="fill:rgb(22,22,22);"/>
                    <path d="M754.523,1672.77C754.605,1673.01 754.806,1673.6 755.014,1674.19C756.447,1678.22 760.039,1688.03 760.428,1689.09C760.683,1689.79 760.546,1690.57 760.071,1691.13C759.595,1691.69 758.857,1691.95 758.144,1691.8C745.229,1689.04 740.431,1683.06 729.286,1671.91C713.805,1672.25 715.771,1673.61 701.467,1670.11C701.11,1670.02 700.783,1669.83 700.523,1669.57C699.74,1668.77 698.947,1667.04 698.247,1664.7C696.94,1660.32 695.606,1653.49 693.114,1648.5C691.921,1646.11 690.513,1644.13 688.53,1643.42C687.326,1642.99 685.933,1643.09 684.296,1643.79C682.414,1644.59 680.772,1646.28 679.263,1648.56C677.583,1651.09 676.107,1654.34 674.791,1658.04C670.698,1669.57 668.193,1685.45 666.514,1699.07C665,1711.36 664.156,1721.83 663.467,1725.78C663.27,1726.91 663.021,1727.65 662.835,1727.99L662.5,1728.45L662.034,1728.83C655.156,1733.05 651.012,1732.22 648.622,1730.17C647.112,1728.88 646.194,1726.95 645.721,1724.99C645.056,1722.23 645.278,1719.43 645.485,1718.64C649.573,1703.01 648.407,1692.69 648.397,1685.27C648.389,1679.63 649.089,1675.5 652.38,1671.97C661.747,1661.94 666.292,1659.42 664.676,1646.25C658.635,1641.93 657.134,1638.44 655.117,1633.21C653.21,1628.27 650.776,1621.62 642.612,1610.68C641.839,1609.64 640.611,1608.75 639.206,1607.87C636.75,1606.35 633.771,1604.95 631.19,1603.41C627.296,1601.09 624.393,1598.28 624.174,1594.8C624.08,1593.3 624.444,1591.63 625.507,1589.77C626.831,1587.47 629.342,1584.75 633.528,1581.59C646.02,1572.13 647.859,1566.17 648.925,1562.96C649.646,1560.79 650.377,1559.58 651.929,1558.95L652.568,1558.8L653.265,1558.89C653.431,1558.93 654.059,1559.26 654.977,1559.95C661.005,1564.52 689.336,1588.3 692.001,1591.22C708.766,1609.6 706.821,1611.03 720.811,1631.77C733.211,1650.15 742.251,1656.12 747.698,1660.74C751.79,1664.21 754.049,1667.05 754.523,1672.77ZM659.415,1725.68C660.124,1722.63 660.933,1711.64 662.545,1698.56C664.26,1684.65 666.848,1668.43 671.029,1656.66C674.024,1648.23 677.983,1642.06 682.752,1640.03C685.497,1638.86 687.845,1638.85 689.863,1639.58C692.712,1640.6 694.966,1643.22 696.68,1646.65C698.919,1651.14 700.304,1657.03 701.512,1661.51C701.955,1663.16 702.37,1664.6 702.809,1665.66C702.91,1665.91 703.002,1666.13 703.098,1666.31C716.377,1669.54 714.503,1668.11 730.05,1667.82C730.585,1667.81 731.102,1668.02 731.485,1668.4C741.205,1678.09 745.671,1683.88 755.348,1686.87C753.813,1682.67 751.451,1676.19 750.817,1674.33C750.616,1673.74 750.556,1673.37 750.551,1673.31C750.217,1668.75 748.352,1666.59 745.137,1663.87C739.538,1659.12 730.26,1652.97 717.513,1634.07C703.69,1613.58 705.634,1612.15 689.07,1593.99C686.498,1591.17 659.64,1568.65 652.974,1563.52C652.973,1563.52 652.971,1563.53 652.969,1563.53C652.726,1564.18 652.491,1564.99 652.139,1565.95C650.749,1569.75 647.696,1575.94 635.914,1584.86C632.882,1587.15 630.825,1589.13 629.563,1590.9C628.565,1592.29 628.1,1593.47 628.167,1594.54C628.228,1595.52 628.753,1596.34 629.482,1597.11C630.448,1598.13 631.767,1599.03 633.214,1599.9C635.814,1601.45 638.814,1602.86 641.289,1604.4C643.171,1605.57 644.764,1606.83 645.798,1608.21C654.315,1619.63 656.851,1626.57 658.841,1631.73C660.642,1636.39 661.93,1639.47 667.658,1643.39C668.129,1643.72 668.443,1644.23 668.522,1644.8C669.402,1651.16 669.077,1655.43 667.742,1659.02C665.806,1664.22 661.618,1667.99 655.28,1674.78C652.702,1677.54 652.391,1680.85 652.398,1685.26C652.408,1692.92 653.569,1703.57 649.351,1719.69C649.21,1720.23 649.153,1722.13 649.607,1724.02C649.88,1725.15 650.329,1726.31 651.201,1727.06C651.841,1727.61 652.722,1727.88 653.89,1727.77C655.361,1727.65 657.167,1726.99 659.415,1725.68Z" style="fill:rgb(22,22,22);"/>
                    <path d="M418.65,1377.4C416.246,1376.49 416.732,1373.94 416.722,1373.74C416.536,1369.88 410.967,1368.41 433.433,1315.12C418.369,1357.63 418.909,1364.81 418.65,1377.4Z" style="fill:rgb(22,22,22);"/>
                    <path d="M450.405,1391.2C427.407,1369.71 460.819,1333.29 466.326,1327.27C460.036,1358.45 451.485,1359.35 450.405,1391.2Z" style="fill:rgb(22,22,22);"/>
                    <path d="M469.939,1408.12C461.431,1402.22 456.314,1391.57 477.242,1351.75C472.03,1384.57 469.969,1403.87 469.939,1408.12Z" style="fill:rgb(22,22,22);"/>
                    <path d="M507.21,1373.05C501.588,1393.35 500.654,1428.35 500.634,1432.77C498.936,1433.28 490.155,1424.31 490.089,1423.08C488.519,1393.76 500.981,1378.76 507.21,1373.05Z" style="fill:rgb(22,22,22);"/>
                    <path d="M549.852,1382.81C549.55,1388.82 550.152,1396.52 552.546,1406.07C559.82,1435.09 553.674,1436.12 562.852,1464.53C574.948,1431.97 572.132,1430.87 589.63,1400.64C591.587,1397.26 594.847,1394.02 602.011,1385.17C594.016,1404.66 571.254,1441.06 573.937,1455.79C577.188,1473.63 575.943,1475.24 591.027,1485.72C612.437,1500.59 617.034,1509.78 651.938,1506.05C650.644,1514.41 652.134,1514.67 647.152,1522.88C644.596,1527.09 649.635,1540.65 651.705,1556.2C645.471,1553.05 615.043,1505.85 589.214,1503.67C586.309,1503.43 587.076,1493.54 571.485,1484.8C567.058,1482.32 551.156,1481.12 549.965,1479.49C536.792,1461.47 540.798,1441.72 541.354,1414.91C541.42,1411.75 545.956,1395.85 549.852,1382.81Z" style="fill:rgb(22,22,22);"/>
                    <path d="M414.719,1373.75C414.448,1369.89 408.97,1367.98 431.595,1314.32C432.021,1313.31 433.161,1312.82 434.167,1313.23C435.173,1313.63 435.682,1314.78 435.314,1315.81C420.405,1357.88 420.906,1364.98 420.65,1377.44C420.637,1378.1 420.31,1378.71 419.775,1379.08C419.239,1379.45 418.56,1379.53 417.953,1379.31C414.715,1378.08 414.704,1374.28 414.719,1373.75Z" style="fill:rgb(22,22,22);"/>
                    <path d="M449.052,1392.7C439.188,1383.48 438.886,1371.73 442.592,1360.5C447.885,1344.46 461.488,1329.58 464.862,1325.89C465.473,1325.22 466.446,1325.05 467.243,1325.46C468.04,1325.88 468.466,1326.79 468.285,1327.68C465.737,1340.31 462.825,1348.04 460.175,1354.82C456.322,1364.69 453.04,1372.51 452.405,1391.28C452.378,1392.07 451.899,1392.78 451.178,1393.08C450.458,1393.39 449.628,1393.24 449.052,1392.7ZM448.645,1386.21C449.489,1373.11 451.755,1365.64 454.545,1358.25C457.024,1351.68 459.941,1345.17 462.626,1334.56C457.35,1340.93 449.919,1351.08 446.384,1361.8C443.629,1370.14 443.275,1378.86 448.645,1386.21Z" style="fill:rgb(22,22,22);"/>
                    <path d="M468.814,1409.8C465.949,1407.82 463.452,1405.33 461.96,1401.64C460.518,1398.09 460.005,1393.35 461.213,1386.72C462.725,1378.43 466.97,1366.98 475.479,1350.79C475.94,1349.91 476.956,1349.5 477.883,1349.82C478.809,1350.14 479.373,1351.09 479.217,1352.07C474.033,1384.72 471.969,1403.91 471.939,1408.13C471.934,1408.88 471.522,1409.57 470.868,1409.92C470.214,1410.27 469.424,1410.22 468.814,1409.8ZM468.186,1404.01C468.756,1397.29 470.339,1383.88 473.288,1364.23C468.754,1374.03 466.222,1381.57 465.147,1387.47C464.125,1393.07 464.439,1397.08 465.658,1400.09C466.289,1401.65 467.163,1402.92 468.186,1404.01Z" style="fill:rgb(22,22,22);"/>
                    <path d="M505.457,1371.91C506.518,1368.2 507.735,1364.98 509.121,1362.53C515.737,1350.81 520.19,1344.09 523.322,1340.13C524.123,1338.97 525.049,1337.89 526.175,1336.88C528.109,1334.96 529.322,1334.43 530.309,1333.97C531.285,1333.51 532.439,1333.92 532.924,1334.9C533.41,1335.87 533.054,1337.06 532.119,1337.6C526.991,1340.52 525.343,1344.05 523.43,1349C521.295,1354.51 518.916,1361.65 512.256,1371.43C512.213,1371.49 511.847,1371.88 511.11,1372.43C510.616,1372.8 509.875,1373.38 508.967,1374.19C508.101,1377.42 507.354,1381.02 506.702,1384.8C503.292,1404.57 502.65,1429.13 502.634,1432.78C502.63,1433.68 502.049,1434.46 501.204,1434.72L500.292,1434.82L499.33,1434.6C498.6,1434.33 497.544,1433.67 496.382,1432.74C493.709,1430.59 490.269,1427.01 488.971,1425.21C488.639,1424.74 488.418,1424.35 488.302,1424.07L488.092,1423.19C486.506,1393.57 498.851,1378.11 505.457,1371.91ZM503.502,1380.12C497.648,1387.74 491.014,1401.2 492.066,1422.57C492.677,1423.27 496.286,1427.42 498.701,1429.41C498.935,1421.12 499.862,1400.9 502.762,1384.1C502.995,1382.75 503.242,1381.42 503.502,1380.12Z" style="fill:rgb(22,22,22);"/>
                    <path d="M547.866,1382.53C548.186,1376.54 549.371,1372.16 550.584,1369.24C551.824,1366.25 553.206,1364.62 553.902,1364.1C554.603,1363.58 555.555,1363.57 556.259,1364.09C556.962,1364.61 557.255,1365.53 556.985,1366.38C556.238,1368.69 554.158,1375.37 551.84,1383.09C551.567,1388.9 552.171,1396.34 554.485,1405.57C561.225,1432.46 556.403,1435.26 563.02,1458.24C572.872,1430.85 571.379,1428.16 587.907,1399.61C589.871,1396.22 593.142,1392.96 600.34,1384.06C600.574,1383.67 601.008,1383.06 601.641,1382.3C602.062,1381.8 602.584,1381.19 603.186,1380.49C608.53,1373.73 615.675,1364.27 625.345,1350.51C625.888,1349.74 626.883,1349.45 627.744,1349.82C628.604,1350.19 629.102,1351.11 628.942,1352.05C628.355,1355.5 624.259,1361.61 619.363,1367.74C614.529,1373.79 608.992,1379.94 605.9,1383.52C605.152,1384.46 604.44,1385.35 603.763,1386.18C598.925,1397.89 588.892,1415.56 582.187,1431C577.894,1440.89 574.879,1449.79 575.904,1455.41C577.769,1465.66 577.97,1470.34 581.042,1474.59C583.088,1477.42 586.387,1480.03 592.154,1484.04C613.106,1498.59 617.574,1507.67 651.73,1504.03C652.348,1503.96 652.961,1504.19 653.389,1504.65C653.817,1505.11 654.011,1505.75 653.914,1506.37C652.561,1515.11 654.063,1515.37 648.853,1523.95C648.499,1524.54 648.437,1525.39 648.446,1526.45C648.457,1527.89 648.681,1529.62 649.024,1531.6C650.126,1537.92 652.441,1546.57 653.687,1555.92C653.787,1556.67 653.473,1557.41 652.871,1557.85C652.27,1558.29 651.479,1558.36 650.816,1558.02C649.764,1557.49 648.051,1555.9 645.885,1553.48C641.396,1548.46 634.476,1539.69 626.357,1530.97C615.097,1518.89 601.569,1506.76 589.049,1505.7L588.395,1505.58L587.792,1505.33L586.863,1504.61C586.339,1504.07 585.831,1503.2 585.264,1502.06C583.603,1498.7 580.856,1492.38 570.52,1486.58C567.529,1484.91 559.094,1483.91 553.918,1482.88C552.133,1482.53 550.689,1482.16 549.844,1481.79C549.491,1481.64 549.208,1481.48 548.993,1481.32L548.36,1480.7C541.521,1471.35 539.112,1461.55 538.514,1450.61C537.936,1440.02 539.075,1428.33 539.354,1414.87C539.421,1411.68 543.952,1395.7 547.866,1382.53ZM593.602,1398.44C592.679,1399.62 591.954,1400.64 591.354,1401.68C573.943,1431.75 576.758,1432.85 564.724,1465.25C564.424,1466.06 563.656,1466.58 562.809,1466.57C561.961,1466.55 561.217,1465.99 560.952,1465.16C551.753,1436.69 557.898,1435.66 550.608,1406.57C549.54,1402.31 548.821,1398.4 548.375,1394.84C545.676,1404.21 543.4,1412.74 543.354,1414.95C543.077,1428.3 541.936,1439.89 542.509,1450.38C543.057,1460.42 545.194,1469.43 551.386,1478.02C551.785,1478.14 553.332,1478.62 554.686,1478.89C560.235,1479.99 569.243,1481.22 572.449,1483.01C582.332,1488.55 585.974,1494.55 587.985,1498.5C588.483,1499.48 588.872,1500.33 589.233,1501C589.36,1501.23 589.554,1501.52 589.659,1501.67C602.893,1502.94 617.373,1515.41 629.259,1528.17C637.388,1536.89 644.32,1545.68 648.822,1550.71C647.299,1542.13 645.234,1534.5 644.63,1529.23C644.247,1525.89 644.518,1523.35 645.45,1521.81C649.626,1514.93 648.995,1513.89 649.616,1508.33C616.256,1511.43 611.241,1502.22 589.899,1487.4C583.599,1483.03 580.056,1480.1 577.82,1477.01C574.469,1472.37 574.005,1467.33 571.97,1456.16C571.117,1451.48 572.586,1444.71 575.434,1437C579.848,1425.06 587.498,1410.68 593.602,1398.44Z" style="fill:rgb(22,22,22);"/>
                    <g transform="matrix(0.960176,0,0,0.977552,932.974,-21.9719)">
                        <path d="M-292.194,1308.6C-289.137,1306.05 -288.759,1306.88 -286.583,1306.37C-272.944,1303.2 -182.05,1393.15 -194.207,1433.54C-199.098,1449.79 -204.689,1444.71 -209.788,1444.05C-252.711,1438.54 -363.186,1380.72 -382.081,1371.5C-394.949,1365.22 -421.56,1344.88 -420.736,1342.78C-416.622,1332.26 -387.153,1325.78 -381.451,1321.22C-367.428,1310.01 -366.088,1312.25 -350.892,1302.65C-343.025,1297.68 -338.938,1308.6 -292.194,1308.6Z" style="fill:rgb(22,22,22);"/>
                    </g>
                    <g transform="matrix(0.960176,0,0,0.977552,932.974,-21.9719)">
                        <path d="M-292.933,1306.52C-289.93,1304.14 -289.429,1304.9 -287.056,1304.34C-285.527,1303.99 -283.181,1304.4 -280.258,1305.79C-274.664,1308.46 -266.301,1314.72 -256.914,1323.27C-238.387,1340.14 -215.75,1365.97 -202.45,1390.08C-193.331,1406.62 -188.683,1422.41 -192.212,1434.14C-194.395,1441.39 -196.879,1444.73 -199.227,1446.21C-201.303,1447.52 -203.396,1447.58 -205.482,1447.19C-207.029,1446.9 -208.562,1446.31 -210.053,1446.12C-253.131,1440.58 -364.032,1382.62 -382.995,1373.37C-393.438,1368.27 -412.805,1354.06 -419.705,1347.48C-421.403,1345.86 -422.398,1344.54 -422.659,1343.84L-422.838,1342.92L-422.676,1342.02C-421.906,1340.05 -420.413,1338.17 -418.361,1336.44C-415.604,1334.11 -411.801,1331.98 -407.645,1330.07C-401.653,1327.3 -394.918,1324.95 -389.745,1322.92C-386.572,1321.68 -384.019,1320.61 -382.752,1319.59C-368.638,1308.31 -367.298,1310.55 -352.005,1300.89C-349.138,1299.08 -346.694,1298.92 -343.131,1299.71C-336.397,1301.19 -324.809,1306.44 -292.933,1306.52ZM-418.425,1342.75C-418.056,1343.18 -417.445,1343.88 -416.83,1344.46C-410.126,1350.85 -391.314,1364.67 -381.167,1369.63C-362.34,1378.81 -252.291,1436.49 -209.522,1441.99C-208.223,1442.15 -206.892,1442.58 -205.551,1442.91C-204.191,1443.24 -202.803,1443.54 -201.445,1442.68C-199.584,1441.51 -197.932,1438.68 -196.202,1432.94C-192.923,1422.05 -197.625,1407.46 -206.099,1392.09C-219.188,1368.36 -241.485,1342.96 -259.72,1326.35C-267.461,1319.3 -274.458,1313.84 -279.691,1310.81C-281.323,1309.87 -282.768,1309.16 -283.997,1308.75C-284.871,1308.46 -285.576,1308.28 -286.111,1308.4C-287.941,1308.83 -288.288,1308.06 -290.859,1310.2C-291.233,1310.51 -291.706,1310.68 -292.194,1310.68C-320.57,1310.68 -333.408,1306.7 -340.858,1304.6C-344.992,1303.44 -347.13,1302.74 -349.78,1304.41C-364.877,1313.94 -366.217,1311.71 -380.15,1322.85C-381.279,1323.75 -383.24,1324.75 -385.747,1325.8C-391.049,1328.03 -398.977,1330.66 -405.9,1333.85C-409.682,1335.59 -413.161,1337.5 -415.669,1339.62C-416.851,1340.62 -417.812,1341.65 -418.425,1342.75Z" style="fill:rgb(22,22,22);"/>
                    </g>
                </g>
                <g transform="matrix(1.04068,0,0,1.3833,22.5767,-673.203)">
                    <path d="M-289.622,1303.43C-289.207,1302.83 -287.476,1289.58 -256.194,1278.31C-254.045,1277.53 -143.07,1329.26 -105.472,1387.31C-85.684,1417.87 -98.155,1423.07 -131.009,1438.53C-170.107,1456.93 -169.79,1442.87 -212.764,1439.86C-257.378,1436.74 -237.272,1412.88 -247.948,1404.15C-286.718,1372.43 -275.064,1356.82 -283.019,1347.85C-298.755,1330.13 -290.301,1327.48 -289.622,1303.43Z" style="fill:rgb(250,249,246);"/>
                </g>
                <g transform="matrix(1.04068,0,0,1.3833,22.5767,-673.203)">
                    <path d="M-291.512,1302.56L-291.413,1302.25C-290.511,1299.44 -286.29,1286.93 -256.9,1276.35L-256.446,1276.24L-255.86,1276.23C-255.642,1276.25 -255.282,1276.32 -254.795,1276.48C-253.068,1277.03 -248.681,1278.89 -242.403,1281.89C-211.49,1296.69 -133.998,1339.44 -103.724,1386.18C-95.345,1399.12 -92.689,1407.85 -94.433,1414.61C-95.529,1418.86 -98.317,1422.44 -102.742,1425.82C-108.818,1430.45 -118.125,1434.77 -130.122,1440.42C-154.267,1451.78 -163.819,1451.04 -177.142,1448.02C-185.697,1446.08 -195.87,1443.13 -212.91,1441.94C-229.898,1440.75 -237.929,1436.48 -241.886,1431.38C-244.644,1427.82 -245.522,1423.78 -245.875,1419.78C-246.137,1416.81 -246.099,1413.88 -246.528,1411.25C-246.88,1409.1 -247.545,1407.17 -249.267,1405.76C-277.106,1382.99 -279.524,1368.26 -281.314,1358.34C-281.984,1354.63 -282.439,1351.65 -284.577,1349.24C-294.671,1337.87 -295.331,1332.25 -294.186,1324.06C-293.48,1319.01 -291.973,1312.89 -291.705,1303.37C-291.697,1303.09 -291.631,1302.81 -291.512,1302.56ZM-256.064,1280.48C-282.469,1290.12 -286.626,1300.98 -287.447,1303.53L-287.548,1303.76C-287.843,1313.33 -289.345,1319.53 -290.06,1324.64C-291.057,1331.77 -290.25,1336.57 -281.461,1346.47C-278.827,1349.44 -278.039,1353.03 -277.213,1357.6C-275.513,1367.02 -273.068,1380.91 -246.629,1402.54C-242.967,1405.53 -242.267,1410.01 -241.992,1415.01C-241.734,1419.69 -241.855,1424.91 -238.317,1429.17C-234.681,1433.54 -227.353,1436.75 -212.619,1437.78C-195.28,1439 -184.926,1441.99 -176.221,1443.96C-163.655,1446.81 -154.669,1447.36 -131.896,1436.65C-120.239,1431.16 -111.173,1427.01 -105.269,1422.51C-101.707,1419.79 -99.35,1416.99 -98.468,1413.57C-96.917,1407.55 -99.768,1399.95 -107.221,1388.44C-137.102,1342.31 -213.691,1300.26 -244.203,1285.65C-249.963,1282.89 -254.854,1280.95 -256.064,1280.48Z" style="fill:rgb(22,22,22);"/>
                </g>
                <g transform="matrix(1.04068,0,0,1.3833,22.5767,-673.203)">
                    <path d="M-347.218,1299.95C-341.262,1289.07 -344.281,1284.37 -342.728,1281.72C-341.565,1279.75 -270.642,1195.16 -252.038,1179.31C-216.606,1149.12 -198.147,1149.97 -192.831,1149.19C-124.846,1139.23 -92.603,1149.69 -89.103,1148.46C-85.046,1147.03 -63.325,1139.36 -41.103,1172.7C-37.048,1178.79 -28.82,1183.01 -32.257,1264.18C-35.011,1329.22 -29.802,1462.39 -31.701,1495.99C-43.877,1493.22 -100.081,1485.15 -101.731,1484.99C-109.67,1484.2 -120.143,1475.26 -120.855,1475.1C-129.354,1473.15 -209.315,1438.49 -215.625,1437.55C-226.769,1435.89 -210.748,1391.46 -235.396,1377.27C-244.32,1372.13 -241.643,1369.09 -250.226,1363.5C-264.811,1354.01 -267.439,1356.61 -283.261,1333.57" style="fill:rgb(22,22,22);"/>
                </g>
                <g transform="matrix(1.04068,0,0,1.3833,22.5767,-673.203)">
                    <path d="M-89.709,1146.46C-87.449,1145.67 -80.623,1143.33 -71.433,1145.51C-62.384,1147.66 -50.905,1154.24 -39.37,1171.55C-35.258,1177.72 -26.691,1181.97 -30.176,1264.27C-32.93,1329.32 -27.722,1462.51 -29.621,1496.1C-29.656,1496.71 -29.958,1497.28 -30.448,1497.65C-30.938,1498.02 -31.565,1498.15 -32.163,1498.02C-44.294,1495.26 -100.292,1487.22 -101.935,1487.06C-109.432,1486.32 -119.142,1478.76 -121.542,1477.11C-121.568,1477.09 -121.598,1477.07 -121.626,1477.05C-131.556,1474.43 -209.701,1440.54 -215.932,1439.61C-217.945,1439.31 -219.421,1438.15 -220.433,1436.18C-221.541,1434.03 -222.045,1430.68 -222.233,1426.58C-222.562,1419.38 -222.051,1409.66 -223.607,1400.5C-225.074,1391.87 -228.38,1383.71 -236.435,1379.08C-241.284,1376.29 -242.977,1374.06 -244.627,1371.78C-246.032,1369.83 -247.393,1367.83 -251.362,1365.25C-266.213,1355.58 -268.868,1358.21 -284.978,1334.75C-288.539,1329.57 -288.377,1324.38 -286.206,1317.27C-283.911,1309.76 -279.303,1299.86 -275.426,1284.76C-281.361,1293.04 -289.068,1301.84 -289.611,1302.5C-295.019,1309.05 -298.679,1309.88 -303.291,1309.53C-307.229,1309.24 -312.042,1307.79 -320.162,1308.9C-327.827,1309.95 -331.352,1308.87 -334.849,1307.15C-337.948,1305.63 -341.008,1303.48 -347.674,1301.98C-348.313,1301.84 -348.847,1301.41 -349.116,1300.81C-349.386,1300.21 -349.36,1299.53 -349.045,1298.95C-345.147,1291.83 -345.359,1287.54 -345.34,1284.76C-345.329,1283.04 -345.152,1281.74 -344.524,1280.67C-343.369,1278.7 -339.425,1271.99 -331.564,1255.29C-328.471,1248.72 -323.527,1244.51 -317.727,1240.19C-312.314,1236.16 -306.133,1232.01 -300.217,1225.35C-296.67,1221.35 -272.074,1193.65 -253.389,1177.73C-217.343,1147.01 -198.541,1147.92 -193.133,1147.13C-138.416,1139.11 -106.712,1144.25 -94.417,1145.99C-92.112,1146.32 -89.923,1146.45 -89.709,1146.46ZM-268.436,1272.25C-272.621,1295.38 -279.284,1308.87 -282.221,1318.49C-283.945,1324.13 -284.373,1328.28 -281.543,1332.39C-266.009,1355.01 -263.409,1352.44 -249.089,1361.76C-244.475,1364.76 -242.884,1367.08 -241.25,1369.34C-239.863,1371.26 -238.433,1373.12 -234.357,1375.47C-226.437,1380.02 -222.38,1387.46 -220.339,1395.74C-218.395,1403.62 -218.298,1412.27 -218.217,1419.68C-218.156,1425.24 -218.139,1430.05 -217.176,1433.15C-216.79,1434.39 -216.347,1435.34 -215.319,1435.49C-208.999,1436.43 -128.903,1471.12 -120.39,1473.07C-120.183,1473.12 -119.331,1473.56 -118.13,1474.43C-115.012,1476.69 -107.528,1482.32 -101.526,1482.91C-99.963,1483.07 -49.548,1490.31 -33.664,1493.44C-32.114,1456.31 -37.03,1327.66 -34.339,1264.09C-30.949,1184.04 -38.837,1179.86 -42.837,1173.86C-53.523,1157.83 -64.015,1151.56 -72.397,1149.57C-80.516,1147.64 -86.52,1149.76 -88.41,1150.42C-88.779,1150.55 -89.325,1150.65 -90.061,1150.64C-91.095,1150.64 -92.735,1150.43 -95,1150.12C-107.148,1148.4 -138.47,1143.33 -192.529,1151.25C-197.753,1152.02 -215.868,1151.23 -250.687,1180.9C-269.21,1196.68 -293.585,1224.15 -297.101,1228.11C-303.237,1235.03 -309.626,1239.36 -315.24,1243.54C-320.467,1247.42 -325.007,1251.14 -327.794,1257.07C-335.76,1273.99 -339.762,1280.79 -340.932,1282.78C-341.091,1283.05 -341.115,1283.37 -341.142,1283.74C-341.193,1284.43 -341.169,1285.23 -341.181,1286.17C-341.216,1288.98 -341.489,1292.89 -344.174,1298.57C-339.95,1299.76 -337.257,1301.18 -334.905,1302.43C-331.218,1304.39 -328.479,1305.84 -320.728,1304.78C-313.809,1303.83 -309.143,1304.59 -305.407,1305.1C-303.059,1305.42 -301.148,1305.68 -299.207,1305.05C-297.25,1304.41 -295.316,1302.86 -292.824,1299.85C-292.244,1299.14 -283.339,1289 -277.386,1280.3C-274.989,1276.8 -273.054,1273.57 -272.507,1271.38C-272.236,1270.29 -271.148,1269.61 -270.048,1269.85C-268.949,1270.08 -268.236,1271.15 -268.436,1272.25Z" style="fill:rgb(22,22,22);"/>
                </g>
                <g transform="matrix(1.04068,0,0,1.3833,22.5767,-673.203)">
                    <path d="M-348.227,1296.58C-383.594,1289.15 -445.682,1238.5 -476.601,1218.8C-483.176,1214.61 -489.574,1229.27 -515.818,1263.03C-504.041,1284.58 -472.509,1301.88 -459.547,1312.03C-459.547,1312.03 -428.243,1330.9 -417.431,1342.68C-415.183,1345.13 -415.838,1340.6 -380.78,1323.1C-368.668,1317.05 -367.858,1318.29 -345.387,1297.87" style="fill:rgb(250,249,246);"/>
                    <path d="M-346.238,1295.96C-345.438,1295.61 -344.466,1295.78 -343.845,1296.46C-343.072,1297.32 -343.135,1298.63 -343.986,1299.41C-366.751,1320.1 -367.579,1318.84 -379.849,1324.96C-404.318,1337.18 -411.336,1343.06 -414.115,1344.65C-415.247,1345.29 -416.051,1345.42 -416.69,1345.36L-417.327,1345.23L-417.887,1344.98C-418.231,1344.79 -418.585,1344.5 -418.966,1344.09C-429.654,1332.45 -460.623,1313.81 -460.623,1313.81C-460.695,1313.77 -460.765,1313.72 -460.831,1313.67C-473.938,1303.41 -505.738,1285.82 -517.646,1264.03C-518.044,1263.3 -517.972,1262.4 -517.462,1261.75C-498.953,1237.94 -490.206,1223.59 -484.373,1218.55C-480.955,1215.6 -478.199,1215.31 -475.481,1217.05C-456.931,1228.86 -427.16,1251.82 -398.672,1269.91C-379.925,1281.81 -361.762,1291.61 -347.798,1294.55C-347.034,1294.71 -346.456,1295.27 -346.238,1295.96ZM-349.198,1298.51C-363.456,1295.36 -381.909,1285.48 -400.905,1273.42C-429.395,1255.34 -459.168,1232.38 -477.72,1220.56C-478.591,1220 -479.449,1220.16 -480.462,1220.8C-481.557,1221.5 -482.744,1222.65 -484.125,1224.21C-489.787,1230.63 -498.156,1243.62 -513.322,1263.21C-508.671,1271.16 -501.304,1278.48 -493.331,1285.06C-480.531,1295.61 -466.153,1304.24 -458.363,1310.31C-456.35,1311.53 -426.936,1329.48 -416.155,1340.99C-415.819,1340.79 -415.321,1340.49 -414.815,1340.15C-411.127,1337.68 -402.893,1331.81 -381.711,1321.24C-370.207,1315.49 -369.04,1316.4 -349.198,1298.51Z" style="fill:rgb(22,22,22);"/>
                </g>
            </g>
        </g>
    </g>
</svg>
