<?xml version="1.0" encoding="UTF-8" standalone="no"?>
<!DOCTYPE svg PUBLIC "-//W3C//DTD SVG 1.1//EN" "http://www.w3.org/Graphics/SVG/1.1/DTD/svg11.dtd">
<svg width="100%" height="100%" viewBox="0 0 896 1347" version="1.1" xmlns="http://www.w3.org/2000/svg" xmlns:xlink="http://www.w3.org/1999/xlink" xml:space="preserve" xmlns:serif="http://www.serif.com/" style="fill-rule:evenodd;clip-rule:evenodd;stroke-linejoin:round;stroke-miterlimit:2;">
    <g transform="matrix(1,0,0,1,0,-2295.97)">
        <g id="eating-person-2">
        </g>
        <g id="Artboard6" transform="matrix(0.977919,0,0,0.980361,55.4709,71.0865)">
            <rect x="-56.723" y="2269.46" width="915.373" height="1373.51" style="fill:none;"/>
            <clipPath id="_clip1">
                <rect x="-56.723" y="2269.46" width="915.373" height="1373.51"/>
            </clipPath>
            <g clip-path="url(#_clip1)">
                <g id="eating-person" transform="matrix(1.02122,-0.0526599,0.0527913,1.01867,2.43982,-260.93)">
                    <g transform="matrix(0.59902,0,0,0.535362,447.325,1510.38)">
                        <path d="M409.214,3257.9C471.906,3257.9 571.337,3284.53 631.476,3308.46C647.05,3314.66 660.004,3320.68 669.045,3326.01C675.511,3329.83 680.058,3333.39 682.374,3336.39C684.256,3338.83 684.918,3341.18 684.778,3343.18C684.617,3345.45 683.513,3347.66 680.838,3349.34C677.801,3351.24 671.821,3352.63 662.365,3352.92C447.297,3359.56 256.967,3281.17 229.828,3263.98C227.55,3262.53 226.204,3261.29 225.675,3260.53L225.111,3259.49L224.811,3258.35L224.899,3256.62L225.215,3255.74L225.676,3254.99L226.883,3253.95L228.226,3253.49C290.623,3243 362.44,3257.9 409.214,3257.9ZM237.896,3259.9C240.518,3261.3 243.81,3262.93 247.725,3264.76C302.146,3290.31 472.472,3351 662.174,3345.14C668,3344.96 672.302,3344.42 675.222,3343.5C676.13,3343.22 677.119,3342.65 677.623,3342.35C677.356,3341.91 676.886,3341.18 676.415,3340.67C675.867,3340.08 675.215,3339.46 674.468,3338.83C673.46,3337.97 672.287,3337.09 670.961,3336.17C669.241,3334.98 667.27,3333.75 665.07,3332.47C620.898,3306.85 486.685,3265.68 409.214,3265.68C364.851,3265.68 297.831,3252.1 237.896,3259.9Z" style="fill:rgb(22,22,22);"/>
                    </g>
                    <g id="person">
                        <path d="M646.825,3255.74C640.152,3253.8 643.049,3243.18 638.448,3218.07C684.748,3214.69 682.396,3218.68 685.999,3215.12C690.687,3210.5 640.861,3095.83 619.666,3079.37C602.95,3066.38 620.525,3022.47 598.774,3008.11C593.384,3004.56 601.099,3003.79 600.546,2997.2C600.179,2992.84 598.258,2992.55 595.438,2989.02C579.531,2987.16 589.571,2978.02 582.154,2964.03C571.131,2943.23 547.685,2962.8 546.966,2964.19C541.826,2974.07 547.988,2992.18 548.595,2997.38C556.163,3001.66 554.937,3004.02 563.61,3005.25C576.221,3007.04 567.777,3025.2 566.831,3045.77C566.124,3061.13 555.268,3068.21 557.399,3072C558.481,3073.92 561.392,3074.68 561.938,3076.81C562.024,3077.15 564.934,3116.45 550.051,3214.47C562.524,3215.38 562.024,3221.81 574.55,3219.13C574.915,3222.8 575.28,3226.46 575.645,3230.12C591.157,3236.65 592.993,3237.58 594.375,3238.23C595.124,3238.59 593.651,3246.33 595.716,3255.28C597.458,3262.83 625.25,3256.4 646.825,3255.74Z" style="fill:rgb(22,22,22);"/>
                        <path d="M599.05,3005.67C599.239,3005.85 599.573,3006.14 599.922,3006.38C605.799,3010.25 609.071,3016.1 610.878,3022.95C612.588,3029.43 612.978,3036.83 613.19,3044.2C613.395,3051.29 613.434,3058.35 614.462,3064.43C615.409,3070.03 617.152,3074.78 620.944,3077.72C626.156,3081.77 633.111,3091.58 640.523,3104.26C657.473,3133.28 677.152,3177.47 684.906,3200.14C686.912,3206 688.121,3210.48 688.347,3212.96C688.522,3214.89 687.991,3216.09 687.462,3216.61C686.684,3217.38 686.09,3217.85 685.422,3218.18C684.474,3218.65 683.334,3218.83 681.013,3218.81C676.614,3218.75 666.837,3218.16 640.903,3219.98C643.267,3233.77 643.374,3242.93 644.369,3248.51C644.884,3251.4 645.44,3253.17 647.405,3253.74C648.39,3254.02 649.02,3254.98 648.892,3256C648.763,3257.02 647.914,3257.79 646.889,3257.82C631.717,3258.29 613.484,3261.57 603.311,3260.91C600.298,3260.72 597.915,3260.15 596.347,3259.22C594.904,3258.36 594.02,3257.19 593.686,3255.75C592.337,3249.9 592.433,3244.55 592.503,3241.3C592.515,3240.71 592.514,3240.1 592.509,3239.65C590.846,3238.88 587.213,3237.25 574.837,3232.04C574.133,3231.75 573.648,3231.09 573.572,3230.33L572.701,3221.59C567.277,3222.39 564.34,3221.39 561.406,3220.04C558.582,3218.73 555.772,3216.98 549.899,3216.55C549.32,3216.51 548.785,3216.22 548.423,3215.77C548.06,3215.32 547.904,3214.73 547.991,3214.16C562.785,3116.72 560.004,3077.66 559.919,3077.33C559.829,3076.98 559.545,3076.74 559.263,3076.5C558.89,3076.18 558.471,3075.88 558.062,3075.58C557.073,3074.84 556.154,3074.03 555.583,3073.02C554.658,3071.38 555.003,3069.22 556.558,3066.53C558.958,3062.36 564.276,3055.98 564.75,3045.67C565.315,3033.39 568.582,3021.97 568.381,3014.42C568.317,3012.01 567.942,3010.05 566.683,3008.78C565.907,3007.99 564.799,3007.52 563.317,3007.31C557.512,3006.49 555.695,3005.18 553.336,3003.26C551.993,3002.16 550.453,3000.82 547.569,2999.19C546.991,2998.86 546.603,2998.28 546.526,2997.62C546.161,2994.49 543.794,2986.7 543.07,2978.83C542.549,2973.18 542.896,2967.5 545.118,2963.22C545.22,2963.03 545.534,2962.58 546.123,2962.02C547.521,2960.7 551.07,2957.9 555.565,2955.68C560.804,2953.09 567.289,2951.35 573.192,2953.24C577.216,2954.53 581.031,2957.46 583.995,2963.05C587.148,2969 587.366,2974.12 587.535,2978.25C587.634,2980.7 587.589,2982.73 588.657,2984.25C589.698,2985.72 591.778,2986.49 595.679,2986.95C596.225,2987.01 596.723,2987.29 597.066,2987.72C598.148,2989.08 599.096,2989.93 599.862,2990.74C601.36,2992.32 602.346,2993.76 602.622,2997.03C602.9,3000.34 601.565,3002.5 600.237,3004.17C599.922,3004.56 599.61,3004.92 599.34,3005.26C599.246,3005.38 599.134,3005.54 599.05,3005.67ZM684.204,3213.97C684.184,3213.57 684.119,3212.56 683.931,3211.63C683.442,3209.2 682.416,3205.73 680.964,3201.49C673.271,3179 653.742,3135.15 636.926,3106.37C629.867,3094.28 623.351,3084.87 618.388,3081.01C614.694,3078.14 612.459,3073.94 611.146,3068.87C609.328,3061.86 609.279,3053.12 609.025,3044.32C608.823,3037.28 608.483,3030.2 606.849,3024.01C605.312,3018.18 602.625,3013.15 597.627,3009.85C595.563,3008.49 594.921,3007.21 594.794,3006.17L594.775,3005.53L594.859,3004.94C594.965,3004.48 595.165,3004.01 595.458,3003.54C595.886,3002.85 596.585,3002.11 597.258,3001.21C597.95,3000.28 598.615,2999.11 598.47,2997.38C598.305,2995.42 597.733,2994.55 596.836,2993.6C596.136,2992.86 595.303,2992.09 594.357,2990.98C590.255,2990.4 587.797,2989.27 586.262,2987.81C584.484,2986.13 583.794,2983.96 583.538,2981.27C583.152,2977.2 583.849,2971.68 580.314,2965C577.987,2960.61 575.079,2958.22 571.921,2957.2C567.052,2955.64 561.732,2957.28 557.412,2959.41C553.165,2961.51 549.094,2965 548.731,2965.31C546.919,2968.93 546.782,2973.71 547.219,2978.45C547.868,2985.5 549.848,2992.49 550.5,2996.07C553.118,2997.64 554.635,2998.94 555.969,3000.03C557.838,3001.55 559.301,3002.53 563.902,3003.19C566.457,3003.55 568.306,3004.49 569.643,3005.84C571.555,3007.77 572.449,3010.64 572.547,3014.31C572.749,3021.93 569.482,3033.46 568.912,3045.87C568.467,3055.55 564.229,3062.12 561.357,3066.67C560.525,3067.99 559.817,3069.1 559.426,3070.07C559.345,3070.27 559.279,3070.46 559.239,3070.65C559.212,3070.77 559.16,3070.88 559.214,3070.98C559.742,3071.91 560.871,3072.43 561.732,3073.13C562.798,3074 563.627,3075.01 563.956,3076.3C564.042,3076.63 567.037,3115.6 552.437,3212.62C556.464,3213.18 559.069,3214.31 561.353,3215.4C564.751,3217.02 567.308,3218.55 574.114,3217.09C574.694,3216.97 575.299,3217.1 575.778,3217.45C576.257,3217.8 576.564,3218.34 576.623,3218.93L577.595,3228.68C592.124,3234.8 593.91,3235.71 595.265,3236.35L595.962,3236.86L596.413,3237.58C596.541,3237.89 596.664,3238.44 596.687,3239.22C596.757,3241.61 596.136,3247.83 597.746,3254.81C597.868,3255.34 598.356,3255.62 598.973,3255.89C600.124,3256.38 601.695,3256.63 603.581,3256.75C612.548,3257.34 627.832,3254.8 641.681,3253.9C641.06,3252.67 640.604,3251.13 640.267,3249.24C639.219,3243.36 639.158,3233.51 636.399,3218.45C636.292,3217.87 636.438,3217.26 636.8,3216.8C637.162,3216.33 637.706,3216.04 638.296,3215.99C666.192,3213.96 676.5,3214.58 681.065,3214.64C682.382,3214.66 683.046,3214.71 683.585,3214.44C683.803,3214.34 683.99,3214.18 684.204,3213.97Z" style="fill:rgb(22,22,22);"/>
                    </g>
                    <path d="M692.453,3256.62C759.163,3256.62 895.671,3301.9 844.038,3303.32C701.499,3307.25 577.162,3255.31 584.347,3254.23C621.617,3248.63 664.514,3256.62 692.453,3256.62Z" style="fill:rgb(22,22,22);"/>
                </g>
                <g transform="matrix(1.02258,0,0,1.02003,-19.1047,-72.5106)">
                    <path d="M779.711,2283.77C767.724,2375.45 777.513,2373.03 788.921,2436.68C794.011,2465.08 820.784,2554.83 785.359,2618.27C755.521,2671.71 635.477,2601.77 621.661,2655.66C619.97,2662.26 660.307,2768.86 552.78,2743.27C526.48,2737.02 239.964,2734.53 228.173,2733.25C155.777,2725.43 41.364,2864.08 -59.212,2882.52C-59.618,2820.13 -58.736,2358.05 -49.887,2286.03C127.095,2285.81 747.49,2281.2 779.711,2283.77Z" style="fill:rgb(22,22,22);"/>
                    <g id="upper-face" transform="matrix(1,0,0,1,5.30474,-1.34795)">
                        <path d="M618.392,2657.46C618.406,2657.61 618.549,2659.19 618.829,2660.66C619.744,2665.45 621.761,2673.75 623.118,2683.39C624.498,2693.18 625.189,2704.35 623.428,2714.68C621.614,2725.33 617.202,2735.1 608.453,2741.77C597.034,2750.49 577.991,2754.02 546.993,2746.65C520.714,2740.4 234.426,2737.94 222.645,2736.67C211.356,2735.45 199.026,2737.93 185.863,2742.95C165.736,2750.63 143.725,2764.27 120.579,2780.17C62.098,2820.35 -3.55,2874.81 -64.141,2885.92C-64.747,2886.03 -65.371,2885.87 -65.846,2885.47C-66.32,2885.08 -66.596,2884.5 -66.6,2883.88C-67.006,2821.46 -66.112,2359.18 -57.26,2287.12C-57.131,2286.08 -56.246,2285.3 -55.194,2285.3C121.823,2285.07 742.345,2280.47 774.573,2283.05C775.141,2283.09 775.667,2283.37 776.026,2283.81C776.385,2284.26 776.546,2284.83 776.472,2285.39C764.535,2376.69 774.307,2374.27 785.667,2437.66C788.732,2454.76 799.612,2494.02 800.161,2536.45C800.53,2564.99 796.222,2594.94 781.873,2620.63C774.075,2634.6 760.446,2640.61 744.069,2642.49C728.259,2644.31 709.856,2642.26 691.959,2640.21C674.414,2638.2 657.365,2636.17 643.847,2638.01C631.128,2639.74 621.63,2644.94 618.392,2657.46ZM772.052,2287.07C720.93,2284.79 122.934,2289.21 -53.338,2289.46C-61.875,2366.11 -62.813,2810.66 -62.448,2881.35C-3.033,2869.34 60.999,2816.05 118.22,2776.74C141.669,2760.63 163.986,2746.84 184.377,2739.06C198.227,2733.77 211.214,2731.25 223.092,2732.53C234.892,2733.8 521.636,2736.33 547.958,2742.6C577.176,2749.55 595.162,2746.68 605.925,2738.46C613.812,2732.44 617.685,2723.58 619.321,2713.98C621.009,2704.07 620.315,2693.36 618.992,2683.97C617.646,2674.41 615.643,2666.19 614.736,2661.44C614.259,2658.94 614.152,2657.22 614.338,2656.49C617.308,2644.91 624.819,2638.62 635.234,2635.55C645.132,2632.64 657.763,2632.73 671.526,2633.88C695.631,2635.89 723.296,2641.15 745.416,2638.13C759.566,2636.19 771.406,2630.83 778.235,2618.6C792.226,2593.55 796.355,2564.33 795.994,2536.5C795.449,2494.37 784.609,2455.38 781.566,2438.4C770.203,2375 760.462,2376.87 772.052,2287.07Z" style="fill:rgb(22,22,22);"/>
                    </g>
                </g>
                <g id="neck" transform="matrix(1.02256,-0.00550694,0.00552069,1.02002,-32.4598,-72.554)">
                    <path d="M-63.948,2865.57C-63.005,2765.68 119.152,3077.21 86.878,3066.5C84.828,3074.75 77.194,3176.72 84.046,3199.52C112.471,3294.06 131.41,3298.59 178.049,3312.77C186.93,3315.47 239.098,3378.43 263.661,3390C392.38,3450.65 796.239,3469 855.191,3481.63C854.223,3553.73 853.542,3637.53 856.558,3648.45C858.442,3655.27 -61.259,3645.34 -61.24,3643.64" style="fill:rgb(22,22,22);"/>
                    <path d="M-60.729,3641.62C-59.976,3641.65 -51.715,3641.97 -40.197,3642.2C81.79,3644.61 698.427,3650.95 831.27,3647.94C841.538,3647.7 848.899,3647.42 852.892,3647.07C853.333,3647.03 853.76,3646.98 854.138,3646.93C851.604,3630.14 852.173,3551.8 853.084,3483.33C814.631,3475.8 657.699,3466.18 510.238,3446.88C410.134,3433.78 314.391,3416.21 262.773,3391.88C245.443,3383.72 214.422,3350.24 194.334,3329.92C189.26,3324.78 184.894,3320.51 181.642,3317.73C179.761,3316.13 178.358,3315.04 177.443,3314.76C158.519,3309.01 144.11,3304.77 131.763,3295.68C113.282,3282.08 99.316,3257.54 82.051,3200.12C79.962,3193.17 79.155,3178.98 79.165,3162.29C79.188,3123.77 83.414,3071.8 84.856,3066C84.996,3065.44 85.365,3064.96 85.873,3064.68C86.381,3064.4 86.983,3064.34 87.534,3064.53C87.73,3064.59 87.912,3064.64 88.083,3064.67C88.171,3064.68 88.296,3064.68 88.373,3064.68C88.424,3064.4 88.682,3062.89 88.525,3061.57C88.408,3060.58 88.193,3059.45 87.891,3058.19C84.137,3042.59 67.339,3008.77 46.203,2972.68C23.944,2934.68 -3.146,2894.19 -25.064,2869.81C-34.243,2859.6 -42.452,2852.23 -49,2849.23C-52.104,2847.81 -54.73,2847.36 -56.793,2848.5C-58.331,2849.35 -59.458,2851.04 -60.298,2853.53C-61.29,2856.49 -61.817,2860.47 -61.865,2865.59C-61.876,2866.74 -62.818,2867.66 -63.968,2867.65C-65.118,2867.64 -66.042,2866.7 -66.031,2865.55C-65.967,2858.69 -65.046,2853.67 -63.484,2850.26C-62.281,2847.64 -60.68,2845.89 -58.807,2844.85C-55.761,2843.17 -51.847,2843.35 -47.265,2845.45C-40.366,2848.61 -31.635,2856.27 -21.965,2867.03C0.1,2891.57 27.389,2932.32 49.799,2970.58C66.883,2999.75 81.131,3027.47 88.092,3045.46C91.196,3053.48 92.842,3059.66 92.792,3063.29C92.762,3065.5 92.088,3067 91.125,3067.85C90.469,3068.43 89.623,3068.81 88.564,3068.85C86.918,3079.85 83.353,3126.83 83.332,3162.29C83.322,3178.45 84.019,3192.19 86.041,3198.92C102.887,3254.95 116.201,3279.05 134.234,3292.33C146.23,3301.16 160.268,3305.18 178.655,3310.77C179.607,3311.06 181.007,3311.88 182.734,3313.24C186.159,3315.93 191.239,3320.86 197.297,3326.99C217.071,3346.99 247.49,3380.08 264.549,3388.12C315.905,3412.31 411.182,3429.72 510.778,3442.75C660.625,3462.36 820.239,3472.01 855.627,3479.59C856.598,3479.8 857.287,3480.66 857.274,3481.66C856.309,3553.51 855.56,3637.01 858.566,3647.9L858.626,3648.75L858.383,3649.5L857.901,3650.11L857.108,3650.59C856.586,3650.79 855.293,3651.04 853.258,3651.22C849.214,3651.57 841.762,3651.87 831.364,3652.1C698.495,3655.12 81.732,3648.78 -40.279,3646.37C-52.592,3646.12 -59.912,3645.91 -61.252,3645.76L-61.96,3645.6L-62.409,3645.37L-62.746,3645.08L-63.189,3644.38L-63.323,3643.62C-63.31,3642.47 -62.366,3641.55 -61.216,3641.56C-61.048,3641.56 -60.885,3641.58 -60.729,3641.62ZM-59.616,3642.34C-59.324,3642.7 -59.151,3643.16 -59.157,3643.67C-59.152,3643.24 -59.257,3642.77 -59.616,3642.34Z" style="fill:rgb(22,22,22);"/>
                </g>
                <g id="lower-yaw" transform="matrix(1.02256,-0.00550694,0.00552069,1.02002,-32.4598,-72.554)">
                    <path d="M86.878,3066.5C-128.694,3002.4 -42.187,2975.54 -43.541,2941.85C-48.84,2809.97 -61.543,2694.41 -57.028,2673.97C-53.303,2657.11 -24.666,2604.13 141.819,2609.01C191.894,2610.47 447.457,2695.09 468.322,2700.93C523.247,2716.31 579.254,2743.55 594.159,2751.17C582.533,2799.15 617.92,2812.1 578.459,2842.31C499.975,2902.4 519.139,2937.33 512.495,3004.13C492.439,3205.78 119.152,3077.21 86.878,3066.5" style="fill:rgb(22,22,22);"/>
                    <path d="M86.253,3068.49C21.303,3049.17 -16.332,3033.19 -37.25,3019.41C-51.726,3009.88 -58.375,3001.25 -60.665,2993.35C-63.571,2983.32 -59.552,2974.26 -54.731,2965.52C-50.371,2957.61 -45.299,2950 -45.623,2941.93C-49.332,2849.62 -56.668,2765.31 -59.188,2716.03C-60.282,2694.62 -60.435,2679.73 -59.062,2673.52C-57.141,2664.82 -48.928,2646.69 -19.598,2631.49C9.02,2616.65 58.103,2604.47 141.88,2606.92C192.03,2608.39 447.988,2693.08 468.884,2698.93C523.977,2714.35 580.157,2741.67 595.108,2749.32C595.966,2749.76 596.411,2750.73 596.184,2751.66C590.468,2775.25 596.374,2790.22 598.794,2803.02C600.1,2809.92 600.428,2816.24 597.867,2822.83C595.352,2829.3 590.005,2836.1 579.725,2843.97C501.98,2903.49 521.15,2938.16 514.568,3004.33C506.429,3086.16 441.143,3114.64 363.408,3118.36C248.22,3123.88 105.79,3074.98 86.253,3068.49ZM87.472,3064.51C87.493,3064.51 87.513,3064.52 87.534,3064.53C106.846,3070.93 248.584,3119.69 363.209,3114.2C438.724,3110.59 502.516,3083.41 510.422,3003.92C517.129,2936.49 497.969,2901.31 577.192,2840.66C586.643,2833.42 591.671,2827.27 593.983,2821.32C596.248,2815.49 595.855,2809.9 594.7,2803.79C592.253,2790.85 586.487,2775.76 591.759,2752.29C574.992,2743.8 520.87,2717.81 467.761,2702.94C446.927,2697.11 191.759,2612.55 141.758,2611.09C59.051,2608.67 10.572,2620.54 -17.681,2635.19C-45.223,2649.47 -53.19,2666.25 -54.994,2674.42C-56.33,2680.47 -56.092,2694.97 -55.027,2715.81C-52.507,2765.11 -45.169,2849.44 -41.459,2941.76C-41.107,2950.54 -46.34,2958.93 -51.082,2967.53C-55.365,2975.3 -59.245,2983.28 -56.663,2992.19C-54.561,2999.44 -48.25,3007.18 -34.958,3015.93C-14.228,3029.59 23.097,3045.36 87.472,3064.51Z" style="fill:rgb(22,22,22);"/>
                </g>
            </g>
        </g>
    </g>
</svg>
