<?xml version="1.0" encoding="UTF-8" standalone="no"?>
<!DOCTYPE svg PUBLIC "-//W3C//DTD SVG 1.1//EN" "http://www.w3.org/Graphics/SVG/1.1/DTD/svg11.dtd">
<svg width="100%" height="100%" viewBox="0 0 1479 1074" version="1.1" xmlns="http://www.w3.org/2000/svg" xmlns:xlink="http://www.w3.org/1999/xlink" xml:space="preserve" xmlns:serif="http://www.serif.com/" style="fill-rule:evenodd;clip-rule:evenodd;stroke-linejoin:round;stroke-miterlimit:2;">
    <g transform="matrix(1,0,0,1,-1866.06,-1045.37)">
        <g id="Artboard3" transform="matrix(0.952721,0,0,0.962352,786.049,150.709)">
            <rect x="1133.61" y="929.664" width="1551.55" height="1115.46" style="fill:none;"/>
            <clipPath id="_clip1">
                <rect x="1133.61" y="929.664" width="1551.55" height="1115.46"/>
            </clipPath>
            <g clip-path="url(#_clip1)">
                <g transform="matrix(1.04963,0,0,1.03912,-82.0925,-79.3173)">
                    <path d="M2286.23,1768.98C2286.07,1781.34 2271.45,1804.92 2283.87,1814.86C2348.79,1866.84 2330.8,2001.5 2289.11,2029.95C2253.4,2054.31 1862.62,2061.47 1755.35,2044.04C1720.68,2038.4 1729.41,1988.34 1727.55,1926.8C1727.3,1918.39 1730.1,1857.86 1718.42,1825.25C1713.2,1810.66 2288.25,1785.99 2286.23,1768.98Z" style="fill:rgb(250,249,246);"/>
                    <path d="M2284.21,1768.47C2284.43,1767.6 2285.19,1766.95 2286.12,1766.9C2287.22,1766.84 2288.17,1767.64 2288.3,1768.73L2288.3,1769.01L2288.31,1769.01C2288.31,1769.12 2288.31,1769.23 2288.3,1769.35C2288.06,1776.84 2282.88,1788.22 2281.35,1798.29C2280.44,1804.24 2280.79,1809.73 2285.17,1813.23C2324.67,1844.86 2334.1,1906.62 2326.03,1957.25C2320.62,1991.2 2307.29,2020.06 2290.28,2031.67C2283.02,2036.62 2261.36,2041.02 2230.42,2044.51C2108.52,2058.27 1840.93,2060.05 1755.01,2046.09C1740.25,2043.69 1732.75,2033.84 1729.1,2018.54C1723.92,1996.9 1726.59,1963.96 1725.47,1926.86C1725.22,1918.5 1728.06,1858.36 1716.46,1825.95L1716.3,1825.15L1716.39,1824.35L1716.68,1823.68L1717.04,1823.16C1717.5,1822.65 1718.38,1822.04 1719.75,1821.51C1726.11,1819.03 1746.27,1816.25 1775.46,1813.35C1891.02,1801.89 2149.44,1787.75 2247.36,1775.59C2264.29,1773.49 2276.36,1771.47 2281.97,1769.51C2282.92,1769.18 2283.85,1768.68 2284.21,1768.47ZM2283.63,1773.33C2277.87,1775.37 2265.4,1777.55 2247.88,1779.73C2149.94,1791.89 1891.46,1806.04 1775.87,1817.5C1750.74,1819.99 1732.41,1822.34 1724.02,1824.53C1722.72,1824.87 1721.49,1825.36 1720.77,1825.66C1732.07,1858.73 1729.38,1918.37 1729.63,1926.74C1730.74,1963.49 1728.02,1996.13 1733.15,2017.57C1736.36,2031.01 1742.71,2039.87 1755.68,2041.98C1830.68,2054.17 2044.45,2054.3 2178.2,2044.95C2218.23,2042.15 2251.08,2038.51 2270.85,2034.07C2278.99,2032.24 2284.85,2030.33 2287.93,2028.23C2304.27,2017.08 2316.72,1989.2 2321.91,1956.59C2329.76,1907.38 2320.97,1847.23 2282.57,1816.48C2277.01,1812.04 2276.08,1805.21 2277.23,1797.66C2278.48,1789.46 2282.25,1780.38 2283.63,1773.33Z" style="fill:rgb(22,22,22);"/>
                </g>
                <g id="face-l" transform="matrix(1.04963,0,0,1.03912,-82.0925,-79.3173)">
                    <path d="M1674.79,969.702C1666.21,1001.63 1610.4,1155.32 1612.78,1272.87C1607.56,1268.98 1528.17,1196.98 1545.29,1304.05C1553.89,1357.83 1549.14,1369.95 1582.45,1465.5C1591.24,1490.72 1612.8,1539.66 1612.07,1544.99C1606.66,1584.34 1642.92,1597.38 1643.84,1606.35C1645,1617.76 1688.05,1740.45 1705.12,1796.02C1733.49,1888.39 1935.59,1986.73 1972.19,1985.3C2106.15,1980.08 2210.99,1859.97 2261.71,1807.7C2277.92,1790.98 2324.64,1690.27 2333.58,1633.51C2337.24,1610.31 2361.46,1590.19 2374.32,1549.73C2412.2,1430.56 2514.36,1370.82 2454.62,1251.74C2443.56,1229.69 2379.06,1267.06 2373.26,1270.37C2373.02,1134.33 2335.93,1003.74 2319.62,969.332C2316.87,963.523 1676.24,970.016 1674.79,969.702Z" style="fill:rgb(250,249,246);"/>
                    <path d="M1675.23,967.666C1676.53,967.949 2195.26,962.673 2301,965.857C2310.58,966.145 2316.83,966.518 2319.09,966.952C2319.78,967.084 2320.25,967.26 2320.5,967.401L2321.06,967.81L2321.51,968.44C2337.72,1002.65 2374.46,1131.65 2375.33,1266.8C2385.01,1261.38 2412.67,1246.54 2432.94,1243.36C2443.93,1241.63 2452.8,1243.48 2456.48,1250.81C2486.73,1311.1 2476.03,1356.37 2452.93,1401.65C2430.17,1446.27 2395.21,1490.89 2376.31,1550.36C2368.53,1574.83 2356.65,1591.93 2347.58,1606.74C2341.74,1616.27 2337.07,1624.8 2335.64,1633.84C2326.64,1690.98 2279.53,1792.32 2263.2,1809.15C2212.26,1861.65 2106.83,1982.14 1972.27,1987.38C1966.63,1987.6 1957.15,1985.57 1945.04,1981.54C1917.41,1972.36 1875.69,1952.87 1834.48,1927.61C1775.37,1891.37 1717.43,1843.19 1703.13,1796.63C1686.03,1740.95 1642.93,1617.99 1641.76,1606.56C1641.69,1605.81 1641.18,1605.07 1640.49,1604.21C1639.06,1602.43 1636.8,1600.46 1634.17,1598.14C1623.17,1588.42 1606.09,1573.21 1610,1544.7C1610.07,1544.21 1609.81,1543.24 1609.42,1541.86C1608.69,1539.23 1607.38,1535.47 1605.7,1530.96C1599.06,1513.15 1586.64,1483.85 1580.48,1466.18C1547.1,1370.42 1551.85,1358.28 1543.23,1304.38C1540.09,1284.74 1540.18,1271 1542.4,1261.71C1543.98,1255.11 1546.65,1250.64 1549.97,1247.78C1557.65,1241.17 1569.18,1243.06 1580.48,1248.35C1592.77,1254.1 1604.79,1263.64 1610.63,1268.43C1609.72,1151.26 1664.29,1000.74 1672.78,969.161C1673.06,968.089 1674.14,967.431 1675.23,967.666ZM2318.14,971.07C2316.29,970.892 2309.53,970.282 2300.87,970.022C2198.75,966.947 1711.85,971.665 1676.38,971.748C1666.59,1006.67 1612.53,1157.25 1614.86,1272.83C1614.88,1273.62 1614.44,1274.36 1613.73,1274.72C1613.03,1275.09 1612.17,1275.01 1611.54,1274.54C1609.37,1272.92 1594.27,1259.4 1578.72,1252.12C1573.72,1249.79 1568.69,1248.1 1564.05,1247.74C1559.76,1247.41 1555.82,1248.24 1552.69,1250.94C1549.9,1253.34 1547.78,1257.14 1546.45,1262.68C1544.32,1271.62 1544.32,1284.83 1547.35,1303.73C1555.92,1357.38 1551.18,1369.47 1584.42,1464.81C1591.45,1485 1606.66,1520.36 1612.09,1536.43C1613.6,1540.91 1614.3,1544.08 1614.13,1545.27C1610.48,1571.87 1626.66,1585.95 1636.93,1595.01C1639.77,1597.52 1642.18,1599.68 1643.73,1601.59C1645.04,1603.2 1645.77,1604.73 1645.91,1606.13C1647.07,1617.52 1690.08,1739.95 1707.11,1795.41C1721.19,1841.23 1778.48,1888.39 1836.66,1924.06C1877.55,1949.13 1918.94,1968.48 1946.35,1977.59C1957.82,1981.4 1966.77,1983.43 1972.11,1983.22C2105.46,1978.02 2209.72,1858.28 2260.21,1806.25C2276.32,1789.64 2322.64,1689.57 2331.53,1633.19C2333.03,1623.66 2337.86,1614.62 2344.02,1604.56C2352.95,1589.99 2364.68,1573.18 2372.34,1549.1C2391.31,1489.39 2426.37,1444.56 2449.22,1399.75C2471.74,1355.6 2482.25,1311.46 2452.76,1252.68C2451.38,1249.92 2448.96,1248.32 2445.89,1247.53C2442.45,1246.64 2438.22,1246.75 2433.59,1247.47C2410.73,1251.06 2378.3,1269.88 2374.29,1272.17C2373.64,1272.54 2372.85,1272.54 2372.21,1272.17C2371.57,1271.8 2371.18,1271.11 2371.17,1270.37C2370.94,1135.83 2334.59,1006.62 2318.14,971.07Z" style="fill:rgb(22,22,22);"/>
                </g>
                <g transform="matrix(1.04963,0,0,1.03912,-82.0925,-79.3173)">
                    <path d="M1882.14,1846.55C1881.06,1846.94 1879.87,1846.37 1879.48,1845.29C1879.09,1844.21 1879.66,1843.01 1880.74,1842.63C1915.12,1830.34 1915.78,1834.06 1950.9,1824.9C1981.67,1816.88 2041.27,1827.4 2068.79,1849.84C2069.68,1850.57 2069.82,1851.88 2069.09,1852.77C2068.36,1853.66 2067.05,1853.8 2066.16,1853.07C2039.5,1831.33 1981.76,1821.16 1951.95,1828.93C1917.01,1838.04 1916.34,1834.33 1882.14,1846.55Z" style="fill:rgb(22,22,22);"/>
                </g>
                <g transform="matrix(1.04963,0,0,1.03912,-82.0925,-79.3173)">
                    <path d="M2093.01,1724.87C2085.72,1730.38 2074.19,1736.05 2064.04,1746.86C2035.92,1776.81 1987.98,1779.39 1954,1776.46C1933.75,1774.72 1918.51,1771.06 1915.55,1770.28C1915.13,1770.16 1914.88,1770.08 1914.82,1770.06L1914.4,1769.84C1884.72,1749.72 1863.79,1729.63 1855,1720.68C1854.41,1720.08 1854.24,1719.19 1854.56,1718.42C1854.88,1717.64 1855.64,1717.14 1856.48,1717.14C1893.01,1717.15 1913.8,1725.39 1934.84,1732.45C1955.47,1739.37 1976.36,1745.11 2013.19,1740.38C2033.42,1737.79 2046.26,1733.55 2057.32,1729.7C2068.66,1725.76 2078.17,1722.22 2091.59,1721.13C2092.51,1721.06 2093.38,1721.6 2093.71,1722.47C2094.04,1723.33 2093.76,1724.31 2093.01,1724.87ZM1916.47,1766.21C1916.52,1766.22 1916.57,1766.24 1916.62,1766.25C1919.52,1767.02 1934.48,1770.6 1954.36,1772.31C1987.26,1775.14 2033.77,1773 2061,1744.01C2068.48,1736.05 2076.67,1730.8 2083.44,1726.38C2074.55,1727.96 2067.15,1730.69 2058.69,1733.64C2047.42,1737.56 2034.34,1741.87 2013.72,1744.52C1976.01,1749.35 1954.63,1743.49 1933.52,1736.4C1913.82,1729.8 1894.37,1722.1 1861.57,1721.36C1871.67,1731.3 1890.73,1748.73 1916.47,1766.21Z" style="fill:rgb(22,22,22);"/>
                </g>
                <g transform="matrix(1.04963,0,0,1.03912,-82.0925,-79.3173)">
                    <path d="M2092.13,1726.1C2071.15,1728.52 2055.38,1735.8 2041.77,1739.88C2016.3,1747.51 1977.47,1747.72 1968.81,1746.3C1918.79,1738.09 1897.86,1724.34 1852.26,1720.1C1851.22,1720 1850.42,1719.15 1850.37,1718.12C1850.32,1717.08 1851.05,1716.16 1852.07,1715.97C1908.66,1705.42 1918.39,1717.11 1945.79,1720.86C1982.88,1725.93 1998.06,1721.94 2091.89,1721.94C2093,1721.94 2093.91,1722.81 2093.97,1723.91C2094.03,1725.01 2093.23,1725.97 2092.13,1726.1ZM2070.38,1726.18C1995.06,1726.7 1979.42,1729.66 1945.23,1724.98C1920.71,1721.63 1910.55,1711.75 1867.2,1717.72C1903.45,1723.22 1924.98,1734.88 1969.48,1742.19C1977.92,1743.58 2015.75,1743.32 2040.58,1735.88C2049.35,1733.25 2059.03,1729.33 2070.38,1726.18Z" style="fill:rgb(22,22,22);"/>
                </g>
                <g transform="matrix(1.04963,0,0,1.03912,-82.0925,-79.3173)">
                    <path d="M2387.48,1317.89C2386.98,1318.93 2385.74,1319.37 2384.7,1318.87C2383.66,1318.38 2383.23,1317.13 2383.72,1316.09C2384.78,1313.9 2385.07,1313.22 2401.48,1291.42C2413.25,1275.79 2422.68,1269.69 2430.16,1269.15C2437.53,1268.61 2443.41,1273.21 2448.18,1280.32C2454.7,1290.03 2459.24,1304.47 2463.74,1314.4C2465.71,1318.75 2466.69,1327.82 2465.99,1338.45C2464.95,1354.14 2460.33,1373.24 2450.54,1385.23C2448.98,1387.14 2447.76,1391.32 2446.12,1396.93C2441.97,1411.06 2435.82,1433.74 2419.73,1454.27C2419.02,1455.18 2417.71,1455.33 2416.81,1454.62C2415.9,1453.92 2415.74,1452.61 2416.45,1451.7C2432.14,1431.68 2438.08,1409.54 2442.12,1395.76C2443.98,1389.41 2445.55,1384.76 2447.31,1382.6C2456.6,1371.22 2460.85,1353.06 2461.83,1338.18C2462.48,1328.43 2461.75,1320.1 2459.95,1316.12C2455.53,1306.37 2451.12,1292.17 2444.72,1282.64C2440.89,1276.92 2436.39,1272.87 2430.46,1273.3C2423.68,1273.8 2415.48,1279.76 2404.81,1293.93C2388.84,1315.14 2388.5,1315.76 2387.48,1317.89Z" style="fill:rgb(22,22,22);"/>
                </g>
                <g transform="matrix(1.04963,0,0,1.03912,-82.0925,-79.3173)">
                    <path d="M2362.05,1364.79C2362.05,1363.64 2362.98,1362.71 2364.13,1362.71C2365.28,1362.71 2366.21,1363.64 2366.21,1364.79C2366.21,1407.02 2367.43,1408.49 2372.89,1446.93C2381.12,1435.59 2387.04,1430.09 2390.62,1425.98C2392.89,1423.39 2394.15,1421.49 2394.21,1418.63C2394.61,1400.47 2394.17,1400.42 2381.33,1377.95C2380.76,1376.95 2381.11,1375.68 2382.11,1375.11C2383.11,1374.54 2384.38,1374.89 2384.95,1375.88C2398.46,1399.53 2398.8,1399.62 2398.38,1418.72C2398.29,1422.57 2396.81,1425.23 2393.76,1428.72C2389.81,1433.26 2382.97,1439.49 2373.27,1453.6C2372.78,1454.31 2371.91,1454.65 2371.08,1454.45C2370.24,1454.26 2369.61,1453.56 2369.49,1452.71C2363.38,1408.83 2362.05,1409.13 2362.05,1364.79Z" style="fill:rgb(22,22,22);"/>
                </g>
                <g transform="matrix(1.04963,0,0,1.03912,-82.0925,-79.3173)">
                    <path d="M1609.13,1352.9C1609.34,1354.03 1608.6,1355.12 1607.47,1355.33C1606.34,1355.54 1605.25,1354.79 1605.04,1353.66C1602.82,1341.74 1594.97,1330.39 1586.78,1320.45C1578.3,1310.14 1569.44,1301.31 1565.53,1294.92C1563.36,1291.36 1561.28,1288.81 1559.27,1287.27C1557.68,1286.05 1556.19,1285.5 1554.74,1285.8C1553.19,1286.12 1551.79,1287.32 1550.41,1289.18C1548.75,1291.42 1547.23,1294.57 1545.8,1298.57C1545.41,1299.65 1544.22,1300.21 1543.14,1299.83C1542.06,1299.44 1541.49,1298.25 1541.88,1297.17C1543.8,1291.77 1545.96,1287.78 1548.25,1285.24C1550.04,1283.27 1551.94,1282.12 1553.9,1281.72C1555.94,1281.3 1558.08,1281.66 1560.29,1282.94C1563.06,1284.56 1566.04,1287.76 1569.09,1292.75C1572.93,1299.03 1581.67,1307.67 1590,1317.8C1598.63,1328.29 1606.79,1340.33 1609.13,1352.9Z" style="fill:rgb(22,22,22);"/>
                </g>
                <g transform="matrix(1.04963,0,0,1.03912,-82.0925,-79.3173)">
                    <path d="M1609.35,1402.03C1609.37,1400.88 1610.32,1399.96 1611.47,1399.98C1612.62,1400 1613.54,1400.94 1613.52,1402.09C1613.29,1418.18 1616.71,1419.39 1604.95,1436.65C1602.82,1439.78 1602.37,1444.77 1602.65,1450.29C1603.34,1464.18 1609.02,1481.28 1609.88,1483.86C1610.24,1484.95 1609.65,1486.13 1608.56,1486.49C1607.46,1486.85 1606.28,1486.26 1605.92,1485.17C1605.04,1482.51 1599.2,1464.84 1598.49,1450.5C1598.16,1443.92 1598.97,1438.03 1601.51,1434.3C1612.48,1418.2 1609.14,1417.04 1609.35,1402.03Z" style="fill:rgb(22,22,22);"/>
                </g>
                <g transform="matrix(1.04963,0,0,1.03912,-82.0925,-79.3173)">
                    <path d="M2074.5,1514.24C2073.53,1513.68 2073.18,1512.44 2073.72,1511.45C2074.27,1510.44 2075.53,1510.07 2076.54,1510.62C2077.07,1510.9 2078.47,1512.17 2080.34,1514.34C2084.17,1518.75 2090.52,1527.13 2096.21,1537.08C2104.49,1551.57 2111.2,1569.37 2107.18,1583.26C2104.74,1591.66 2097.17,1601.33 2086.88,1607.68C2076.57,1614.04 2063.58,1617.07 2050.48,1612.37C2037.6,1607.75 2024.78,1614.89 2013.65,1623.02C2006.62,1628.16 2000.27,1633.76 1994.99,1637.49C1991.07,1640.26 1987.62,1642 1984.9,1642.15C1959.38,1643.6 1948.9,1633.6 1937.52,1623.01C1926.79,1613.02 1915.19,1602.51 1887.62,1601.85C1875.37,1601.55 1867.14,1598.36 1862.28,1592.65C1857.4,1586.92 1855.79,1578.53 1857.22,1567.44C1859.03,1553.49 1865.63,1535.06 1875.87,1512.26C1876.34,1511.21 1877.57,1510.75 1878.62,1511.22C1879.67,1511.69 1880.14,1512.92 1879.67,1513.97C1869.64,1536.29 1863.12,1554.31 1861.36,1567.98C1860.11,1577.61 1861.21,1584.97 1865.45,1589.95C1869.7,1594.94 1877.01,1597.42 1887.72,1597.68C1916.79,1598.38 1929.04,1609.43 1940.35,1619.96C1951.01,1629.87 1960.77,1639.35 1984.67,1637.99C1986.83,1637.87 1989.47,1636.29 1992.58,1634.09C1997.85,1630.36 2004.19,1624.78 2011.19,1619.66C2023.44,1610.7 2037.71,1603.36 2051.88,1608.44C2063.7,1612.68 2075.39,1609.86 2084.69,1604.13C2094.01,1598.38 2100.97,1589.71 2103.18,1582.1C2106.93,1569.16 2100.31,1552.65 2092.59,1539.14C2087.07,1529.49 2080.9,1521.35 2077.19,1517.07C2075.95,1515.62 2074.59,1514.33 2074.5,1514.24Z" style="fill:rgb(22,22,22);"/>
                </g>
                <g transform="matrix(1.04963,0,0,1.03912,-82.0925,-79.3173)">
                    <path d="M2117.29,1571.85C2117.16,1570.7 2117.99,1569.67 2119.13,1569.55C2120.28,1569.42 2121.31,1570.25 2121.43,1571.39C2122.04,1576.93 2126.34,1583.15 2131.8,1589.62C2140.5,1599.94 2152.23,1610.73 2158.76,1620.07C2164.65,1628.49 2176.28,1636.85 2185.8,1646.57C2195.89,1656.87 2203.6,1668.66 2200.99,1683.26C2200.79,1684.4 2199.71,1685.15 2198.58,1684.95C2197.44,1684.75 2196.69,1683.66 2196.89,1682.53C2199.25,1669.33 2191.95,1658.8 2182.83,1649.48C2173.13,1639.59 2161.34,1631.03 2155.34,1622.46C2148.88,1613.21 2137.23,1602.53 2128.62,1592.31C2122.53,1585.09 2117.97,1578.03 2117.29,1571.85Z" style="fill:rgb(22,22,22);"/>
                </g>
                <g transform="matrix(1.04963,0,0,1.03912,-82.0925,-79.3173)">
                    <path d="M1849.67,1573.36C1850.27,1572.38 1851.56,1572.08 1852.54,1572.68C1853.52,1573.29 1853.82,1574.57 1853.22,1575.55C1836.27,1603.03 1840.1,1608.49 1793.55,1662.31C1792.42,1663.61 1790.98,1664.73 1789.41,1665.9C1786.76,1667.87 1783.67,1670 1781.64,1674.01C1779.57,1678.1 1778.65,1684.08 1780.13,1693.62C1780.63,1696.85 1781.34,1701.29 1791.24,1732.94C1791.58,1734.04 1790.97,1735.21 1789.87,1735.55C1788.78,1735.9 1787.61,1735.28 1787.26,1734.19C1777.21,1702.05 1776.52,1697.54 1776.01,1694.26C1773.06,1675.2 1779.04,1668.68 1784.67,1664.26C1786.8,1662.58 1788.93,1661.28 1790.4,1659.59C1836.66,1606.11 1832.83,1600.66 1849.67,1573.36Z" style="fill:rgb(22,22,22);"/>
                </g>
                <g transform="matrix(1.04963,0,0,1.03912,-82.0925,-79.3173)">
                    <path d="M1748.99,1372.84C1753.43,1379.37 1776.83,1390.59 1782.44,1394.53C1795.88,1403.96 1844.47,1393.86 1846.42,1391.94C1848.31,1390.09 1890.02,1391.34 1891.45,1389.63C1893.87,1386.73 1899.86,1382.91 1891.8,1379.14C1883.95,1375.47 1882.5,1380.01 1873.72,1374.28C1861.05,1366 1858.97,1365.08 1857.28,1363.94C1853.78,1361.58 1827.89,1335.2 1771.8,1361.65C1766.86,1363.98 1765.39,1366.76 1748.99,1372.84Z" style="fill:rgb(250,249,246);"/>
                    <clipPath id="_clip2">
                        <path d="M1748.99,1372.84C1753.43,1379.37 1776.83,1390.59 1782.44,1394.53C1795.88,1403.96 1844.47,1393.86 1846.42,1391.94C1848.31,1390.09 1890.02,1391.34 1891.45,1389.63C1893.87,1386.73 1899.86,1382.91 1891.8,1379.14C1883.95,1375.47 1882.5,1380.01 1873.72,1374.28C1861.05,1366 1858.97,1365.08 1857.28,1363.94C1853.78,1361.58 1827.89,1335.2 1771.8,1361.65C1766.86,1363.98 1765.39,1366.76 1748.99,1372.84Z"/>
                    </clipPath>
                    <g clip-path="url(#_clip2)">
                        <g transform="matrix(1,0,0,1,-727.418,-74.3775)">
                            <path d="M2476.41,1447.22C2492.81,1441.14 2494.28,1438.35 2499.22,1436.03C2555.31,1409.57 2581.19,1435.96 2584.7,1438.32C2586.39,1439.46 2588.47,1440.38 2601.14,1448.65C2609.92,1454.39 2611.37,1449.85 2619.22,1453.52C2627.28,1457.29 2621.28,1461.11 2618.87,1464C2617.44,1465.71 2575.73,1464.47 2573.84,1466.32C2571.89,1468.24 2523.3,1478.34 2509.86,1468.9C2504.25,1464.97 2480.85,1453.75 2476.41,1447.22Z" style="fill:rgb(250,249,246);"/>
                        </g>
                        <g id="l-left" transform="matrix(1.17285,0,0,1.06921,-307.15,-106.481)">
                            <ellipse cx="1806.16" cy="1380.27" rx="26.741" ry="22.07" style="fill:rgb(22,22,22);stroke:rgb(22,22,22);stroke-width:1.86px;stroke-linecap:round;stroke-miterlimit:1.5;"/>
                        </g>
                    </g>
                    <path d="M1847.52,1393.71C1847.15,1393.95 1846.58,1394.24 1845.77,1394.52C1842.87,1395.51 1835.79,1397.14 1827.24,1398.46C1817.68,1399.93 1806.28,1401.01 1796.92,1400.4C1790.33,1399.98 1784.71,1398.66 1781.24,1396.23C1777.32,1393.48 1764.7,1387.17 1755.97,1381.4C1751.93,1378.73 1748.7,1376.12 1747.27,1374.02C1746.91,1373.49 1746.81,1372.82 1747.01,1372.21C1747.2,1371.6 1747.67,1371.11 1748.27,1370.89C1764.55,1364.85 1766.01,1362.08 1770.91,1359.77C1799.58,1346.24 1820.55,1346.31 1834.78,1349.97C1849.08,1353.65 1856.64,1361 1858.44,1362.22C1860.13,1363.35 1862.21,1364.27 1874.86,1372.53C1879.59,1375.62 1881.95,1375.38 1884.6,1375.41C1886.8,1375.44 1889.17,1375.61 1892.68,1377.26C1895.87,1378.75 1897.23,1380.41 1897.71,1381.88C1898.25,1383.52 1897.84,1385.16 1896.82,1386.71C1895.81,1388.24 1894.11,1389.69 1893.05,1390.96L1892.35,1391.53L1891.24,1391.93C1889.74,1392.28 1886.11,1392.49 1881.5,1392.62C1872.51,1392.85 1859.62,1392.81 1852.25,1393.21C1850.11,1393.33 1847.81,1393.67 1847.52,1393.71ZM1890.23,1387.86C1891.05,1386.96 1892.1,1386 1892.92,1384.98C1893.2,1384.63 1893.45,1384.29 1893.62,1383.93C1893.74,1383.68 1893.84,1383.43 1893.75,1383.17C1893.5,1382.41 1892.57,1381.81 1890.92,1381.03C1887.38,1379.37 1885.27,1379.6 1883.07,1379.57C1880.35,1379.52 1877.48,1379.22 1872.58,1376.02C1859.89,1367.73 1857.81,1366.81 1856.12,1365.67C1854.41,1364.52 1847.28,1357.5 1833.74,1354.01C1820.13,1350.5 1800.11,1350.6 1772.68,1363.53C1768.02,1365.73 1766.43,1368.34 1752.57,1373.71C1754.82,1375.75 1758.33,1378.05 1762.15,1380.38C1770.43,1385.43 1780.25,1390.45 1783.63,1392.82C1786.62,1394.91 1791.51,1395.88 1797.19,1396.25C1806.27,1396.83 1817.33,1395.77 1826.61,1394.34C1835.76,1392.93 1843.16,1391.2 1845.1,1390.32L1845.19,1390.27C1845.19,1390.27 1845.01,1390.41 1844.96,1390.46L1845.48,1390.07L1846.08,1389.79C1846.57,1389.62 1847.37,1389.46 1848.44,1389.33C1853.42,1388.75 1865.41,1388.72 1875.49,1388.57C1882,1388.47 1888.96,1387.95 1890.23,1387.86Z" style="fill:rgb(22,22,22);"/>
                </g>
                <g transform="matrix(1.04963,0,0,1.03912,-82.0925,-79.3173)">
                    <path d="M1900.85,1366.84C1901.97,1367.07 1902.7,1368.17 1902.47,1369.3C1902.24,1370.43 1901.13,1371.15 1900.01,1370.92C1893.77,1369.64 1884.32,1363.67 1872.16,1357.24C1854.57,1347.94 1831.06,1337.73 1803.05,1340.89C1798.93,1341.35 1793.52,1342.02 1754.68,1359.44C1749.99,1361.54 1741.8,1368.07 1733.54,1374.54C1724.94,1381.27 1716.26,1387.92 1711.19,1389.96C1710.12,1390.39 1708.91,1389.87 1708.48,1388.81C1708.05,1387.74 1708.57,1386.52 1709.64,1386.1C1714.49,1384.14 1722.74,1377.7 1730.97,1371.25C1739.55,1364.54 1748.11,1357.82 1752.98,1355.64C1792.77,1337.79 1798.37,1337.22 1802.59,1336.75C1831.56,1333.48 1855.91,1343.94 1874.11,1353.56C1885.81,1359.74 1894.85,1365.61 1900.85,1366.84Z" style="fill:rgb(22,22,22);"/>
                </g>
                <g transform="matrix(1.04963,0,0,1.03912,-82.0925,-79.3173)">
                    <path d="M1877.12,1305.98C1878.26,1306.08 1879.11,1307.1 1879,1308.24C1878.9,1309.39 1877.88,1310.23 1876.74,1310.13C1860.36,1308.62 1860.08,1310.52 1844.47,1304.86C1829.75,1299.52 1830.36,1298.17 1815.9,1295.32C1814.78,1295.1 1814.04,1294 1814.26,1292.88C1814.48,1291.75 1815.58,1291.01 1816.71,1291.24C1831.47,1294.14 1830.86,1295.49 1845.89,1300.94C1860.99,1306.42 1861.27,1304.52 1877.12,1305.98Z" style="fill:rgb(22,22,22);"/>
                </g>
                <g transform="matrix(1.04963,0,0,1.03912,-82.0925,-79.3173)">
                    <path d="M1833.28,1303.08C1834.43,1303.13 1835.32,1304.1 1835.27,1305.25C1835.21,1306.4 1834.24,1307.29 1833.09,1307.24C1826.7,1306.95 1820.74,1304.64 1782.38,1297.21C1781.25,1296.99 1780.52,1295.9 1780.73,1294.77C1780.95,1293.64 1782.05,1292.9 1783.17,1293.12C1821.08,1300.46 1826.96,1302.79 1833.28,1303.08Z" style="fill:rgb(22,22,22);"/>
                </g>
                <g transform="matrix(1.04963,0,0,1.03912,-82.0925,-79.3173)">
                    <path d="M1809.97,1286.72C1811.12,1286.79 1812,1287.78 1811.93,1288.92C1811.86,1290.07 1810.87,1290.95 1809.72,1290.88C1793.37,1289.88 1784.43,1286.2 1774.13,1282.43C1764.13,1278.78 1752.8,1275.07 1731.61,1273.88C1730.46,1273.81 1729.58,1272.83 1729.65,1271.68C1729.71,1270.53 1730.7,1269.65 1731.85,1269.71C1753.63,1270.95 1765.28,1274.76 1775.56,1278.52C1785.53,1282.16 1794.16,1285.76 1809.97,1286.72Z" style="fill:rgb(22,22,22);"/>
                </g>
                <g transform="matrix(1.04963,0,0,1.03912,-82.0925,-79.3173)">
                    <path d="M1771.49,1286.24C1772.64,1286.24 1773.57,1287.17 1773.57,1288.32C1773.57,1289.47 1772.64,1290.4 1771.49,1290.4C1737.43,1290.4 1737.12,1293.68 1704.14,1285.03C1703.03,1284.73 1702.36,1283.59 1702.65,1282.48C1702.94,1281.37 1704.08,1280.7 1705.19,1280.99C1737.65,1289.51 1737.97,1286.24 1771.49,1286.24Z" style="fill:rgb(22,22,22);"/>
                </g>
                <g transform="matrix(1.04963,0,0,1.03912,-82.0925,-79.3173)">
                    <path d="M1767.18,1297.5C1768.33,1297.5 1769.26,1298.44 1769.26,1299.59C1769.26,1300.74 1768.33,1301.67 1767.18,1301.67C1730.05,1301.67 1729.97,1302.35 1718.05,1299.08C1716.94,1298.77 1716.28,1297.62 1716.59,1296.52C1716.89,1295.41 1718.04,1294.76 1719.15,1295.06C1730.8,1298.26 1730.88,1297.5 1767.18,1297.5Z" style="fill:rgb(22,22,22);"/>
                </g>
                <g transform="matrix(1.04963,0,0,1.03912,-82.0925,-79.3173)">
                    <path d="M1704.98,1293.56C1706.13,1293.56 1707.07,1294.5 1707.07,1295.65C1707.07,1296.8 1706.13,1297.73 1704.98,1297.73L1672.92,1297.73C1671.77,1297.73 1670.83,1296.8 1670.83,1295.65C1670.83,1294.5 1671.77,1293.56 1672.92,1293.56L1704.98,1293.56Z" style="fill:rgb(22,22,22);"/>
                </g>
                <g transform="matrix(1.04963,0,0,1.03912,-82.0925,-79.3173)">
                    <path d="M1723.58,1309.39C1724.73,1309.39 1725.67,1310.32 1725.67,1311.47C1725.67,1312.62 1724.73,1313.56 1723.58,1313.56L1683.24,1313.56C1682.09,1313.56 1681.16,1312.62 1681.16,1311.47C1681.16,1310.32 1682.09,1309.39 1683.24,1309.39L1723.58,1309.39Z" style="fill:rgb(22,22,22);"/>
                </g>
                <g transform="matrix(1.04963,0,0,1.03912,-82.0925,-79.3173)">
                    <path d="M1750.61,1309.75C1751.73,1310.03 1752.4,1311.17 1752.12,1312.28C1751.83,1313.4 1750.69,1314.07 1749.58,1313.79C1747.96,1313.37 1747.94,1313.59 1729.23,1308.85C1720.36,1306.61 1720.59,1306.71 1711.86,1304.56C1710.75,1304.28 1710.07,1303.15 1710.34,1302.03C1710.62,1300.92 1711.75,1300.24 1712.87,1300.51C1721.6,1302.67 1721.38,1302.57 1730.25,1304.81C1748.97,1309.55 1748.99,1309.34 1750.61,1309.75Z" style="fill:rgb(22,22,22);"/>
                </g>
                <g transform="matrix(1.04963,0,0,1.03912,-82.0925,-79.3173)">
                    <path d="M1788.28,1306.71C1789.43,1306.71 1790.36,1307.64 1790.36,1308.79C1790.36,1309.94 1789.43,1310.88 1788.28,1310.88C1768.58,1310.88 1768.67,1312.19 1749.15,1309.24C1748.01,1309.07 1747.23,1308.01 1747.4,1306.87C1747.57,1305.74 1748.63,1304.95 1749.77,1305.12C1768.99,1308.03 1768.89,1306.71 1788.28,1306.71Z" style="fill:rgb(22,22,22);"/>
                </g>
                <g transform="matrix(1.04963,0,0,1.03912,-82.0925,-79.3173)">
                    <path d="M1800.21,1305.6C1801.36,1305.63 1802.27,1306.58 1802.24,1307.73C1802.22,1308.88 1801.26,1309.79 1800.11,1309.77C1780.09,1309.32 1778.89,1310.52 1750.01,1299.39C1748.94,1298.98 1748.4,1297.77 1748.82,1296.7C1749.23,1295.62 1750.44,1295.09 1751.51,1295.5C1779.58,1306.32 1780.74,1305.16 1800.21,1305.6Z" style="fill:rgb(22,22,22);"/>
                </g>
                <g transform="matrix(1.04963,0,0,1.03912,-82.0925,-79.3173)">
                    <path d="M2075.86,1385.56C2087.92,1381.34 2090.01,1382.05 2105.38,1372.39C2107.53,1371.04 2109.53,1369.79 2111.42,1368.63C2135.95,1353.56 2139.89,1354.4 2179.49,1354.39C2189.39,1354.39 2196.17,1354.84 2216.67,1368.34C2220.47,1370.84 2229.95,1390.77 2153.34,1390.97C2136.23,1391.02 2121.94,1387.73 2104.87,1387.72C2089.76,1387.72 2079.34,1386.41 2075.86,1385.56Z" style="fill:rgb(250,249,246);"/>
                    <clipPath id="_clip3">
                        <path d="M2075.86,1385.56C2087.92,1381.34 2090.01,1382.05 2105.38,1372.39C2107.53,1371.04 2109.53,1369.79 2111.42,1368.63C2135.95,1353.56 2139.89,1354.4 2179.49,1354.39C2189.39,1354.39 2196.17,1354.84 2216.67,1368.34C2220.47,1370.84 2229.95,1390.77 2153.34,1390.97C2136.23,1391.02 2121.94,1387.73 2104.87,1387.72C2089.76,1387.72 2079.34,1386.41 2075.86,1385.56Z"/>
                    </clipPath>
                    <g clip-path="url(#_clip3)">
                        <g transform="matrix(1,0,0,1,-727.418,-74.3775)">
                            <path d="M2803.28,1459.93C2815.34,1455.72 2817.43,1456.42 2832.8,1446.77C2834.95,1445.41 2836.95,1444.16 2838.84,1443.01C2863.37,1427.93 2867.31,1428.77 2906.91,1428.77C2916.81,1428.77 2923.59,1429.21 2944.09,1442.71C2947.89,1445.21 2957.37,1465.14 2880.76,1465.35C2863.65,1465.4 2849.36,1462.11 2832.28,1462.1C2817.18,1462.09 2806.76,1460.79 2803.28,1459.93Z" style="fill:rgb(250,249,246);"/>
                        </g>
                        <g id="l-right" transform="matrix(1.18894,0,0,1.17655,-405.398,-249.773)">
                            <ellipse cx="2160.41" cy="1376.09" rx="25.979" ry="20.135" style="fill:rgb(22,22,22);stroke:rgb(22,22,22);stroke-width:1.76px;stroke-linecap:round;stroke-miterlimit:1.5;"/>
                        </g>
                    </g>
                    <path d="M2075.17,1383.59C2087.06,1379.44 2089.12,1380.14 2104.27,1370.62C2106.43,1369.27 2108.44,1368.01 2110.33,1366.85C2135.26,1351.54 2139.24,1352.31 2179.49,1352.31C2189.69,1352.31 2196.7,1352.69 2217.82,1366.6C2219.82,1367.91 2223.2,1372.87 2219.87,1378.4C2218.19,1381.18 2214.62,1384.23 2207.6,1386.77C2197.93,1390.27 2181.29,1392.98 2153.35,1393.06C2136.24,1393.1 2121.94,1389.81 2104.86,1389.81C2089.5,1389.8 2078.9,1388.45 2075.36,1387.58C2074.47,1387.36 2073.82,1386.58 2073.78,1385.66C2073.74,1384.74 2074.3,1383.89 2075.17,1383.59ZM2084.93,1384.77C2089.94,1385.26 2096.71,1385.63 2104.87,1385.64C2121.94,1385.65 2136.23,1388.94 2153.33,1388.89C2190.82,1388.79 2207.28,1384.09 2213.87,1378.88C2215.49,1377.6 2216.42,1376.32 2216.84,1375.1C2217.65,1372.72 2216.42,1370.66 2215.52,1370.08C2195.64,1356.98 2189.1,1356.48 2179.49,1356.48C2140.53,1356.48 2136.64,1355.58 2112.51,1370.4C2110.63,1371.56 2108.63,1372.8 2106.49,1374.15C2095.25,1381.22 2091.01,1382.82 2084.93,1384.77Z" style="fill:rgb(22,22,22);"/>
                </g>
                <g transform="matrix(1.04963,0,0,1.03912,-82.0925,-79.3173)">
                    <path d="M2093.05,1360.37C2092.3,1361.01 2091.18,1361.03 2090.39,1360.39C2089.51,1359.66 2089.38,1358.35 2090.11,1357.46L2090.61,1357C2091.23,1356.55 2094.34,1354.46 2099.18,1351.78C2111.66,1344.86 2135.78,1333.95 2158.63,1336.52C2219.07,1343.31 2221.87,1353.72 2242.45,1371.32C2243.33,1372.06 2243.43,1373.38 2242.68,1374.25C2241.94,1375.13 2240.62,1375.23 2239.75,1374.48C2219.72,1357.36 2216.98,1347.27 2158.16,1340.66C2136.25,1338.2 2113.17,1348.79 2101.2,1355.43C2096.6,1357.97 2093.05,1360.37 2093.05,1360.37Z" style="fill:rgb(22,22,22);"/>
                </g>
                <g transform="matrix(1.04963,0,0,1.03912,-82.0925,-79.3173)">
                    <path d="M2121.17,1293.48C2120.1,1293.91 2118.89,1293.39 2118.46,1292.32C2118.03,1291.26 2118.55,1290.04 2119.62,1289.62C2139.06,1281.85 2153.45,1276.52 2156.4,1275.42C2157.48,1275.02 2158.68,1275.57 2159.08,1276.65C2159.48,1277.73 2158.93,1278.92 2157.85,1279.33C2154.9,1280.42 2140.55,1285.74 2121.17,1293.48Z" style="fill:rgb(22,22,22);"/>
                </g>
                <g transform="matrix(1.04963,0,0,1.03912,-82.0925,-79.3173)">
                    <path d="M2124.21,1299.84C2123.07,1300.01 2122.01,1299.22 2121.84,1298.09C2121.67,1296.95 2122.45,1295.89 2123.59,1295.72C2126.78,1295.24 2128.57,1294.94 2161.64,1282.4C2162.71,1281.99 2163.91,1282.53 2164.32,1283.61C2164.73,1284.68 2164.19,1285.88 2163.11,1286.29C2129.32,1299.11 2127.47,1299.35 2124.21,1299.84Z" style="fill:rgb(22,22,22);"/>
                </g>
                <g transform="matrix(1.04963,0,0,1.03912,-82.0925,-79.3173)">
                    <path d="M2101.02,1314.6C2099.9,1314.86 2098.78,1314.17 2098.51,1313.05C2098.25,1311.93 2098.94,1310.81 2100.06,1310.54C2100.95,1310.33 2101.44,1309.94 2102.6,1309.19C2106,1307 2113.81,1302.06 2142.24,1290.28C2143.3,1289.84 2144.52,1290.34 2144.96,1291.4C2145.4,1292.46 2144.9,1293.68 2143.84,1294.12C2115.89,1305.71 2108.2,1310.54 2104.86,1312.69C2103.13,1313.81 2102.34,1314.29 2101.02,1314.6Z" style="fill:rgb(22,22,22);"/>
                </g>
                <g transform="matrix(1.04963,0,0,1.03912,-82.0925,-79.3173)">
                    <path d="M2115.83,1316.87C2114.7,1317.1 2113.6,1316.37 2113.37,1315.25C2113.13,1314.12 2113.86,1313.02 2114.99,1312.79C2116.65,1312.44 2117.56,1312.03 2120.86,1310.28C2126.27,1307.4 2137.53,1301.15 2166.11,1286.59C2167.13,1286.07 2168.39,1286.47 2168.91,1287.5C2169.43,1288.52 2169.02,1289.78 2168,1290.3C2119.94,1314.78 2120.41,1315.92 2115.83,1316.87Z" style="fill:rgb(22,22,22);"/>
                </g>
                <g transform="matrix(1.04963,0,0,1.03912,-82.0925,-79.3173)">
                    <path d="M2136.45,1316.74C2135.32,1316.94 2134.24,1316.19 2134.03,1315.06C2133.82,1313.93 2134.57,1312.84 2135.7,1312.64C2136.78,1312.44 2137.41,1312.02 2138.88,1311.22C2142.96,1308.98 2152.36,1303.97 2186.05,1292.56C2187.14,1292.19 2188.32,1292.77 2188.69,1293.86C2189.06,1294.95 2188.47,1296.13 2187.39,1296.5C2154.18,1307.75 2144.91,1312.66 2140.88,1314.87C2138.86,1315.98 2137.95,1316.46 2136.45,1316.74Z" style="fill:rgb(22,22,22);"/>
                </g>
                <g transform="matrix(1.04963,0,0,1.03912,-82.0925,-79.3173)">
                    <path d="M2166.3,1316.14C2165.26,1316.64 2164.01,1316.21 2163.51,1315.17C2163.01,1314.14 2163.45,1312.89 2164.48,1312.39C2193.02,1298.58 2193.43,1299.96 2222.67,1287.29C2223.73,1286.84 2224.96,1287.32 2225.41,1288.38C2225.87,1289.43 2225.39,1290.66 2224.33,1291.12C2195.16,1303.74 2194.75,1302.37 2166.3,1316.14Z" style="fill:rgb(22,22,22);"/>
                </g>
                <g transform="matrix(1.04963,0,0,1.03912,-82.0925,-79.3173)">
                    <path d="M2191.28,1316.74C2190.13,1316.84 2189.13,1315.98 2189.03,1314.84C2188.94,1313.69 2189.79,1312.68 2190.94,1312.59C2195.11,1312.25 2200.02,1310.42 2206.25,1308.28C2216.02,1304.91 2228.86,1300.73 2246.74,1299.6C2247.89,1299.53 2248.88,1300.4 2248.95,1301.55C2249.02,1302.7 2248.15,1303.69 2247,1303.76C2229.61,1304.86 2217.11,1308.94 2207.6,1312.21C2200.97,1314.5 2195.72,1316.38 2191.28,1316.74Z" style="fill:rgb(22,22,22);"/>
                </g>
                <g transform="matrix(1.04963,0,0,1.03912,-82.0925,-79.3173)">
                    <path d="M2214.22,1322.04C2213.07,1322.09 2212.09,1321.21 2212.04,1320.06C2211.98,1318.91 2212.87,1317.93 2214.02,1317.88C2217.73,1317.7 2218.01,1319.15 2246.42,1310.85C2247.52,1310.53 2248.68,1311.16 2249,1312.26C2249.32,1313.37 2248.69,1314.52 2247.59,1314.85C2218.34,1323.4 2218.04,1321.85 2214.22,1322.04Z" style="fill:rgb(22,22,22);"/>
                </g>
                <g transform="matrix(1.04963,0,0,1.03912,-82.0925,-79.3173)">
                    <path d="M2173.94,1290.1C2172.8,1290.25 2171.75,1289.45 2171.6,1288.32C2171.44,1287.17 2172.24,1286.12 2173.38,1285.97C2189.84,1283.73 2189.72,1284.01 2206.14,1281.36C2207.27,1281.18 2208.34,1281.95 2208.53,1283.08C2208.71,1284.22 2207.94,1285.29 2206.8,1285.47C2190.33,1288.13 2190.45,1287.85 2173.94,1290.1Z" style="fill:rgb(22,22,22);"/>
                </g>
                <g transform="matrix(1.04963,0,0,1.03912,-82.0925,-79.3173)">
                    <path d="M2167.32,1281.43C2166.18,1281.53 2165.17,1280.67 2165.08,1279.53C2164.99,1278.38 2165.84,1277.38 2166.99,1277.28C2171.01,1276.96 2170.65,1276.62 2216.73,1268.68C2217.86,1268.49 2218.94,1269.25 2219.14,1270.38C2219.33,1271.52 2218.57,1272.6 2217.44,1272.79C2171.02,1280.79 2171.38,1281.11 2167.32,1281.43Z" style="fill:rgb(22,22,22);"/>
                </g>
                <g transform="matrix(1.04963,0,0,1.03912,-82.0925,-79.3173)">
                    <path d="M2221.46,1271.5C2220.31,1271.5 2219.38,1270.57 2219.38,1269.42C2219.38,1268.27 2220.31,1267.34 2221.46,1267.34L2264.06,1267.34C2265.21,1267.34 2266.14,1268.27 2266.14,1269.42C2266.14,1270.57 2265.21,1271.5 2264.06,1271.5L2221.46,1271.5Z" style="fill:rgb(22,22,22);"/>
                </g>
                <g transform="matrix(1.04963,0,0,1.03912,-82.0925,-79.3173)">
                    <path d="M2211.35,1283.78C2210.2,1283.82 2209.23,1282.93 2209.19,1281.78C2209.14,1280.63 2210.04,1279.66 2211.18,1279.61C2225.84,1279.03 2225.65,1278.73 2240,1276.17C2241.14,1275.96 2242.22,1276.72 2242.42,1277.85C2242.62,1278.98 2241.87,1280.07 2240.74,1280.27C2226.1,1282.88 2226.3,1283.18 2211.35,1283.78Z" style="fill:rgb(22,22,22);"/>
                </g>
                <g transform="matrix(1.04963,0,0,1.03912,-82.0925,-79.3173)">
                    <path d="M2223.79,1297.33C2222.64,1297.47 2221.6,1296.66 2221.45,1295.53C2221.31,1294.38 2222.12,1293.34 2223.26,1293.19C2240.01,1291.05 2239.75,1291.12 2256.57,1288.9C2257.71,1288.75 2258.76,1289.55 2258.91,1290.69C2259.06,1291.83 2258.26,1292.88 2257.12,1293.03C2240.29,1295.25 2240.55,1295.19 2223.79,1297.33Z" style="fill:rgb(22,22,22);"/>
                </g>
                <g transform="matrix(1.04963,0,0,1.03912,-82.0925,-79.3173)">
                    <path d="M2093,1432.91C2092.1,1432.2 2091.96,1430.88 2092.68,1429.99C2093.4,1429.09 2094.71,1428.94 2095.61,1429.66C2129.23,1456.63 2144.68,1463.57 2156.15,1463.62C2163.78,1463.65 2169.58,1460.66 2177.71,1458.76C2209.51,1451.3 2226.19,1447.97 2235.58,1446.83C2245.72,1445.59 2247.97,1446.81 2250.78,1448.21C2251.81,1448.73 2252.23,1449.98 2251.72,1451.01C2251.2,1452.04 2249.95,1452.45 2248.92,1451.94C2246.55,1450.76 2244.64,1449.91 2236.08,1450.96C2226.77,1452.1 2210.21,1455.42 2178.66,1462.81C2170.18,1464.8 2164.1,1467.82 2156.13,1467.78C2144.22,1467.74 2127.93,1460.93 2093,1432.91Z" style="fill:rgb(22,22,22);"/>
                </g>
                <g transform="matrix(1.04963,0,0,1.03912,-82.0925,-79.3173)">
                    <path d="M1855.27,1444.6C1856.16,1443.88 1857.48,1444.01 1858.2,1444.91C1858.93,1445.8 1858.79,1447.11 1857.9,1447.84C1815.22,1482.53 1778.06,1475.63 1746.73,1464.86C1726.5,1457.91 1708.81,1449.22 1693.71,1449.83C1692.56,1449.88 1691.59,1448.98 1691.54,1447.83C1691.5,1446.68 1692.39,1445.71 1693.54,1445.67C1709.06,1445.04 1727.3,1453.78 1748.09,1460.92C1778.29,1471.3 1814.13,1478.05 1855.27,1444.6Z" style="fill:rgb(22,22,22);"/>
                </g>
                <g transform="matrix(1.04963,0,0,1.03912,-82.0925,-79.3173)">
                    <path d="M1697.24,1432.96C1698.39,1432.91 1699.36,1433.8 1699.41,1434.95C1699.46,1436.1 1698.57,1437.08 1697.42,1437.13C1693.34,1437.31 1690.21,1436.87 1687.21,1436.72C1684.53,1436.58 1681.96,1436.69 1678.75,1437.88C1674.2,1439.58 1668.47,1443.35 1659.63,1451.16C1658.77,1451.92 1657.45,1451.84 1656.69,1450.98C1655.93,1450.12 1656.01,1448.8 1656.87,1448.04C1666.29,1439.71 1672.45,1435.79 1677.29,1433.98C1681.13,1432.55 1684.21,1432.39 1687.42,1432.56C1690.31,1432.7 1693.31,1433.14 1697.24,1432.96Z" style="fill:rgb(22,22,22);"/>
                </g>
                <g transform="matrix(1.04963,0,0,1.03912,-82.0925,-79.3173)">
                    <path d="M1707.78,1399.47C1708.93,1399.48 1709.86,1400.42 1709.85,1401.57C1709.84,1402.72 1708.89,1403.65 1707.74,1403.64C1644.99,1403.09 1645.44,1399.11 1633.76,1397.02C1632.62,1396.82 1631.87,1395.73 1632.07,1394.6C1632.27,1393.47 1633.36,1392.72 1634.49,1392.92C1646.06,1394.99 1645.62,1398.92 1707.78,1399.47Z" style="fill:rgb(22,22,22);"/>
                </g>
                <g transform="matrix(1.04963,0,0,1.03912,-82.0925,-79.3173)">
                    <path d="M1696.6,1375.65C1697.75,1375.7 1698.64,1376.67 1698.59,1377.82C1698.54,1378.97 1697.57,1379.86 1696.42,1379.81C1691.21,1379.58 1687.86,1380.16 1685.09,1380.38C1680.35,1380.76 1677.06,1380.35 1670.34,1374.6C1661.87,1367.34 1662.65,1366.53 1652.71,1361.29C1651.7,1360.76 1651.31,1359.5 1651.84,1358.48C1652.38,1357.46 1653.64,1357.07 1654.66,1357.61C1665.01,1363.07 1664.22,1363.87 1673.05,1371.43C1678.41,1376.03 1680.98,1376.53 1684.75,1376.23C1687.65,1375.99 1691.15,1375.41 1696.6,1375.65Z" style="fill:rgb(22,22,22);"/>
                </g>
                <g transform="matrix(1.04963,0,0,1.03912,-82.0925,-79.3173)">
                    <path d="M2269.08,1394.37C2267.93,1394.37 2267,1393.44 2267,1392.29C2267,1391.14 2267.93,1390.21 2269.08,1390.21C2275.8,1390.21 2280.01,1391.01 2283.51,1391.42C2288.24,1391.97 2291.48,1391.63 2298.68,1386.85C2304.97,1382.68 2305.26,1384.17 2316.1,1382.55C2317.24,1382.38 2318.3,1383.16 2318.47,1384.3C2318.64,1385.44 2317.86,1386.5 2316.72,1386.67C2312.54,1387.3 2309.99,1387.42 2308.04,1387.61C2305.5,1387.85 2304.15,1388.23 2300.99,1390.32C2292.49,1395.96 2288.61,1396.21 2283.03,1395.56C2279.65,1395.16 2275.57,1394.37 2269.08,1394.37Z" style="fill:rgb(22,22,22);"/>
                </g>
                <g transform="matrix(1.04963,0,0,1.03912,-82.0925,-79.3173)">
                    <path d="M2277.17,1404.04C2276.02,1404.01 2275.11,1403.06 2275.14,1401.91C2275.17,1400.76 2276.13,1399.85 2277.28,1399.88C2295.83,1400.36 2302.05,1403.77 2309.63,1410.05C2314.44,1414.04 2319.82,1419.28 2329.62,1425.78C2330.58,1426.42 2330.84,1427.71 2330.2,1428.67C2329.57,1429.63 2328.27,1429.89 2327.31,1429.25C2317.35,1422.63 2311.87,1417.32 2306.97,1413.26C2300,1407.48 2294.23,1404.49 2277.17,1404.04Z" style="fill:rgb(22,22,22);"/>
                </g>
                <g transform="matrix(1.04963,0,0,1.03912,-82.0925,-79.3173)">
                    <path d="M2295.02,1745.62C2322.82,1758.01 2357.99,1808.46 2400.97,1857.99C2430.32,1891.83 2466.14,1923.55 2498.84,1949.78C2541.34,1983.88 2602.59,1979.68 2683.83,2041.73C2566.17,2041.77 2315.04,2051.79 2244.13,2042.92C2338.78,2034.18 2338.94,1932.63 2307.94,1848.88C2295.69,1815.77 2265.9,1811.6 2283.11,1781.34C2304.73,1743.29 2293.02,1748.82 2295.02,1745.62Z" style="fill:rgb(22,22,22);"/>
                </g>
                <g transform="matrix(1.04963,0,0,1.03912,-82.0925,-79.3173)">
                    <path d="M2295.87,1743.71C2307.18,1748.76 2319.73,1759.95 2333.48,1774.85C2353.75,1796.82 2376.74,1826.89 2402.54,1856.63C2431.81,1890.37 2467.54,1922 2500.14,1948.15C2516.96,1961.65 2536.77,1969.05 2559.61,1977.04C2594.39,1989.21 2636.12,2002.67 2685.1,2040.08C2685.81,2040.62 2686.09,2041.56 2685.8,2042.4C2685.52,2043.25 2684.72,2043.82 2683.83,2043.82C2566.1,2043.85 2314.82,2053.86 2243.88,2044.99C2242.82,2044.85 2242.03,2043.95 2242.05,2042.88C2242.07,2041.82 2242.88,2040.94 2243.94,2040.84C2290.15,2036.58 2313.31,2009.67 2321.12,1973.59C2329.04,1936.98 2321.34,1891.09 2305.99,1849.6C2299.95,1833.29 2289.55,1824.14 2282.82,1815.31C2279.16,1810.5 2276.54,1805.77 2275.93,1800.23C2275.33,1794.72 2276.71,1788.37 2281.29,1780.31C2289.77,1765.4 2293.05,1757.34 2294.03,1752.81C2294.47,1750.76 2294.43,1749.68 2294.12,1749.02C2293.94,1748.66 2293.69,1748.47 2293.53,1748.29L2293,1747.55L2292.72,1746.65L2292.76,1745.65L2292.97,1745.03C2293.04,1744.87 2293.13,1744.7 2293.25,1744.51C2293.8,1743.63 2294.91,1743.29 2295.87,1743.71ZM2298.48,1749.72C2298.55,1750.72 2298.46,1752.01 2298.1,1753.69C2297.09,1758.4 2293.74,1766.84 2284.92,1782.37C2280.9,1789.43 2279.55,1794.95 2280.08,1799.78C2280.6,1804.57 2282.97,1808.62 2286.13,1812.78C2293.06,1821.88 2303.68,1831.36 2309.89,1848.15C2325.54,1890.42 2333.26,1937.18 2325.19,1974.47C2317.99,2007.74 2298.36,2033.59 2260.77,2042.37C2346.32,2048.32 2565.69,2040 2677.6,2039.66C2631.22,2005.42 2591.51,1992.62 2558.23,1980.97C2534.91,1972.81 2514.71,1965.19 2497.53,1951.4C2464.75,1925.1 2428.83,1893.29 2399.39,1859.36C2373.62,1829.66 2350.66,1799.62 2330.41,1777.67C2318.87,1765.15 2308.24,1755.28 2298.48,1749.72Z" style="fill:rgb(22,22,22);"/>
                </g>
                <g transform="matrix(1.04963,0,0,1.03912,-82.0925,-79.3173)">
                    <path d="M1716.68,1827.28C1748.54,1852.65 1688.14,2037.38 1771.6,2046.17C1671.68,2053.59 1317.78,2045.21 1151.96,2045.18C1266.45,1993.25 1326.57,1991.64 1386.47,1963.1C1432.54,1941.15 1520.59,1943.18 1561.96,1914.87C1609.99,1882 1673.61,1816.33 1707.44,1810.51C1716.27,1808.99 1709.05,1821.21 1716.68,1827.28Z" style="fill:rgb(22,22,22);"/>
                </g>
                <g transform="matrix(-1.47917,0,0,0.869516,5096.87,270.55)">
                    <path d="M2282.18,1779.39C2280.19,1782.06 2278.63,1786.05 2277.47,1791.18C2275.84,1798.36 2274.97,1807.88 2274.58,1819.03C2273.64,1846.22 2275.58,1883.36 2275.87,1919.6C2276.11,1949.43 2275.25,1978.65 2270.63,2001.07C2266.17,2022.74 2258.15,2037.93 2243.98,2040.44C2243.22,2040.58 2242.64,2041.67 2242.66,2042.96C2242.67,2044.25 2243.26,2045.31 2244.02,2045.4C2314.95,2054.27 2566.14,2044.26 2683.83,2044.22C2684.53,2044.22 2685.13,2043.41 2685.28,2042.26C2685.42,2041.11 2685.08,2039.95 2684.44,2039.47C2603.21,1977.42 2560.56,1975.5 2518.06,1941.4C2501.61,1928.21 2477.68,1922.17 2454.16,1915.23C2431.02,1908.39 2408.26,1900.71 2393.73,1883.95C2373.3,1860.41 2348.89,1822.76 2327.46,1794.91C2312.91,1776.02 2299.67,1761.66 2289.91,1758.83C2288.05,1758.29 2286.89,1758.97 2286.12,1760.1C2285.37,1761.21 2284.93,1762.92 2284.74,1765.1C2284.55,1767.33 2284.59,1770.18 2284.27,1773C2284.01,1775.31 2283.5,1777.63 2282.18,1779.39ZM2284.03,1783.28C2287.11,1779.15 2287.33,1773.02 2287.54,1768.08C2287.59,1766.94 2287.63,1765.88 2287.76,1764.99C2287.83,1764.53 2287.89,1764.11 2288.06,1763.85C2288.33,1763.46 2288.76,1763.55 2289.41,1763.74C2298.85,1766.48 2311.58,1780.58 2325.65,1798.85C2347.13,1826.76 2371.59,1864.47 2392.06,1888.07C2406.88,1905.15 2430.05,1913.16 2453.65,1920.13C2476.89,1926.99 2500.54,1932.86 2516.79,1945.89C2558.19,1979.11 2599.74,1981.81 2676.93,2039.26C2561.7,2039.64 2333.97,2048.35 2253.91,2041.44C2263.57,2034.77 2269.68,2020.89 2273.43,2002.7C2278.14,1979.82 2279.07,1949.99 2278.83,1919.53C2278.54,1883.42 2276.6,1846.41 2277.53,1819.32C2277.9,1808.76 2278.69,1799.75 2280.23,1792.95C2281.18,1788.77 2282.4,1785.46 2284.03,1783.28Z" style="fill:rgb(22,22,22);"/>
                </g>
            </g>
        </g>
    </g>
</svg>
