<?xml version="1.0" encoding="UTF-8" standalone="no"?>
<!DOCTYPE svg PUBLIC "-//W3C//DTD SVG 1.1//EN" "http://www.w3.org/Graphics/SVG/1.1/DTD/svg11.dtd">
<svg width="100%" height="100%" viewBox="0 0 888 1086" version="1.1" xmlns="http://www.w3.org/2000/svg" xmlns:xlink="http://www.w3.org/1999/xlink" xml:space="preserve" xmlns:serif="http://www.serif.com/" style="fill-rule:evenodd;clip-rule:evenodd;stroke-linecap:round;stroke-linejoin:round;stroke-miterlimit:1.5;">
    <g transform="matrix(1,0,0,1,-941.885,-1042.63)">
        <g id="Artboard2" transform="matrix(0.908716,0,0,0.925394,2092.79,1027.11)">
            <rect x="-1266.51" y="16.78" width="976.638" height="1172.48" style="fill:none;"/>
            <clipPath id="_clip1">
                <rect x="-1266.51" y="16.78" width="976.638" height="1172.48"/>
            </clipPath>
            <g clip-path="url(#_clip1)">
                <g id="floor" transform="matrix(1.10045,0,0,1.08062,29.6546,-0.509786)">
                    <g transform="matrix(0.983934,0,0,0.652531,478.879,62.1947)">
                        <path d="M-1058.32,903.815C-1057.63,905.23 -1057.82,907.231 -1058.76,908.281C-1059.7,909.331 -1061.03,909.035 -1061.72,907.62C-1074.05,882.575 -1077.02,878.79 -1087.78,850.546C-1088.36,849.018 -1088.01,847.065 -1087,846.187C-1085.99,845.309 -1084.69,845.837 -1084.11,847.365C-1073.46,875.305 -1070.52,879.039 -1058.32,903.815Z" style="fill:rgb(22,22,22);"/>
                    </g>
                    <g transform="matrix(0.688149,0,0,0.474103,150.953,271.521)">
                        <path d="M-1055.1,900.609C-1053.15,904.557 -1053.79,910.05 -1056.51,912.869C-1059.22,915.688 -1063.01,914.772 -1064.95,910.825C-1077.39,885.546 -1080.38,881.717 -1091.24,853.209C-1092.86,848.965 -1091.8,843.613 -1088.88,841.265C-1085.95,838.917 -1082.27,840.457 -1080.65,844.702C-1070.1,872.377 -1067.17,876.068 -1055.1,900.609Z" style="fill:rgb(22,22,22);"/>
                    </g>
                    <g transform="matrix(0.954678,0,0,0.629334,344.042,136.779)">
                        <path d="M-1056.53,901.757C-1055.09,904.685 -1055.48,908.837 -1057.41,911.023C-1059.34,913.209 -1062.08,912.606 -1063.52,909.678C-1075.92,884.488 -1078.9,880.676 -1089.72,852.269C-1090.93,849.105 -1090.21,845.052 -1088.13,843.224C-1086.05,841.395 -1083.37,842.479 -1082.17,845.642C-1071.58,873.419 -1068.65,877.126 -1056.53,901.757Z" style="fill:rgb(22,22,22);"/>
                    </g>
                    <g transform="matrix(2.45723,0,0,1.67907,2108.76,-368.507)">
                        <path d="M-1058.65,904.267C-1058.1,905.379 -1058.27,906.931 -1059.03,907.731C-1059.79,908.531 -1060.85,908.279 -1061.4,907.167C-1073.71,882.153 -1076.68,878.374 -1087.43,850.164C-1087.88,848.968 -1087.59,847.455 -1086.77,846.788C-1085.95,846.121 -1084.92,846.551 -1084.46,847.747C-1073.81,875.721 -1070.85,879.461 -1058.65,904.267Z" style="fill:rgb(22,22,22);"/>
                    </g>
                    <g transform="matrix(4.59606,0,0,2.5868,4569.7,-1231.66)">
                        <path d="M-1059.34,904.657C-1059.01,905.326 -1059.05,906.345 -1059.43,906.93C-1059.8,907.515 -1060.38,907.447 -1060.71,906.777C-1073,881.8 -1075.96,878.027 -1086.7,849.859C-1086.98,849.123 -1086.87,848.12 -1086.45,847.622C-1086.04,847.123 -1085.48,847.316 -1085.19,848.053C-1074.52,876.068 -1071.57,879.814 -1059.34,904.657Z" style="fill:rgb(22,22,22);"/>
                    </g>
                    <g transform="matrix(0.788694,0,0,0.811152,-253.786,166.266)">
                        <path d="M-1206.58,918.243C-1210.92,918.72 -1214.85,915.677 -1215.34,911.451C-1215.83,907.225 -1212.7,903.407 -1208.36,902.931C-1200.54,902.072 -1164.15,886.823 -1110.55,863.312C-891.208,767.117 -391.863,531.248 -369.933,521.256C-365.973,519.451 -361.251,521.112 -359.395,524.963C-357.539,528.814 -359.247,533.405 -363.208,535.21C-385.144,545.205 -884.63,781.138 -1104.03,877.359C-1160.1,901.953 -1198.4,917.346 -1206.58,918.243Z" style="fill:rgb(22,22,22);"/>
                    </g>
                    <g transform="matrix(0.828618,0,0,0.912395,-211.899,153.943)">
                        <path d="M-1207.8,903.743C-1207.26,903.593 -1202.55,902.262 -1197.77,900.492C-1182.25,894.749 -1153.75,882.652 -1116.37,866.188C-901.652,771.594 -395.708,533.423 -369.855,522.066C-366.107,520.42 -361.593,521.846 -359.78,525.25C-357.968,528.653 -359.539,532.753 -363.286,534.399C-389.139,545.756 -895.073,783.923 -1109.79,878.514C-1147.57,895.157 -1176.38,907.374 -1192.08,913.179C-1200.29,916.219 -1205.68,917.468 -1207.6,917.436C-1211.77,917.367 -1215.08,914.242 -1215.01,910.462C-1214.93,906.824 -1211.75,903.897 -1207.8,903.743Z" style="fill:rgb(22,22,22);"/>
                    </g>
                    <g transform="matrix(0.884717,0,0,0.848651,-144.74,76.3221)">
                        <path d="M-1207.64,903.225C-1207.2,903.104 -1202.28,901.742 -1197.28,899.895C-1181.75,894.148 -1153.23,882.043 -1115.83,865.567C-901.111,770.974 -395.167,532.802 -369.314,521.446C-365.721,519.867 -361.574,521.627 -360.06,525.373C-358.546,529.119 -360.234,533.441 -363.827,535.019C-389.68,546.376 -895.615,784.543 -1110.33,879.135C-1148.09,895.766 -1176.88,907.974 -1192.56,913.776C-1200.52,916.724 -1205.71,917.982 -1207.58,917.951C-1211.48,917.886 -1214.59,914.534 -1214.53,910.47C-1214.47,906.507 -1211.41,903.321 -1207.64,903.225Z" style="fill:rgb(22,22,22);"/>
                    </g>
                    <g transform="matrix(0.861512,0,0,0.950234,-165.473,152.064)">
                        <path d="M-1206.89,914.94C-1209.54,915.231 -1211.95,913.516 -1212.27,911.114C-1212.59,908.711 -1210.7,906.525 -1208.05,906.234C-1200.16,905.369 -1163.45,890.095 -1109.39,866.388C-890.045,770.189 -390.673,534.307 -368.742,524.315C-366.357,523.228 -363.448,524.101 -362.249,526.264C-361.05,528.426 -362.014,531.064 -364.399,532.15C-386.334,542.145 -885.794,778.066 -1105.18,874.283C-1160.81,898.681 -1198.77,914.05 -1206.89,914.94Z" style="fill:rgb(22,22,22);"/>
                    </g>
                    <g transform="matrix(0.334165,0,0,0.392215,-720.415,804.599)">
                        <path d="M-1205.87,921.123C-1212.7,921.872 -1218.95,917.759 -1219.83,911.944C-1220.71,906.129 -1215.88,900.8 -1209.06,900.051C-1207.19,899.845 -1203.35,898.412 -1197.61,896.299C-1180.59,890.034 -1151.04,877.577 -1112.99,860.89C-893.677,764.704 -394.379,528.856 -372.451,518.865C-366.382,516.1 -358.821,518.052 -355.575,523.223C-352.33,528.393 -354.622,534.835 -360.69,537.6C-382.628,547.596 -882.161,783.551 -1101.58,879.781C-1158.54,904.76 -1197.57,920.212 -1205.87,921.123Z" style="fill:rgb(22,22,22);"/>
                    </g>
                    <g transform="matrix(0.446912,0,0,0.597312,-195.423,612.379)">
                        <path d="M-1209.87,900.279C-1209.35,900.127 -1203.85,898.508 -1198.84,896.662C-1181.84,890.407 -1152.35,877.969 -1114.36,861.309C-895.05,765.126 -395.772,529.287 -373.844,519.296C-367.252,516.292 -358.641,517.858 -354.626,522.79C-350.612,527.723 -352.704,534.166 -359.297,537.169C-381.236,547.166 -880.788,783.129 -1100.21,879.363C-1139.01,896.375 -1169.14,909.054 -1186.49,915.441C-1195.85,918.882 -1202.39,920.605 -1205.44,920.94C-1213.07,921.778 -1220.18,917.819 -1221.3,912.106C-1222.4,906.486 -1217.31,901.248 -1209.87,900.279Z" style="fill:rgb(22,22,22);"/>
                    </g>
                    <path d="M-1188.01,847.655C-1189.96,844.81 -1189.24,840.917 -1186.39,838.966C-1183.55,837.015 -1179.65,837.741 -1177.7,840.586C-1158.82,868.13 -1154.77,877.281 -1153.24,880.714C-1151.83,883.863 -1153.25,887.563 -1156.39,888.97C-1159.54,890.377 -1163.24,888.963 -1164.65,885.814C-1166.11,882.546 -1170.03,873.877 -1188.01,847.655Z" style="fill:rgb(22,22,22);"/>
                    <g transform="matrix(0.0524827,0,0,0.937149,-580.442,-189.767)">
                        <path d="M-1301.86,844.376C-1304.38,840.698 -1253.11,837.597 -1187.43,837.456C-1121.75,837.315 -1066.38,840.186 -1063.86,843.865C-1045.38,870.809 -1041.4,879.739 -1039.89,883.097C-1038.25,886.777 -1090.26,889.839 -1155.96,889.931C-1221.67,890.023 -1276.35,887.11 -1277.99,883.431C-1279.49,880.088 -1283.46,871.198 -1301.86,844.376Z" style="fill:rgb(22,22,22);"/>
                    </g>
                    <path d="M-1056.29,903.878C-1055.27,905.941 -1056.12,908.441 -1058.18,909.456C-1060.25,910.471 -1062.75,909.62 -1063.76,907.557C-1076.1,882.492 -1079.07,878.706 -1089.84,850.439C-1090.66,848.29 -1089.58,845.881 -1087.43,845.062C-1085.28,844.243 -1082.87,845.323 -1082.05,847.472C-1071.41,875.389 -1068.47,879.122 -1056.29,903.878Z" style="fill:rgb(22,22,22);"/>
                    <g transform="matrix(1,0,0,1,145.533,-62.4049)">
                        <path d="M-1056.29,903.878C-1055.27,905.941 -1056.12,908.441 -1058.18,909.456C-1060.25,910.471 -1062.75,909.62 -1063.76,907.557C-1076.1,882.492 -1079.07,878.706 -1089.84,850.439C-1090.66,848.29 -1089.58,845.881 -1087.43,845.062C-1085.28,844.243 -1082.87,845.323 -1082.05,847.472C-1071.41,875.389 -1068.47,879.122 -1056.29,903.878Z" style="fill:rgb(22,22,22);"/>
                    </g>
                    <g transform="matrix(1.99032,0,0,2.54207,1130.15,-1223.11)">
                        <path d="M-1058.07,905.128C-1057.65,905.972 -1058.19,906.922 -1059.27,907.247C-1060.35,907.572 -1061.56,907.151 -1061.98,906.307C-1074.26,881.344 -1077.22,877.575 -1087.95,849.424C-1088.28,848.557 -1087.65,847.644 -1086.54,847.385C-1085.44,847.126 -1084.27,847.62 -1083.94,848.487C-1073.26,876.519 -1070.3,880.27 -1058.07,905.128Z" style="fill:rgb(22,22,22);"/>
                    </g>
                    <g transform="matrix(1.06937,0,0,2.44021,-37.0744,-1056.18)">
                        <path d="M-1056.21,905.357C-1055.76,906.279 -1057.1,907.188 -1059.2,907.386C-1061.31,907.585 -1063.38,906.998 -1063.83,906.077C-1076.11,881.132 -1079.07,877.367 -1089.79,849.237C-1090.14,848.307 -1088.71,847.427 -1086.59,847.271C-1084.47,847.116 -1082.46,847.745 -1082.1,848.674C-1071.41,876.727 -1068.45,880.482 -1056.21,905.357Z" style="fill:rgb(22,22,22);"/>
                    </g>
                    <g transform="matrix(1.87228,0,0,1.97192,1147.02,-632.708)">
                        <path d="M-1058.01,904.823C-1057.49,905.879 -1057.97,907.138 -1059.08,907.632C-1060.19,908.125 -1061.52,907.668 -1062.04,906.612C-1074.34,881.625 -1077.3,877.852 -1088.04,849.674C-1088.46,848.578 -1087.86,847.365 -1086.7,846.969C-1085.55,846.572 -1084.27,847.14 -1083.85,848.237C-1073.18,876.242 -1070.23,879.989 -1058.01,904.823Z" style="fill:rgb(22,22,22);"/>
                    </g>
                    <g transform="matrix(1.18924,0,0,0.990618,605.37,189.49)">
                        <path d="M-1057.01,903.578C-1056.02,905.577 -1056.58,908.158 -1058.24,909.339C-1059.91,910.519 -1062.06,909.855 -1063.04,907.857C-1075.38,882.777 -1078.35,878.988 -1089.13,850.705C-1089.94,848.594 -1089.16,846.096 -1087.4,845.131C-1085.64,844.165 -1083.56,845.095 -1082.76,847.206C-1072.13,875.107 -1069.18,878.837 -1057.01,903.578Z" style="fill:rgb(22,22,22);"/>
                    </g>
                    <g transform="matrix(2.34614,0,0,1.42707,1987.47,-281.379)">
                        <path d="M-1058.64,903.881C-1058.03,905.134 -1058.14,906.974 -1058.91,907.987C-1059.67,909.001 -1060.79,908.806 -1061.4,907.554C-1073.72,882.52 -1076.69,878.736 -1087.45,850.506C-1087.97,849.14 -1087.72,847.337 -1086.89,846.481C-1086.06,845.626 -1084.96,846.04 -1084.44,847.406C-1073.79,875.358 -1070.84,879.094 -1058.64,903.881Z" style="fill:rgb(22,22,22);"/>
                    </g>
                </g>
                <g id="body" transform="matrix(1.10045,0,0,1.08062,29.6546,-0.509786)">
                    <path d="M-603.249,1152.35C-643.198,1132.24 -1036.71,920.469 -1052.21,917.596C-1059.82,916.186 -1056.86,899.37 -1067.3,861.413C-1069.72,852.583 -1018.09,704.536 -996.822,572.243C-991.858,541.359 -953.001,474.509 -911.132,424.348C-887.475,396.006 -857.107,375.339 -845.083,364.25C-837.726,357.466 -832.448,310.033 -854.164,283.85C-867.233,268.094 -872.921,258.114 -876.022,230.928C-876.26,228.847 -864.32,232.16 -865.599,222.87C-869.21,196.655 -871.325,98.682 -796.9,90.066C-726.084,81.868 -718.691,179.389 -725.972,199.347C-727.332,203.074 -724.798,207.034 -713.417,205.756C-706.51,204.98 -716.31,234.441 -724.179,261.525C-726.362,269.042 -735.338,273.473 -736.184,280.237C-737.325,289.361 -746.961,312.455 -748.954,317.962C-685.703,303.319 -661.94,328.303 -651.116,343.009C-643.81,352.937 -626.898,417.064 -636.452,478.217C-649.508,561.785 -709.312,648.775 -721.135,684.748C-710.404,684.517 -659.68,708.185 -635.968,717.922C-597.183,769.14 -565.832,780.92 -524.366,818.017C-516.121,825.394 -435.945,867.299 -402.662,908.458C-395.636,917.148 -476.169,883.012 -509.156,917.68C-512.543,921.24 -559.015,923.795 -565.069,932.939C-579.241,954.346 -582.635,947.103 -594.98,940.055C-619.702,925.939 -643.16,962.105 -643.864,964.676C-644.52,967.072 -631.637,986.709 -632.564,987.357C-637.349,990.703 -659.516,991.314 -661.883,991.379C-669.246,1010.89 -700.295,993.162 -672.136,1030.33C-676.922,1032.72 -705.581,1045.11 -706.36,1056.35C-663.739,1083.38 -575.462,1136.59 -535.584,1151.95C-585.1,1152.77 -582.83,1151.03 -603.249,1152.35ZM-858.021,940.47C-861.454,908.622 -870.959,907.276 -877.649,876.157C-889.756,819.841 -866.621,815.31 -840.23,796.668C-855.524,774.637 -854.872,765.782 -868.978,758.606C-868.894,756.004 -872.731,706.958 -874.122,703.532C-874.982,701.413 -882.195,700.203 -882.71,699.336C-886.952,692.189 -889.701,636.602 -935.242,605.062C-969.176,604.247 -995.06,774.714 -1008.64,798.732C-1023.67,825.297 -1002.14,879.014 -998.531,882.955C-958.17,927.01 -879.585,939.823 -858.021,940.47ZM-719.321,654.287C-717.272,629.188 -650.334,484.821 -675.616,498.716C-697.312,510.641 -721.277,610.561 -725.259,625.93C-725.836,628.16 -724.138,633.501 -719.321,654.287Z" style="fill:rgb(22,22,22);"/>
                    <path d="M-641.736,965.031C-641.556,965.524 -641.057,966.851 -640.509,967.952C-638.124,972.752 -633.553,980.226 -631.594,984.025C-630.836,985.496 -630.467,986.601 -630.438,987.058L-630.459,987.577L-630.592,988.076L-630.873,988.583L-631.37,989.065C-632.965,990.18 -636.273,991.112 -640.23,991.746C-647.401,992.895 -656.816,993.298 -660.48,993.42C-663.92,1000.88 -670.702,1002.94 -676.109,1004.78C-677.525,1005.27 -678.824,1005.73 -679.863,1006.35C-680.585,1006.78 -681.173,1007.27 -681.454,1007.99C-681.855,1009.02 -681.668,1010.38 -680.973,1012.29C-679.623,1016 -676.373,1021.29 -670.476,1029.07C-670.102,1029.56 -669.967,1030.2 -670.108,1030.8C-670.249,1031.4 -670.651,1031.91 -671.206,1032.19C-674.503,1033.84 -689.327,1040.28 -698.179,1047.81C-701.084,1050.28 -703.387,1052.79 -704.08,1055.32C-661.125,1082.52 -574.27,1134.81 -534.835,1150.01C-533.904,1150.37 -533.359,1151.33 -533.533,1152.32C-533.707,1153.3 -534.553,1154.02 -535.55,1154.03C-584.992,1154.85 -582.725,1153.11 -603.114,1154.43C-603.484,1154.45 -603.854,1154.38 -604.185,1154.21C-636.146,1138.12 -894.395,999.368 -1004.35,943.038C-1031.54,929.111 -1049.53,920.213 -1052.59,919.645C-1055.55,919.097 -1057.52,916.963 -1058.85,912.623C-1061.24,904.795 -1061.99,888.566 -1069.31,861.966C-1069.49,861.287 -1069.52,859.964 -1069.23,858.044C-1068.69,854.501 -1067.2,848.376 -1064.95,840.103C-1052.31,793.486 -1015.88,677.663 -998.879,571.912C-993.883,540.83 -954.869,473.497 -912.731,423.013C-889.003,394.585 -858.556,373.841 -846.495,362.718C-845.776,362.055 -845.126,360.889 -844.491,359.36C-843.372,356.665 -842.421,352.938 -841.756,348.529C-839.118,331.065 -840.955,303.04 -855.768,285.18C-869.108,269.097 -874.927,258.915 -878.092,231.164L-878.077,230.464L-877.85,229.755L-877.461,229.181L-877.024,228.792C-876.48,228.4 -875.325,228.096 -873.835,227.952C-872.771,227.849 -871.457,227.757 -870.236,227.413C-869.377,227.171 -868.54,226.826 -868.047,226.077C-867.605,225.404 -867.484,224.459 -867.663,223.155C-869.49,209.892 -870.936,178.479 -862.515,149.291C-853.972,119.682 -835.335,92.418 -797.139,87.997C-760.575,83.764 -740.311,106.716 -730.201,133.41C-720.195,159.831 -720.294,189.861 -724.015,200.061C-724.263,200.74 -724.339,201.437 -723.98,202.023C-723.514,202.783 -722.514,203.277 -720.976,203.601C-719.182,203.979 -716.781,204.037 -713.65,203.686C-713.381,203.655 -713.125,203.65 -712.883,203.667L-712.098,203.802L-711.346,204.111L-710.69,204.574C-709.873,205.297 -709.237,206.578 -709.055,208.457C-708.809,211.001 -709.315,214.994 -710.379,219.952C-712.731,230.92 -717.757,246.887 -722.178,262.106C-723.358,266.166 -726.306,269.437 -729.14,272.563C-731.454,275.116 -733.744,277.511 -734.117,280.495C-735.098,288.347 -742.27,306.435 -745.631,315.092C-715.465,308.697 -694.447,311.437 -679.582,317.553C-663.927,323.994 -655.012,334.201 -649.438,341.775C-647.174,344.851 -643.951,352.943 -640.907,364.504C-633.979,390.811 -627.656,435.409 -634.394,478.538C-647.182,560.39 -704.702,645.537 -718.305,682.946C-714.471,683.616 -708.662,685.445 -701.76,688.02C-681.654,695.519 -651.791,709.173 -635.176,715.995C-634.832,716.136 -634.532,716.367 -634.307,716.664C-595.625,767.746 -564.333,779.466 -522.977,816.465C-514.714,823.858 -434.398,865.899 -401.042,907.148C-400.641,907.645 -400.412,908.088 -400.293,908.449L-400.149,909.237L-400.207,909.875L-400.394,910.418L-400.696,910.896L-401.134,911.325L-401.786,911.702C-402.183,911.867 -402.751,911.994 -403.494,912.011C-404.548,912.034 -406.158,911.843 -408.234,911.478C-418.997,909.584 -443.601,902.975 -467.223,903.959C-482.536,904.597 -497.458,908.409 -507.646,919.116C-508.289,919.791 -510.087,920.616 -512.825,921.266C-517.905,922.473 -526.747,923.701 -535.755,925.268C-543.306,926.582 -550.977,928.133 -556.547,930.142C-559.787,931.311 -562.293,932.52 -563.331,934.089C-567.009,939.644 -570.004,943.327 -572.603,945.632C-575.608,948.298 -578.219,949.261 -580.718,949.251C-582.694,949.244 -584.641,948.604 -586.718,947.519C-589.362,946.138 -592.283,943.994 -596.013,941.864C-607.512,935.298 -618.677,940.635 -627.089,947.703C-633.232,952.865 -637.947,959.02 -640.341,962.676C-640.951,963.607 -641.491,964.579 -641.736,965.031ZM-635.095,986.314C-637.019,982.402 -642.807,973.092 -644.963,968.287C-645.474,967.147 -645.797,966.206 -645.908,965.569L-645.97,964.799L-645.873,964.126C-645.749,963.671 -645.073,962.297 -643.827,960.393C-641.288,956.516 -636.285,949.988 -629.769,944.513C-620.095,936.383 -607.172,930.694 -593.947,938.245C-590.853,940.012 -588.319,941.791 -586.037,943.13C-584.125,944.252 -582.45,945.078 -580.702,945.085C-579.037,945.091 -577.37,944.292 -575.368,942.515C-572.958,940.378 -570.214,936.938 -566.806,931.789C-565.733,930.168 -563.642,928.644 -560.753,927.344C-554.927,924.721 -545.618,922.755 -536.47,921.163C-527.56,919.613 -518.812,918.406 -513.788,917.213C-512.315,916.863 -510.765,916.247 -510.608,916.184C-499.686,904.749 -483.787,900.478 -467.396,899.796C-443.419,898.798 -418.438,905.452 -407.512,907.374C-407.042,907.457 -406.558,907.526 -406.093,907.583C-440.309,867.228 -517.674,826.8 -525.755,819.57C-567.209,782.483 -598.555,770.605 -637.284,719.633C-653.965,712.755 -683.358,699.331 -703.216,691.924C-711.479,688.842 -718,686.765 -721.09,686.831C-721.766,686.846 -722.407,686.532 -722.809,685.988C-723.212,685.445 -723.325,684.74 -723.114,684.098C-711.309,648.179 -651.547,561.339 -638.51,477.895C-631.873,435.41 -638.111,391.479 -644.936,365.565C-647.785,354.744 -650.675,347.124 -652.794,344.244C-658.044,337.111 -666.422,327.473 -681.167,321.406C-696.087,315.268 -717.442,312.805 -748.484,319.992C-749.228,320.164 -750.006,319.916 -750.513,319.345C-751.019,318.774 -751.173,317.971 -750.913,317.253C-748.943,311.81 -739.379,288.996 -738.251,279.978C-737.779,276.199 -735.158,272.997 -732.227,269.764C-729.814,267.103 -727.184,264.4 -726.179,260.944C-720.713,242.127 -714.282,222.16 -713.282,212.134C-713.131,210.625 -713.101,209.372 -713.258,208.425C-713.288,208.242 -713.361,208.011 -713.415,207.852C-727.239,209.334 -729.596,203.202 -727.929,198.633C-724.369,188.874 -724.524,160.165 -734.098,134.886C-743.568,109.88 -762.409,88.17 -796.66,92.136C-832.89,96.33 -850.408,122.361 -858.512,150.446C-866.736,178.952 -865.32,209.633 -863.536,222.586C-863.122,225.59 -863.853,227.589 -865.018,228.972C-866.649,230.909 -869.379,231.645 -871.842,231.937C-872.471,232.011 -873.205,232.097 -873.78,232.164C-870.706,257.681 -865.119,267.379 -852.561,282.52C-836.971,301.316 -834.859,330.772 -837.636,349.151C-838.893,357.475 -841.279,363.576 -843.67,365.782C-855.658,376.837 -885.948,397.427 -909.533,425.683C-951.132,475.522 -989.833,541.888 -994.765,572.573C-1011.79,678.492 -1048.26,794.503 -1060.93,841.194C-1063.12,849.251 -1064.59,855.213 -1065.11,858.663C-1065.27,859.742 -1065.39,860.479 -1065.29,860.861C-1059.01,883.702 -1057.56,898.909 -1055.76,907.726C-1055.22,910.392 -1054.67,912.424 -1053.88,913.843C-1053.36,914.78 -1052.75,915.379 -1051.83,915.548C-1048.7,916.129 -1030.25,925.092 -1002.45,939.329C-893.061,995.369 -636.891,1133 -602.816,1150.23C-584.434,1149.07 -584.6,1150.44 -545.676,1150.01C-588.787,1130.96 -667.838,1083.25 -707.476,1058.11C-708.122,1057.69 -708.491,1056.96 -708.438,1056.2C-708.174,1052.39 -705.24,1048.34 -700.878,1044.63C-693.105,1038.02 -680.891,1032.19 -675.324,1029.55C-680.623,1022.37 -683.576,1017.33 -684.89,1013.71C-686.053,1010.51 -686.009,1008.21 -685.337,1006.48C-684.247,1003.68 -681.272,1002.14 -677.457,1000.84C-672.727,999.224 -666.501,997.714 -663.832,990.643C-663.533,989.852 -662.786,989.32 -661.94,989.297C-660.305,989.251 -649.091,988.946 -640.889,987.632C-638.586,987.263 -636.534,986.854 -635.095,986.314ZM-881.14,697.85C-880.226,698.14 -876.812,699.244 -875.02,700.14C-873.565,700.867 -872.567,701.825 -872.192,702.748C-871.891,703.489 -871.433,706.193 -870.976,710.082C-869.434,723.203 -867.283,750.699 -866.941,757.323C-860.203,760.979 -856.797,765.093 -853.262,770.996C-849.767,776.832 -846.128,784.518 -838.518,795.479C-837.866,796.419 -838.093,797.709 -839.028,798.369C-846.928,803.95 -854.538,808.262 -860.992,813.084C-867.162,817.693 -872.256,822.764 -875.395,830.042C-879.665,839.941 -880.325,853.799 -875.612,875.719C-872.309,891.081 -868.305,899.092 -864.709,907.195C-860.998,915.56 -857.699,924.017 -855.95,940.247C-855.885,940.846 -856.083,941.443 -856.492,941.885C-856.901,942.327 -857.482,942.571 -858.084,942.552C-879.878,941.899 -959.276,928.888 -1000.07,884.362C-1000.67,883.701 -1001.78,881.815 -1003.08,878.94C-1005.83,872.858 -1009.8,862.029 -1012.61,849.793C-1016.68,832.04 -1018.19,811.382 -1010.46,797.707C-1007.65,792.745 -1004.35,781.418 -1000.51,766.645C-991.402,731.536 -979.535,677.251 -965.434,641.236C-960.154,627.75 -954.528,616.797 -948.656,610.23C-944.331,605.394 -939.786,602.869 -935.192,602.979C-934.785,602.989 -934.39,603.118 -934.055,603.35C-901.658,625.787 -890.514,660.163 -885.298,681.283C-883.3,689.372 -882.276,695.428 -881.14,697.85ZM-876.014,704.423C-876.15,704.328 -876.711,703.942 -877.137,703.744C-878.115,703.29 -879.299,702.903 -880.357,702.558C-881.771,702.098 -882.995,701.67 -883.557,701.325L-884.08,700.926L-884.501,700.399C-885.816,698.184 -887.07,691.484 -889.343,682.282C-894.363,661.957 -904.945,628.878 -935.888,607.152C-939.22,607.313 -942.396,609.481 -945.55,613.008C-951.177,619.299 -956.495,629.833 -961.554,642.755C-975.601,678.632 -987.403,732.716 -996.481,767.692C-1000.44,782.954 -1003.93,794.632 -1006.83,799.758C-1014.12,812.647 -1012.38,832.129 -1008.54,848.862C-1005.81,860.766 -1001.96,871.305 -999.283,877.222C-998.256,879.491 -997.472,881.026 -996.994,881.548C-958.446,923.625 -884.629,936.838 -860.372,938.277C-862.113,924.214 -865.135,916.509 -868.518,908.885C-872.206,900.573 -876.298,892.351 -879.686,876.594C-884.659,853.461 -883.727,838.838 -879.221,828.392C-875.779,820.411 -870.251,814.8 -863.486,809.746C-857.465,805.248 -850.445,801.189 -843.117,796.141C-850.011,785.978 -853.493,778.721 -856.837,773.137C-860.14,767.621 -863.289,763.838 -869.923,760.463C-870.643,760.096 -871.086,759.346 -871.06,758.539C-870.993,756.471 -873.433,724.87 -875.114,710.569C-875.484,707.427 -875.767,705.181 -876.014,704.423ZM-721.351,654.757C-724.74,640.133 -726.589,633.114 -727.196,629.451C-727.526,627.466 -727.496,626.258 -727.275,625.408C-724.48,614.616 -711.853,562.27 -697.07,527.729C-693.211,518.713 -689.196,510.898 -685.179,505.298C-682.33,501.326 -679.439,498.44 -676.619,496.89C-673.529,495.192 -671.311,495.501 -669.901,496.68C-669.046,497.396 -668.38,498.547 -668.065,500.184C-667.728,501.937 -667.77,504.394 -668.193,507.437C-670.759,525.909 -687.363,568.176 -700.619,603.381C-709.322,626.497 -716.596,646.51 -717.245,654.456C-717.328,655.479 -718.145,656.289 -719.169,656.364C-720.193,656.439 -721.119,655.757 -721.351,654.757ZM-719.425,644.735C-716.56,634.428 -710.948,618.99 -704.518,601.913C-691.383,567.027 -674.863,525.168 -672.32,506.864C-672.028,504.765 -671.922,503.004 -672.062,501.635C-672.113,501.131 -672.195,500.692 -672.328,500.327C-672.399,500.132 -672.435,499.949 -672.577,499.874C-672.737,499.79 -672.936,499.868 -673.182,499.932C-673.608,500.042 -674.081,500.25 -674.612,500.542C-677,501.854 -679.381,504.364 -681.793,507.727C-685.667,513.127 -689.518,520.674 -693.239,529.368C-707.932,563.697 -720.464,615.727 -723.242,626.453C-723.43,627.177 -723.213,628.294 -722.765,630.469C-722.167,633.371 -721.077,637.79 -719.425,644.735Z" style="fill:rgb(22,22,22);"/>
                </g>
                <g id="face" transform="matrix(0.583909,0,0,0.573386,-459.6,318.617)">
                    <g transform="matrix(1,0,0,1,-1343.57,-1238)">
                        <path d="M715.989,1207.75L716.659,1208.31L717.15,1209.12L717.33,1210.01L717.251,1210.81C717.054,1211.67 716.304,1212.89 714.881,1214.18C707.829,1220.59 682.243,1232.3 660.933,1224.56C659.234,1223.94 658.09,1223.25 657.391,1222.58C656.646,1221.86 656.286,1221.1 656.176,1220.35C656.016,1219.28 656.362,1218.12 657.415,1217.01C658.363,1216.01 660.039,1214.95 662.295,1213.97C671.312,1210.02 690.392,1206.46 703.265,1206.06C709.199,1205.87 713.886,1206.46 715.989,1207.75ZM660.205,1219.81C660.311,1219.9 660.447,1220.01 660.574,1220.09C661.01,1220.36 661.575,1220.62 662.273,1220.87C679.593,1227.16 699.943,1219.56 709.151,1213.59C710.716,1212.57 711.947,1211.62 712.752,1210.78C712.797,1210.73 712.843,1210.68 712.888,1210.63C710.863,1209.97 707.47,1209.85 703.388,1209.98C690.973,1210.37 672.565,1213.76 663.87,1217.56C662.664,1218.09 661.659,1218.62 660.916,1219.16C660.65,1219.35 660.372,1219.63 660.205,1219.81Z" style="fill:rgb(250,249,246);"/>
                    </g>
                    <g transform="matrix(1,0,0,1,-1343.57,-1238)">
                        <path d="M644.046,1228.96C644.968,1211.74 652.486,1200.64 659.599,1196.54C665.146,1193.35 670.541,1194.1 673.56,1198.64C674.11,1199.47 674.529,1199.98 675.071,1200.06C675.609,1200.14 676.12,1199.81 676.715,1199.43C677.572,1198.89 678.481,1198.15 679.482,1197.37C683.415,1194.32 688.548,1190.84 696.329,1193.31C697.066,1193.54 714.697,1196.17 725.684,1202.36C730.59,1205.13 734.17,1208.66 735.015,1212.8C735.605,1215.69 734.955,1218.95 732.348,1222.55C730.43,1225.2 725.799,1227.91 720.166,1230.27C707.848,1235.43 690.744,1239.29 690.744,1239.29C690.576,1239.33 690.404,1239.35 690.232,1239.34C682.11,1239.01 669.902,1240.73 660.103,1239.37C652.887,1238.36 646.955,1235.66 644.232,1229.91C644.092,1229.62 644.028,1229.29 644.046,1228.96ZM647.996,1228.66L647.997,1228.66C650.273,1232.94 655.062,1234.7 660.645,1235.48C670.214,1236.81 682.11,1235.13 690.127,1235.41C692.244,1234.92 707.465,1231.33 718.65,1226.65C723.459,1224.64 727.53,1222.51 729.168,1220.25C730.857,1217.91 731.501,1215.83 731.228,1213.93C730.956,1212.03 729.798,1210.38 728.162,1208.88C725.645,1206.58 722.021,1204.69 718.129,1203.13C707.868,1199.02 695.745,1197.24 695.143,1197.05C687.608,1194.66 683.258,1199.56 679.845,1202.04C677.768,1203.56 675.855,1204.3 674.065,1203.86C672.837,1203.56 671.543,1202.7 670.29,1200.82C668.414,1197.99 665.006,1197.96 661.559,1199.94C655.254,1203.58 648.936,1213.51 647.996,1228.66Z" style="fill:rgb(250,249,246);"/>
                    </g>
                    <g transform="matrix(1,0,0,1,-1343.57,-1238)">
                        <path d="M656.031,1051.37C677.012,1087.96 633.497,1128.06 643.256,1144.87C649.759,1156.08 648.641,1156.6 649.571,1157.2C653.422,1159.7 653.707,1158.2 660.827,1157.93" style="fill:none;"/>
                        <clipPath id="_clip2">
                            <path d="M656.031,1051.37C677.012,1087.96 633.497,1128.06 643.256,1144.87C649.759,1156.08 648.641,1156.6 649.571,1157.2C653.422,1159.7 653.707,1158.2 660.827,1157.93"/>
                        </clipPath>
                        <g clip-path="url(#_clip2)">
                            <g transform="matrix(0.93689,0,0,0.978225,38.0569,24.9304)">
                                <path d="M662.055,1151.19C653.212,1148.82 649.395,1139.85 648.513,1148.87C648.333,1150.72 648.71,1152.35 660.628,1151.64" style="fill:rgb(250,249,246);"/>
                                <path d="M662.556,1155.02C662.055,1155.28 661.487,1155.44 660.88,1155.48C655.602,1155.8 652.369,1155.65 650.401,1155.29C648.995,1155.03 648.015,1154.63 647.311,1154.22L646.358,1153.55L645.528,1152.66L644.929,1151.64L644.598,1150.63L644.508,1148.51C644.884,1144.67 646.182,1142.88 647.21,1142.11L648.376,1141.45L649.673,1141.12L651.087,1141.13L652.675,1141.56C653.743,1141.99 655.124,1142.95 656.771,1144.13C658.416,1145.31 660.494,1146.77 663.141,1147.49C665.279,1148.06 666.528,1150.19 665.928,1152.24C665.478,1153.77 664.113,1154.83 662.556,1155.02Z" style="fill:rgb(250,249,246);"/>
                            </g>
                        </g>
                        <path d="M650.887,1155.71C652.459,1156.69 653.224,1156.74 654.651,1156.56C656.016,1156.39 657.822,1156.08 660.752,1155.96C661.835,1155.92 662.747,1156.77 662.789,1157.85C662.83,1158.93 661.984,1159.85 660.901,1159.89C657.371,1160.02 655.536,1160.46 654.105,1160.56C652.276,1160.68 650.944,1160.43 648.502,1158.85L647.876,1158.32L647.423,1157.64C647.029,1156.85 646.711,1154.74 641.558,1145.86C639.781,1142.8 639.471,1139.07 640.249,1134.77C641.298,1128.99 644.349,1122.07 647.789,1114.42C655.968,1096.25 666.571,1073.69 654.328,1052.35C653.789,1051.4 654.115,1050.2 655.055,1049.67C655.995,1049.13 657.196,1049.45 657.735,1050.39C670.669,1072.95 660.011,1096.83 651.37,1116.04C648.081,1123.35 645.115,1129.94 644.112,1135.47C643.523,1138.72 643.608,1141.57 644.954,1143.89C649.481,1151.69 650.651,1154.96 650.887,1155.71Z" style="fill:rgb(250,249,246);"/>
                    </g>
                    <g transform="matrix(1,0,0,1,-1343.57,-1238)">
                        <path d="M687.254,1155.38C686.17,1155.38 685.29,1154.5 685.29,1153.42C685.29,1152.33 686.17,1151.45 687.254,1151.45C688.182,1151.45 693.399,1152.52 698.921,1151.69C703.91,1150.93 709.222,1148.56 711.165,1141.8C712.594,1136.83 710.672,1133.62 707.782,1130.94C704.337,1127.75 699.687,1125.19 696.532,1121.84C695.789,1121.05 695.825,1119.81 696.613,1119.07C697.402,1118.32 698.645,1118.36 699.389,1119.15C702.486,1122.43 707.07,1124.93 710.452,1128.06C714.388,1131.71 716.885,1136.12 714.938,1142.89C712.473,1151.46 705.839,1154.62 699.506,1155.57C693.708,1156.44 688.229,1155.38 687.254,1155.38Z" style="fill:rgb(250,249,246);"/>
                    </g>
                    <g transform="matrix(1,0,0,1.11541,-1343.57,-1369.21)">
                        <path d="M678.375,1145.2C683.959,1141.06 684.952,1143.04 690.562,1139C697.895,1133.73 700.791,1139.63 698.697,1142.43C696.765,1145.01 681.255,1145.22 679.72,1145.25" style="fill:rgb(250,249,246);"/>
                        <path d="M678.981,1146.88C678.238,1147.09 677.39,1146.9 676.863,1146.32C676.172,1145.58 676.289,1144.46 677.124,1143.85C680.186,1141.58 681.991,1140.98 683.798,1140.4C685.292,1139.93 686.789,1139.46 689.333,1137.63C693.103,1134.92 696.054,1134.79 697.953,1135.5C699.663,1136.14 700.771,1137.51 701.164,1139.07C701.537,1140.55 701.246,1142.18 700.327,1143.41C699.939,1143.93 699.268,1144.44 698.306,1144.85C697.326,1145.27 695.973,1145.62 694.42,1145.9C688.969,1146.87 680.852,1146.99 679.751,1147.01C679.479,1147.01 679.219,1146.96 678.981,1146.88ZM686.616,1143.22C688.964,1143.07 691.523,1142.82 693.653,1142.44C694.661,1142.26 695.565,1142.06 696.279,1141.8C696.602,1141.69 697.029,1141.45 697.092,1141.41C697.408,1140.97 697.468,1140.38 697.334,1139.85C697.218,1139.38 696.947,1138.94 696.44,1138.75C696.043,1138.6 695.544,1138.61 694.949,1138.76C694.039,1138.99 692.995,1139.51 691.79,1140.38C689.559,1141.98 687.996,1142.71 686.616,1143.22Z" style="fill:rgb(250,249,246);"/>
                    </g>
                    <g transform="matrix(1,0,0,1,-1343.57,-1238)">
                        <path d="M701.68,1041.84C721.093,1039.66 744.245,1025.63 763.399,1034.64C768.756,1037.16 779.619,1036.29 789.357,1037.48C771.125,1024.53 771.622,1023.49 749.687,1018.12C733.334,1014.12 733.971,1023.3 697.596,1024.93C698.023,1029.86 698.092,1041.1 701.68,1041.84Z" style="fill:rgb(250,249,246);"/>
                        <path d="M701.28,1043.77C699.663,1043.43 698.254,1041.9 697.432,1039.41C696.112,1035.41 695.949,1028.66 695.64,1025.1C695.594,1024.57 695.767,1024.04 696.12,1023.64C696.472,1023.24 696.974,1023 697.508,1022.97C719.071,1022 727.469,1018.35 734.228,1016.43C739.094,1015.06 743.174,1014.51 750.154,1016.22C772.455,1021.67 771.957,1022.71 790.494,1035.88C791.226,1036.4 791.512,1037.35 791.188,1038.19C790.863,1039.03 790.011,1039.54 789.119,1039.43C783.305,1038.72 777.088,1038.75 771.893,1038.34C768.134,1038.05 764.877,1037.51 762.563,1036.42C753.395,1032.1 743.269,1033.41 733.113,1035.95C722.418,1038.62 711.685,1042.69 701.9,1043.8C701.693,1043.82 701.484,1043.81 701.28,1043.77ZM701.929,1039.84C711.429,1038.68 721.808,1034.73 732.16,1032.14C743.222,1029.37 754.248,1028.16 764.234,1032.86C766.206,1033.79 768.997,1034.18 772.199,1034.43C775.352,1034.68 778.877,1034.77 782.464,1034.95C770.091,1026.03 768.187,1024.67 749.221,1020.03C741.506,1018.14 737.801,1019.4 731.732,1021.29C725.447,1023.24 716.808,1025.86 699.696,1026.8C699.879,1029.7 700.083,1033.56 700.734,1036.57C700.968,1037.65 701.25,1038.61 701.641,1039.33C701.747,1039.52 701.814,1039.72 701.929,1039.84Z" style="fill:rgb(250,249,246);"/>
                    </g>
                    <g transform="matrix(1,0,0,1,-1343.57,-1238)">
                        <path d="M651.57,1064.31C652.642,1064.46 653.386,1065.46 653.231,1066.53C653.075,1067.6 652.079,1068.35 651.006,1068.19C627.541,1064.79 626.186,1066.22 615.972,1067.85C606.039,1069.43 600.346,1077.27 597.631,1080.37C596.917,1081.19 595.676,1081.27 594.86,1080.56C594.045,1079.84 593.963,1078.6 594.676,1077.79C597.716,1074.31 604.232,1065.74 615.356,1063.97C625.914,1062.29 627.314,1060.79 651.57,1064.31Z" style="fill:rgb(250,249,246);"/>
                    </g>
                    <g transform="matrix(1,0,0,1,-1343.57,-1238)">
                        <path d="M712.293,1056.33C711.411,1056.96 710.184,1056.76 709.556,1055.87C708.928,1054.99 709.134,1053.76 710.017,1053.13C721.754,1044.78 721.598,1043.81 735.969,1042.17C752.395,1040.29 755.933,1038.47 777.422,1050.47C778.368,1051 778.707,1052.2 778.179,1053.14C777.65,1054.09 776.453,1054.43 775.507,1053.9C755.242,1042.58 751.906,1044.3 736.415,1046.07C723.043,1047.6 723.215,1048.56 712.293,1056.33Z" style="fill:rgb(250,249,246);"/>
                    </g>
                    <g id="right-eye" transform="matrix(1,0,0,1,-1343.57,-1238)">
                        <path d="M715.555,1067.36C729.444,1070.26 738.113,1069.71 750.751,1068.85C752.383,1068.74 752.639,1068.72 768.638,1058.95C747.03,1052.89 740.055,1049.62 731.869,1055.07C727.736,1057.82 723.019,1059.24 715.555,1067.36Z" style="fill:none;"/>
                        <clipPath id="_clip3">
                            <path d="M715.555,1067.36C729.444,1070.26 738.113,1069.71 750.751,1068.85C752.383,1068.74 752.639,1068.72 768.638,1058.95C747.03,1052.89 740.055,1049.62 731.869,1055.07C727.736,1057.82 723.019,1059.24 715.555,1067.36Z"/>
                        </clipPath>
                        <g clip-path="url(#_clip3)">
                            <g id="right-eye-pupil" transform="matrix(1.27056,0,0,1.08638,-200.784,-88.012)">
                                <ellipse cx="738.458" cy="1054.32" rx="7.116" ry="5.567" style="fill:rgb(250,249,246);stroke:rgb(250,249,246);stroke-width:1.59px;"/>
                            </g>
                        </g>
                        <path d="M714.11,1066.03C721.745,1057.72 726.553,1056.25 730.781,1053.44C735.307,1050.42 739.49,1049.77 745.537,1050.76C751.055,1051.66 758.267,1054.01 769.168,1057.07C769.92,1057.28 770.475,1057.91 770.582,1058.69C770.689,1059.46 770.327,1060.22 769.661,1060.63C759.967,1066.55 755.994,1068.92 754.012,1069.9C752.306,1070.74 751.735,1070.75 750.884,1070.81C738.054,1071.68 729.253,1072.22 715.154,1069.28C714.463,1069.13 713.902,1068.63 713.686,1067.96C713.47,1067.28 713.632,1066.55 714.11,1066.03ZM719.494,1066.12C731.185,1068.19 739.28,1067.66 750.618,1066.89C751.254,1066.85 751.599,1066.77 753.365,1065.8C755.225,1064.79 758.3,1062.95 763.783,1059.62C755.435,1057.21 749.557,1055.39 744.903,1054.63C740.015,1053.83 736.617,1054.27 732.958,1056.7C729.4,1059.07 725.386,1060.41 719.494,1066.12Z" style="fill:rgb(250,249,246);"/>
                    </g>
                    <g id="left-eye" transform="matrix(1,0,0,1,-1343.57,-1238)">
                        <path d="M646.884,1076.67C631.437,1074.3 612.682,1063.7 605.273,1078.76C604.846,1079.63 594.707,1091.59 605.02,1093.38C623.255,1096.55 644.639,1079.82 646.884,1076.67Z" style="fill:none;"/>
                        <clipPath id="_clip4">
                            <path d="M646.884,1076.67C631.437,1074.3 612.682,1063.7 605.273,1078.76C604.846,1079.63 594.707,1091.59 605.02,1093.38C623.255,1096.55 644.639,1079.82 646.884,1076.67Z"/>
                        </clipPath>
                        <g clip-path="url(#_clip4)">
                            <g id="pupil-left" transform="matrix(1,0,0,1,1.88752,-7.35653)">
                                <ellipse cx="616.778" cy="1083.02" rx="10.068" ry="7.472" style="fill:rgb(250,249,246);stroke:rgb(250,249,246);stroke-width:1.88px;"/>
                            </g>
                        </g>
                        <path d="M648.481,1077.82C647.304,1079.46 641.158,1084.75 632.866,1089.13C624.597,1093.5 614.22,1096.98 604.684,1095.32C601.915,1094.84 600.308,1093.69 599.411,1092.35C598.468,1090.93 598.256,1089.2 598.601,1087.35C599.373,1083.24 603.242,1078.44 603.512,1077.9C607.656,1069.47 614.897,1068.05 623.338,1069.24C630.891,1070.3 639.451,1073.55 647.182,1074.73C647.856,1074.84 648.428,1075.28 648.693,1075.91C648.958,1076.54 648.877,1077.26 648.481,1077.82ZM642.828,1077.9C636.164,1076.45 629.123,1074.02 622.79,1073.13C616.14,1072.19 610.3,1072.99 607.035,1079.63C606.826,1080.06 604.22,1083.19 602.947,1086.44C602.421,1087.79 602.002,1089.16 602.679,1090.17C603.118,1090.83 603.998,1091.21 605.356,1091.45C614.055,1092.96 623.487,1089.65 631.03,1085.66C636.071,1083 640.279,1080.03 642.828,1077.9Z" style="fill:rgb(250,249,246);"/>
                    </g>
                    <g transform="matrix(1,0,0,1,-1343.57,-1238)">
                        <path d="M649.627,1051.7C596.242,1046.74 596.909,1053.63 583.678,1071.9C585.538,1050.78 580.858,1044.05 601.616,1040.07C624.318,1035.71 624.462,1037.14 645.964,1037.28C647.278,1044.76 649.203,1050.52 649.627,1051.7Z" style="fill:rgb(250,249,246);"/>
                        <path d="M649.445,1053.65C633.581,1052.18 622.536,1051.75 614.492,1052.38C606.842,1052.97 602.029,1054.51 598.359,1057.08C593.323,1060.6 590.4,1065.96 585.268,1073.05C584.75,1073.77 583.819,1074.05 582.991,1073.74C582.164,1073.43 581.645,1072.61 581.723,1071.73C582.374,1064.33 582.224,1058.69 582.645,1054.33C583.124,1049.34 584.366,1045.84 587.715,1043.17C590.401,1041.03 594.587,1039.41 601.247,1038.14C624.144,1033.75 624.289,1035.18 645.976,1035.32C646.925,1035.32 647.733,1036 647.897,1036.94C649.182,1044.25 651.06,1049.88 651.474,1051.03C651.701,1051.66 651.59,1052.37 651.179,1052.9C650.768,1053.43 650.114,1053.71 649.445,1053.65ZM646.844,1049.47C646.124,1047.09 645.147,1043.48 644.327,1039.23C624.612,1039.04 623.905,1037.79 601.986,1041.99C596.191,1043.11 592.501,1044.38 590.163,1046.24C587.649,1048.25 586.913,1050.96 586.553,1054.7C586.277,1057.57 586.248,1061 586.075,1065.11C589.418,1060.34 592.19,1056.6 596.107,1053.86C600.228,1050.97 605.596,1049.13 614.187,1048.46C621.874,1047.87 632.251,1048.19 646.844,1049.47Z" style="fill:rgb(250,249,246);"/>
                    </g>
                </g>
                <g id="ribs" transform="matrix(1.10045,0,0,1.08062,29.6546,-0.509786)">
                    <path d="M-783.192,552.661C-781.787,551.304 -713.944,485.436 -695.8,483.421C-695.519,494.804 -695.399,495.025 -696.204,495.572C-715.744,508.852 -762.239,541.759 -775.974,555.833C-778.599,558.522 -781.958,553.684 -783.192,552.661Z" style="fill:rgb(250,249,246);"/>
                    <g transform="matrix(0.689042,0,0,0.768963,-237.629,35.9845)">
                        <path d="M-783.192,552.661C-781.787,551.304 -713.944,485.436 -695.8,483.421C-684.138,491.023 -683.632,494.419 -684.437,494.965C-703.977,508.246 -757.983,546.94 -771.718,561.013C-774.343,563.703 -781.958,553.684 -783.192,552.661Z" style="fill:rgb(250,249,246);"/>
                    </g>
                    <g transform="matrix(0.326636,0.468225,-0.647866,0.451955,-247.667,548.308)">
                        <path d="M-737.55,537.751C-738.623,531.108 -746.957,499.635 -695.8,483.421C-684.138,491.023 -683.17,502.765 -683.975,503.312C-703.516,516.592 -714.231,525.537 -727.966,539.61C-730.591,542.3 -734.539,539.248 -737.55,537.751Z" style="fill:rgb(250,249,246);"/>
                    </g>
                    <g transform="matrix(0.647073,0.927563,-1.39064,0.970117,329.666,659.296)">
                        <path d="M-737.448,531.513C-734.273,526.693 -726.307,502.885 -689.073,484.429C-677.411,492.032 -683.645,494.418 -684.45,494.964C-703.99,508.244 -721.572,525.396 -727.002,543.683C-727.937,546.831 -734.437,533.01 -737.448,531.513Z" style="fill:rgb(250,249,246);"/>
                    </g>
                    <g transform="matrix(0.647073,0.927563,-1.39064,0.970117,326.265,702.076)">
                        <path d="M-738.902,554.252C-735.726,549.432 -726.307,502.885 -689.073,484.429C-677.411,492.032 -683.645,494.418 -684.45,494.964C-703.99,508.244 -719.16,534.045 -724.591,552.332C-725.526,555.48 -735.89,555.749 -738.902,554.252Z" style="fill:rgb(250,249,246);"/>
                    </g>
                    <g transform="matrix(0.687135,0.984991,-1.0405,0.725855,190.054,909.8)">
                        <path d="M-737.615,554.065C-734.44,549.245 -735.729,505.641 -698.494,487.185C-686.833,494.787 -692.614,498.861 -694.102,499.997C-711.166,513.025 -716.266,536.643 -721.697,554.93C-722.631,558.078 -734.604,555.562 -737.615,554.065Z" style="fill:rgb(250,249,246);"/>
                    </g>
                    <g transform="matrix(0.583934,0.837055,-0.843759,0.588611,20.5434,913.423)">
                        <path d="M-734.59,550.751C-731.415,545.93 -718.912,502.354 -698.494,487.185C-686.833,494.787 -692.96,498.519 -694.102,499.997C-706.851,516.507 -717.065,538.579 -722.496,556.865C-723.431,560.013 -731.579,552.248 -734.59,550.751Z" style="fill:rgb(250,249,246);"/>
                    </g>
                    <g transform="matrix(0.470591,0.674581,-0.691938,0.482699,-135.551,889.045)">
                        <path d="M-734.59,550.751C-731.415,545.93 -718.912,502.354 -698.494,487.185C-686.833,494.787 -692.96,498.519 -694.102,499.997C-706.851,516.507 -717.065,538.579 -722.496,556.865C-723.431,560.013 -731.579,552.248 -734.59,550.751Z" style="fill:rgb(250,249,246);"/>
                    </g>
                    <g transform="matrix(0.388603,0.557053,-0.565546,0.394528,-253.094,883.842)">
                        <path d="M-734.59,550.751C-731.415,545.93 -718.912,502.354 -698.494,487.185C-686.833,494.787 -692.96,498.519 -694.102,499.997C-706.851,516.507 -717.065,538.579 -722.496,556.865C-723.431,560.013 -731.579,552.248 -734.59,550.751Z" style="fill:rgb(250,249,246);"/>
                    </g>
                    <g transform="matrix(0.334829,0.479969,-0.50476,0.352123,-323.447,884.941)">
                        <path d="M-734.59,550.751C-731.415,545.93 -718.912,502.354 -698.494,487.185C-686.833,494.787 -692.96,498.519 -694.102,499.997C-706.851,516.507 -717.065,538.579 -722.496,556.865C-723.431,560.013 -731.579,552.248 -734.59,550.751Z" style="fill:rgb(250,249,246);"/>
                    </g>
                    <g transform="matrix(1,0,0,1,3.78612,-45.5798)">
                        <path d="M-785.505,553.348C-783.567,545.489 -708.569,483.318 -690.424,481.303C-685.532,489.927 -683.332,493.028 -684.137,493.575C-703.678,506.855 -762.999,544.186 -776.734,558.259C-779.359,560.949 -784.271,554.371 -785.505,553.348Z" style="fill:rgb(250,249,246);"/>
                    </g>
                    <g transform="matrix(0.823801,0,0,0.872216,-142.733,112.759)">
                        <path d="M-782.832,548.423C-781.427,547.067 -713.944,485.436 -695.8,483.421C-695.519,494.804 -695.399,495.025 -696.204,495.572C-715.744,508.852 -758.825,541.962 -772.56,556.036C-775.185,558.725 -781.597,549.447 -782.832,548.423Z" style="fill:rgb(250,249,246);"/>
                    </g>
                    <g transform="matrix(0.615051,0,0,0.689678,-306.831,250.346)">
                        <path d="M-786.751,549.239C-785.345,547.883 -710.629,480.695 -692.485,478.68C-692.204,490.063 -699.118,502.431 -699.922,502.977C-719.463,516.257 -757.833,543.187 -771.568,557.26C-774.193,559.95 -785.516,550.263 -786.751,549.239Z" style="fill:rgb(250,249,246);"/>
                    </g>
                    <g transform="matrix(0.445141,0,0,0.484092,-435.542,391.972)">
                        <path d="M-786.751,549.239C-785.345,547.883 -710.629,480.695 -692.485,478.68C-692.204,490.063 -699.118,502.431 -699.922,502.977C-719.463,516.257 -757.833,543.187 -771.568,557.26C-774.193,559.95 -785.516,550.263 -786.751,549.239Z" style="fill:rgb(250,249,246);"/>
                    </g>
                    <g transform="matrix(0.40689,0,0,0.445727,-466.141,450.23)">
                        <path d="M-786.751,549.239C-785.345,547.883 -710.629,480.695 -692.485,478.68C-692.204,490.063 -699.118,502.431 -699.922,502.977C-719.463,516.257 -757.833,543.187 -771.568,557.26C-774.193,559.95 -785.516,550.263 -786.751,549.239Z" style="fill:rgb(250,249,246);"/>
                    </g>
                    <g transform="matrix(0.196289,0,0,0.168363,-606.912,608.376)">
                        <path d="M-786.751,549.239C-785.345,547.883 -710.629,480.695 -692.485,478.68C-692.204,490.063 -699.118,502.431 -699.922,502.977C-719.463,516.257 -757.833,543.187 -771.568,557.26C-774.193,559.95 -785.516,550.263 -786.751,549.239Z" style="fill:rgb(250,249,246);"/>
                    </g>
                </g>
                <g transform="matrix(1.10045,0,0,1.08062,29.6546,-0.509786)">
                    <path d="M-288.71,616.445C-297.772,688.617 -278.017,1152.03 -296.781,1155.66C-338.35,1163.71 -290.332,1024.66 -293.733,1021.78C-309.485,1008.41 -462.196,829.957 -493.018,820.433C-525.525,810.388 -553.284,895.793 -583.313,920.882C-573.072,889.098 -587.595,894.353 -591.735,898.017C-545.474,782.44 -536.738,763.862 -535.59,761.302C-509.923,704.046 -479.589,686.847 -497.254,668.47C-559.25,603.973 -621.5,464.687 -639.269,382.771C-640.997,374.808 -627.606,12.89 -289.404,122.013C-285.833,123.165 -282.716,383.582 -289.482,422.33C-301.989,493.95 -328.69,599.464 -288.71,616.445ZM-497.282,568.678C-500.324,543.471 -546.898,452.517 -556.797,448.557C-574.821,441.348 -561.135,463.68 -560.438,464.817C-558.774,467.533 -556.41,471.405 -553.565,476.072C-535.731,505.332 -498.998,565.846 -497.282,568.678Z" style="fill:rgb(250,249,246);"/>
                    <path d="M-295.694,1022.83C-308.741,1010.97 -385.275,922.735 -440.832,867.068C-455.286,852.585 -468.311,840.316 -478.408,832.206C-484.891,826.999 -490.087,823.519 -493.633,822.423C-499.52,820.604 -505.211,822.347 -510.804,826.313C-516.824,830.582 -522.693,837.377 -528.507,845.444C-546.504,870.417 -563.86,907.345 -581.977,922.481C-582.689,923.076 -583.708,923.128 -584.477,922.61C-585.247,922.091 -585.58,921.126 -585.296,920.243C-582.358,911.125 -581.486,905.206 -581.904,901.465C-582.11,899.617 -582.586,898.434 -583.399,897.81C-584.088,897.281 -584.963,897.254 -585.828,897.391C-587.583,897.669 -589.346,898.685 -590.355,899.577C-591.078,900.217 -592.145,900.276 -592.935,899.721C-593.724,899.165 -594.028,898.139 -593.669,897.243C-547.382,781.6 -538.64,763.011 -537.491,760.449C-522.07,726.049 -504.974,706.085 -497.579,691.646C-494.881,686.377 -493.491,681.94 -494.292,677.762C-494.808,675.066 -496.257,672.513 -498.756,669.914C-560.972,605.187 -623.473,465.42 -641.305,383.212C-641.795,380.956 -641.192,350.598 -632.401,310.496C-619.272,250.606 -587.95,168.915 -515.493,126.906C-463.752,96.907 -390.986,87.047 -288.764,120.03L-288.217,120.295L-287.744,120.722L-287.417,121.223L-287.202,121.766C-286.899,122.733 -286.566,125.398 -286.277,129.509C-283.225,172.96 -281.33,387.755 -287.43,422.688C-294.916,465.554 -307.518,520.59 -307.772,561.42C-307.855,574.792 -306.618,586.616 -303.376,595.927C-300.283,604.808 -295.371,611.352 -287.895,614.528C-287.038,614.892 -286.527,615.781 -286.643,616.705C-293.89,674.421 -282.686,982.439 -287.524,1105.2C-288.38,1126.9 -289.754,1142.87 -291.788,1150.75C-292.383,1153.05 -293.065,1154.74 -293.767,1155.78C-294.565,1156.97 -295.501,1157.53 -296.385,1157.71C-310.134,1160.37 -315.727,1148.95 -315.895,1130.86C-316.181,1100.07 -301.603,1049.7 -296.97,1029.75C-296.278,1026.77 -295.837,1023.83 -295.694,1022.83ZM-297.389,1153.65C-297.304,1153.55 -297.129,1153.31 -297.026,1153.12C-296.591,1152.32 -296.201,1151.17 -295.822,1149.7C-293.828,1141.98 -292.526,1126.31 -291.688,1105.03C-286.887,983.225 -297.841,679.149 -290.957,617.706C-302.619,611.956 -308.744,598.713 -310.94,580.817C-316.034,539.302 -300.323,472.297 -291.535,421.972C-285.455,387.159 -287.392,173.103 -290.434,129.801C-290.618,127.178 -290.929,124.773 -291.084,123.661C-391.237,91.57 -462.608,101.06 -513.404,130.511C-584.745,171.873 -615.405,252.42 -628.331,311.388C-636.911,350.525 -637.711,380.127 -637.234,382.329C-619.527,463.954 -557.527,602.759 -495.752,667.026C-492.598,670.307 -490.852,673.575 -490.199,676.977C-489.247,681.946 -490.661,687.279 -493.871,693.546C-501.245,707.945 -518.31,727.847 -533.689,762.154C-534.819,764.673 -543.3,782.715 -587.7,893.544C-587.296,893.431 -586.888,893.34 -586.48,893.276C-584.462,892.956 -582.469,893.271 -580.862,894.504C-579.38,895.642 -578.138,897.635 -577.763,901.003C-577.433,903.963 -577.771,908.185 -579.205,914.077C-563.255,896.987 -547.876,865.194 -531.887,843.008C-525.768,834.518 -519.549,827.407 -513.214,822.914C-506.452,818.119 -499.52,816.243 -492.403,818.442C-489.48,819.346 -485.495,821.656 -480.689,825.187C-469.991,833.047 -454.914,847.059 -437.882,864.125C-381.466,920.653 -303.402,1010.84 -292.384,1020.19L-292.042,1020.55L-291.744,1021.06L-291.504,1021.99C-291.396,1022.98 -291.714,1025.3 -292.451,1028.66C-295.76,1043.73 -307.007,1082.29 -310.617,1113.09C-312.087,1125.62 -312.315,1136.84 -310.098,1144.53C-308.925,1148.6 -307.102,1151.63 -304.199,1153.04C-302.35,1153.94 -300.096,1154.15 -297.389,1153.65ZM-499.065,569.757C-500.78,566.925 -537.511,506.414 -555.344,477.157C-558.188,472.491 -560.551,468.62 -562.215,465.905C-562.58,465.309 -566.336,459.144 -567.654,454.082C-568.117,452.304 -568.276,450.637 -568.036,449.3C-567.816,448.078 -567.284,447.076 -566.448,446.336C-565.654,445.633 -564.553,445.137 -563.03,445.055C-561.399,444.968 -559.112,445.387 -556.023,446.623C-554.944,447.054 -553.442,448.265 -551.714,450.268C-548.332,454.19 -543.618,461.388 -538.351,470.437C-520.935,500.358 -497.36,550.644 -495.214,568.429C-495.097,569.403 -495.675,570.327 -496.603,570.648C-497.531,570.968 -498.556,570.597 -499.065,569.757ZM-502.707,555.725C-510.175,533.224 -528.091,496.347 -541.952,472.533C-546.338,464.997 -550.317,458.776 -553.434,454.753C-555.215,452.455 -556.566,450.893 -557.571,450.491C-559.551,449.699 -561.089,449.287 -562.276,449.219C-562.918,449.182 -563.392,449.195 -563.687,449.457C-563.922,449.665 -563.95,450.004 -563.975,450.374C-564.028,451.156 -563.873,452.067 -563.622,453.032C-562.428,457.618 -558.993,463.188 -558.662,463.728C-556.997,466.445 -554.632,470.319 -551.786,474.988C-538.483,496.814 -514.664,536.03 -502.707,555.725Z" style="fill:rgb(22,22,22);"/>
                </g>
                <g id="shade" transform="matrix(1.10045,0,0,1.08062,29.6546,-0.509786)">
                    <path d="M-501.697,659.692C-449.151,699.674 -457.068,708.799 -352.04,787.013C-343.057,793.702 -291.836,839.934 -289.245,841.706C-288.144,828.122 -281.54,824.04 -294.205,818.683C-295.958,817.942 -473.728,676.454 -528.472,610.334C-550.112,584.198 -547.447,582.768 -566.411,554.443C-575.344,541.101 -599.95,476.897 -603.028,470.464C-626.167,422.098 -636.283,347.831 -617.313,264.265C-617.81,265.654 -641.49,331.315 -639.611,369.769C-637.176,419.589 -611.141,483.361 -577.383,553.784C-570.942,567.221 -519.883,648.743 -489.862,668.987" style="fill:rgb(22,22,22);"/>
                    <path d="M-293.211,816.842C-288.945,818.67 -286.691,820.482 -285.553,822.38C-284.297,824.476 -284.245,826.781 -284.825,829.685C-285.429,832.709 -286.736,836.545 -287.168,841.874C-287.228,842.614 -287.677,843.266 -288.347,843.586C-289.018,843.906 -289.807,843.845 -290.42,843.426C-293.014,841.652 -344.292,795.38 -353.284,788.684C-449.662,716.912 -450.944,703.311 -491.094,670.669C-493.614,668.963 -496.282,666.831 -499.058,664.347C-500.321,663.367 -501.62,662.368 -502.958,661.35C-503.436,660.987 -503.712,660.457 -503.769,659.903C-533.915,630.111 -573.616,566.461 -579.261,554.684C-613.162,483.964 -639.247,419.901 -641.692,369.871C-643.585,331.127 -619.775,264.962 -619.274,263.562C-618.902,262.525 -617.788,261.956 -616.73,262.264C-615.672,262.573 -615.037,263.651 -615.281,264.726C-634.126,347.74 -624.135,421.519 -601.149,469.565C-598.081,475.977 -573.584,539.985 -564.68,553.284C-545.776,581.52 -548.439,582.951 -526.867,609.005C-477.668,668.428 -328.949,788.795 -298.424,812.817C-295.731,814.936 -293.605,816.545 -293.211,816.842ZM-496.69,660.91C-493.817,663.138 -491.133,665.27 -488.602,667.327C-488.564,667.357 -488.527,667.387 -488.49,667.418C-448.431,700.005 -447.085,713.635 -350.796,785.342C-342.875,791.24 -302.091,827.913 -290.843,837.66C-290.249,834.056 -289.381,831.224 -288.911,828.868C-288.567,827.147 -288.383,825.765 -289.127,824.522C-289.974,823.11 -291.801,821.962 -295.017,820.602C-295.206,820.522 -297.335,818.976 -301.001,816.091C-331.614,792 -480.736,671.256 -530.077,611.662C-551.784,585.444 -549.119,584.016 -568.142,555.602C-577.105,542.216 -601.82,477.817 -604.908,471.363C-625.121,429.112 -635.505,367.229 -625.416,296.626C-631.757,318.927 -638.566,348.463 -637.53,369.667C-635.106,419.276 -609.119,482.759 -575.504,552.883C-569.654,565.088 -526.762,633.919 -496.69,660.91Z" style="fill:rgb(22,22,22);"/>
                </g>
                <g transform="matrix(1.10045,0,0,1.08062,29.6546,-0.509786)">
                    <path d="M-497.201,665.198C-472.554,678.077 -485.653,697.216 -466.892,729.332C-463.165,735.712 -486.728,760.898 -481.432,768.136C-470.927,782.491 -323.487,942.7 -318.462,946.413C-315.433,948.652 -302.938,925.138 -296.82,892.573C-292.77,871.014 -295.805,839.397 -290.814,830.549C-287.969,841.506 -293.33,867.846 -289.938,973.365C-286.384,1083.96 -301.146,1157.15 -310.387,1145.97C-318.724,1097.9 -293.141,1031.91 -296.226,1023.98C-304.426,1002.88 -405.545,903.695 -412.352,897.527C-454.187,859.622 -497.805,816.571 -504.866,817.581C-516.746,819.28 -574.343,911.455 -582.969,922.684C-583.274,912.018 -581.312,905.274 -584.176,895.002C-585.849,897.173 -587.523,899.344 -589.196,901.515C-588.238,891.655 -586.699,892.549 -583.104,883.207C-573.461,858.147 -556.555,806.511 -535.626,761.071C-517.11,720.869 -493.923,685.341 -492.018,679.929L-497.201,665.198Z" style="fill:rgb(22,22,22);"/>
                    <path d="M-317.933,944.104C-317.345,943.471 -316.239,942.212 -315.377,940.826C-310.354,932.749 -303.087,914.648 -298.868,892.189C-296.454,879.341 -296.588,862.898 -295.999,849.901C-295.584,840.751 -294.722,833.237 -292.628,829.525C-292.211,828.786 -291.386,828.373 -290.544,828.483C-289.702,828.593 -289.011,829.203 -288.797,830.026C-287.913,833.432 -287.756,838.271 -287.928,846.331C-288.315,864.465 -290.228,899.499 -287.856,973.298C-284.995,1062.31 -294.065,1127.22 -302.513,1143.87C-303.579,1145.97 -304.688,1147.4 -305.724,1148.19C-306.802,1149.01 -307.89,1149.28 -308.928,1149.15C-309.959,1149.02 -311.023,1148.47 -311.993,1147.3C-312.224,1147.02 -312.378,1146.68 -312.44,1146.33C-318.323,1112.4 -307.514,1069.62 -301.528,1044.26C-300.02,1037.88 -298.824,1032.62 -298.309,1028.92C-298.031,1026.93 -297.871,1025.5 -298.168,1024.73C-300.587,1018.51 -311.294,1005.42 -325.19,989.917C-358.105,953.194 -408.994,903.381 -413.75,899.071C-443.007,872.563 -473.135,843.534 -490.999,828.849C-495.484,825.162 -499.172,822.393 -501.855,820.838C-502.645,820.38 -503.334,820.035 -503.918,819.823C-504.191,819.724 -504.4,819.619 -504.571,819.643C-505.272,819.744 -506.136,820.365 -507.234,821.256C-509.391,823.006 -512.073,825.833 -515.135,829.435C-536.22,854.239 -574.422,914.978 -581.317,923.953C-581.854,924.652 -582.772,924.937 -583.611,924.666C-584.449,924.394 -585.026,923.624 -585.051,922.743C-585.307,913.802 -583.901,907.667 -585.234,899.788L-587.546,902.787C-588.113,903.522 -589.098,903.794 -589.962,903.452C-590.826,903.11 -591.359,902.238 -591.269,901.314C-590.284,891.168 -588.748,892.072 -585.049,882.458C-575.395,857.373 -558.469,805.685 -537.519,760.2C-519.659,721.424 -497.429,687.015 -494.245,679.879L-499.166,665.89C-499.45,665.082 -499.211,664.184 -498.565,663.623C-497.918,663.063 -496.994,662.956 -496.236,663.352C-483.187,670.17 -480.077,678.608 -477.799,689.629C-475.683,699.869 -474.321,712.484 -465.093,728.281C-464.308,729.625 -464.191,731.56 -464.864,733.92C-466.018,737.962 -469.521,743.702 -472.96,749.478C-475.725,754.121 -478.444,758.791 -479.605,762.549C-479.934,763.612 -480.135,764.586 -480.128,765.446C-480.123,766.012 -480.037,766.513 -479.751,766.905C-469.556,780.837 -330.061,932.527 -317.933,944.104ZM-585.381,893.302C-584.923,892.977 -584.345,892.846 -583.778,892.957C-583.004,893.107 -582.381,893.682 -582.169,894.442C-579.884,902.639 -580.584,908.628 -580.844,916.062C-568.739,898.288 -536.887,848.592 -518.31,826.737C-514.467,822.217 -511.153,818.86 -508.673,817.121C-507.31,816.165 -506.112,815.655 -505.161,815.519C-504.483,815.422 -503.584,815.512 -502.498,815.906C-500.796,816.523 -498.356,817.979 -495.324,820.183C-479.172,831.924 -444.487,865.599 -410.953,895.984C-406.18,900.308 -355.114,950.288 -322.088,987.136C-307.724,1003.16 -296.785,1016.79 -294.284,1023.22C-293.932,1024.13 -293.79,1025.63 -293.969,1027.66C-294.304,1031.45 -295.661,1037.55 -297.473,1045.22C-303.324,1070 -313.983,1111.69 -308.445,1144.96L-308.434,1144.97C-308.256,1144.83 -307.686,1144.35 -307.323,1143.84C-306.959,1143.33 -306.596,1142.71 -306.229,1141.99C-297.882,1125.54 -289.194,1061.38 -292.021,973.432C-293.463,928.564 -293.324,898 -292.906,876.843C-293.276,882.481 -293.838,887.985 -294.773,892.958C-299.759,919.501 -308.999,940.109 -314.037,946.136C-315.075,947.378 -316.043,948.101 -316.789,948.399L-317.424,948.588L-318.168,948.64L-318.97,948.479L-319.7,948.089C-324.738,944.366 -472.581,783.758 -483.113,769.366C-484.49,767.485 -484.626,764.683 -483.586,761.318C-482.347,757.308 -479.491,752.302 -476.54,747.346C-473.745,742.651 -470.868,738.001 -469.417,734.353C-469,733.302 -468.704,732.352 -468.605,731.526C-468.551,731.071 -468.518,730.679 -468.691,730.382C-478.224,714.063 -479.694,701.051 -481.88,690.473C-483.583,682.23 -485.738,675.563 -493.287,670.046L-490.053,679.237C-489.896,679.685 -489.896,680.173 -490.053,680.62C-491.962,686.044 -515.179,721.656 -533.734,761.943C-554.641,807.336 -571.526,858.92 -581.16,883.955C-583.085,888.956 -584.417,890.931 -585.381,893.302Z" style="fill:rgb(22,22,22);"/>
                </g>
                <g id="chair-ribs" transform="matrix(1.13142,0,0,1.11102,460.543,-229.033)">
                    <g transform="matrix(1.06402,0,0,1.10515,56.8446,26.2048)">
                        <path d="M-783.192,552.661C-781.787,551.304 -713.944,485.436 -695.8,483.421C-695.519,494.804 -697.783,495.684 -698.587,496.231C-718.128,509.511 -762.239,541.759 -775.974,555.833C-778.599,558.522 -781.958,553.684 -783.192,552.661Z" style="fill:rgb(22,22,22);"/>
                    </g>
                    <g transform="matrix(1.28683,0,0,1.2969,228.643,-133.362)">
                        <path d="M-783.192,552.661C-781.787,551.304 -713.944,485.436 -695.8,483.421C-695.519,494.804 -696.567,495.025 -697.371,495.572C-716.912,508.852 -762.239,541.759 -775.974,555.833C-778.599,558.522 -781.958,553.684 -783.192,552.661Z" style="fill:rgb(22,22,22);"/>
                    </g>
                    <g transform="matrix(0.828244,0,0,0.881995,-142.011,-20.2492)">
                        <path d="M-783.192,552.661C-781.787,551.304 -714.842,486.837 -696.697,484.822C-685.035,492.425 -680.116,489.435 -680.921,489.982C-700.462,503.262 -757.983,546.94 -771.718,561.013C-774.343,563.703 -781.958,553.684 -783.192,552.661Z" style="fill:rgb(22,22,22);"/>
                    </g>
                    <g transform="matrix(0.240852,0.517606,-0.716193,0.333258,-292.679,643.195)">
                        <path d="M-741.431,538.893C-742.503,532.25 -746.957,499.635 -695.8,483.421C-684.138,491.023 -683.17,502.765 -683.975,503.312C-703.516,516.592 -718.612,531.269 -732.347,545.342C-734.971,548.032 -738.419,540.39 -741.431,538.893Z" style="fill:rgb(22,22,22);"/>
                    </g>
                    <g transform="matrix(0.462459,1.03209,-1.54735,0.693336,268.082,883.537)">
                        <path d="M-739.414,533.926C-736.239,529.106 -726.307,502.885 -689.073,484.429C-677.411,492.032 -683.645,494.418 -684.45,494.964C-703.99,508.244 -721.572,525.396 -727.002,543.683C-727.937,546.831 -736.403,535.423 -739.414,533.926Z" style="fill:rgb(22,22,22);"/>
                    </g>
                    <g transform="matrix(0.501787,1.00673,-1.50401,0.749644,277.846,893.784)">
                        <path d="M-737.903,552.335C-734.727,547.515 -726.307,502.885 -689.073,484.429C-677.411,492.032 -683.645,494.418 -684.45,494.964C-703.99,508.244 -715.717,532.149 -721.148,550.436C-722.083,553.584 -734.891,553.832 -737.903,552.335Z" style="fill:rgb(22,22,22);"/>
                    </g>
                    <g transform="matrix(0.772575,1.10747,-0.975642,0.680613,222.178,1061.64)">
                        <path d="M-741.72,552.647C-738.544,547.827 -735.729,505.641 -698.494,487.185C-686.833,494.787 -692.614,498.861 -694.102,499.997C-711.166,513.025 -722.209,535.77 -727.64,554.057C-728.575,557.205 -738.708,554.144 -741.72,552.647Z" style="fill:rgb(22,22,22);"/>
                    </g>
                    <g transform="matrix(0.583934,0.837055,-0.843759,0.588611,28.7425,964.26)">
                        <path d="M-736.103,545.496C-732.928,540.675 -715.432,503.952 -695.014,488.782C-683.352,496.385 -688.143,500.862 -689.285,502.34C-702.034,518.85 -713.723,530.743 -719.153,549.03C-720.088,552.178 -733.092,546.993 -736.103,545.496Z" style="fill:rgb(22,22,22);"/>
                    </g>
                    <g transform="matrix(0.470591,0.674581,-0.691938,0.482699,-116.497,953.831)">
                        <path d="M-736.777,546.617C-733.601,541.797 -718.444,509.089 -698.026,493.92C-686.364,501.522 -692.014,505.861 -693.155,507.339C-705.905,523.849 -720.607,553.593 -720.607,553.593C-720.607,553.593 -733.765,548.114 -736.777,546.617Z" style="fill:rgb(22,22,22);"/>
                    </g>
                    <g transform="matrix(0.334829,0.479969,-0.50476,0.352123,-302.886,933.115)">
                        <path d="M-742.055,546.909C-738.879,542.088 -718.912,502.354 -698.494,487.185C-686.833,494.787 -687.545,502.341 -688.687,503.819C-701.436,520.329 -717.065,538.579 -722.496,556.865C-723.431,560.013 -739.043,548.406 -742.055,546.909Z" style="fill:rgb(22,22,22);"/>
                    </g>
                    <g transform="matrix(0.388679,0.557162,-0.433813,0.30263,-292.891,1055.41)">
                        <path d="M-740.105,558.898C-736.929,554.078 -718.912,502.354 -698.494,487.185C-686.833,494.787 -699.297,524.766 -700.439,526.244C-713.188,542.754 -705.412,529.209 -710.843,547.496C-711.777,550.644 -737.093,560.395 -740.105,558.898Z" style="fill:rgb(22,22,22);"/>
                    </g>
                    <g transform="matrix(1.24181,0,0,1.27159,189.589,-176.355)">
                        <path d="M-785.505,553.348C-783.567,545.489 -708.569,483.318 -690.424,481.303C-685.532,489.927 -683.332,493.028 -684.137,493.575C-703.678,506.855 -762.999,544.186 -776.734,558.259C-779.359,560.949 -784.271,554.371 -785.505,553.348Z" style="fill:rgb(22,22,22);"/>
                    </g>
                    <g transform="matrix(0.907535,0,0,0.988383,-63.4677,144.339)">
                        <path d="M-782.832,548.423C-781.427,547.067 -718.211,486.477 -700.067,484.462C-699.785,495.845 -702.24,497.28 -703.045,497.827C-722.585,511.107 -758.825,541.962 -772.56,556.036C-775.185,558.725 -781.597,549.447 -782.832,548.423Z" style="fill:rgb(22,22,22);"/>
                    </g>
                    <g transform="matrix(0.684171,0,0,0.755255,-232.856,320.828)">
                        <path d="M-786.751,549.239C-785.345,547.883 -710.629,480.695 -692.485,478.68C-692.204,490.063 -694.192,499.516 -694.997,500.063C-714.537,513.343 -757.833,543.187 -771.568,557.26C-774.193,559.95 -785.516,550.263 -786.751,549.239Z" style="fill:rgb(22,22,22);"/>
                    </g>
                    <g transform="matrix(0.595017,0,0,0.659101,-296.834,417.206)">
                        <path d="M-786.751,549.239C-785.345,547.883 -710.629,480.695 -692.485,478.68C-692.204,490.063 -690.159,501.177 -690.964,501.723C-710.504,515.003 -757.833,543.187 -771.568,557.26C-774.193,559.95 -785.516,550.263 -786.751,549.239Z" style="fill:rgb(22,22,22);"/>
                    </g>
                    <g transform="matrix(0.208561,0,0,0.201118,-562.579,680.307)">
                        <path d="M-786.751,549.239C-785.345,547.883 -710.629,480.695 -692.485,478.68C-692.204,490.063 -699.118,502.431 -699.922,502.977C-719.463,516.257 -757.833,543.187 -771.568,557.26C-774.193,559.95 -785.516,550.263 -786.751,549.239Z" style="fill:rgb(22,22,22);"/>
                    </g>
                </g>
                <g transform="matrix(1.10045,0,0,1.08062,27.991,-0.366585)">
                    <path d="M-451.502,623.76C-451.416,624.906 -452.276,625.907 -453.423,625.993C-454.57,626.079 -455.57,625.218 -455.657,624.072C-459.672,570.612 -470.397,557.638 -474.833,527.563C-475.805,520.966 -514.028,420.873 -562.297,369.336C-563.61,367.934 -564.408,365.391 -564.344,361.819C-564.22,354.983 -561.153,343.761 -555.424,330.389C-536.583,286.415 -488.998,218.84 -426.956,207.998C-345.006,193.677 -308.801,215.92 -294.12,232.214C-287.489,239.573 -285.137,245.901 -284.86,247.599C-281.614,267.53 -288.983,298.389 -298.932,334.735C-313.659,388.53 -333.942,454.535 -332.318,514.745C-331.292,552.799 -335.914,575.692 -332.53,590.663C-332.276,591.784 -332.981,592.901 -334.102,593.154C-335.224,593.408 -336.34,592.703 -336.594,591.582C-340.014,576.452 -335.446,553.316 -336.483,514.857C-338.118,454.246 -317.776,387.788 -302.951,333.635C-293.2,298.014 -285.791,267.802 -288.973,248.269C-289.213,246.792 -291.448,241.404 -297.215,235.003C-311.463,219.19 -346.707,198.204 -426.239,212.103C-486.898,222.703 -533.173,289.035 -551.594,332.03C-556.286,342.983 -559.167,352.409 -559.963,358.994C-560.209,361.028 -560.255,362.769 -560.068,364.172C-559.931,365.191 -559.718,365.994 -559.256,366.488C-510.324,418.733 -471.697,520.268 -470.711,526.955C-466.262,557.121 -455.529,570.139 -451.502,623.76Z" style="fill:rgb(22,22,22);"/>
                </g>
            </g>
        </g>
    </g>
</svg>
