<?xml version="1.0" encoding="UTF-8" standalone="no"?>
<!DOCTYPE svg PUBLIC "-//W3C//DTD SVG 1.1//EN" "http://www.w3.org/Graphics/SVG/1.1/DTD/svg11.dtd">
<svg width="100%" height="100%" viewBox="0 0 716 991" version="1.1" xmlns="http://www.w3.org/2000/svg" xmlns:xlink="http://www.w3.org/1999/xlink" xml:space="preserve" xmlns:serif="http://www.serif.com/" style="fill-rule:evenodd;clip-rule:evenodd;stroke-linejoin:round;stroke-miterlimit:2;">
    <g transform="matrix(1,0,0,1,-2658,-2569)">
        <g id="eating-person-2">
        </g>
        <g id="Artboard7" transform="matrix(1,0,0,1,-0.88034,-0.944519)">
            <rect x="2658.88" y="2569.95" width="715.021" height="990.56" style="fill:none;"/>
            <clipPath id="_clip1">
                <rect x="2658.88" y="2569.95" width="715.021" height="990.56"/>
            </clipPath>
            <g clip-path="url(#_clip1)">
                <g transform="matrix(1,0,0,1,0.88034,0.944519)">
                    <path d="M2913.54,3117.68C2757.2,3127.43 2725.27,3235.1 2686.25,3260.34C2674.2,3268.13 2656.05,3273.67 2655.7,3293.07C2654.37,3366.43 2647.78,3469.68 2657.89,3476.68C2667.01,3483 2740.52,3471.94 2785.78,3387.13C2801.96,3356.81 2853.63,3339.85 2877.91,3315.1C2882.01,3323.98 2908.96,3426.42 2947.98,3457.59C2964.93,3471.14 2997.61,3522.2 3011.22,3545.09C3030.71,3577.86 3031.14,3574.98 3068.6,3576.39C3215.46,3581.92 3194.85,3572.26 3341.89,3576.14C3338.62,3489.99 3297.08,3294.06 3244.57,3136.6C3207.16,3024.42 3153.93,3037.84 3131.15,3049.44C3109.46,3060.49 3093.58,3028.06 3070.92,3053.67C3055.14,3071.5 3021.48,3074.44 2913.54,3117.68Z" style="fill:rgb(211,211,211);"/>
                    <path d="M2913.08,3115.63C2977.67,3089.76 3015.62,3078.34 3039.06,3069.5C3054.26,3063.77 3063.22,3059.22 3069.36,3052.29C3075.46,3045.4 3081.14,3042.49 3086.54,3041.7C3091.91,3040.91 3097.04,3042.26 3102.12,3044.14C3105.89,3045.54 3109.64,3047.23 3113.47,3048.4C3118.78,3050.02 3124.25,3050.62 3130.21,3047.59C3141.99,3041.59 3161.66,3035.16 3183.22,3044.7C3204.37,3054.06 3227.56,3079 3246.55,3135.94C3299.12,3293.61 3340.7,3489.8 3343.97,3576.06C3343.99,3576.64 3343.78,3577.19 3343.37,3577.6C3342.97,3578.01 3342.41,3578.24 3341.84,3578.22C3194.78,3574.35 3215.39,3584 3068.52,3578.47C3049.34,3577.75 3039.65,3578.01 3032.25,3574.37C3024.78,3570.7 3019.5,3563.09 3009.43,3546.15C2995.91,3523.42 2963.51,3472.67 2946.68,3459.22C2930.86,3446.58 2916.94,3422.43 2905.74,3397.38C2890.94,3364.28 2880.84,3329.66 2877.09,3318.82C2864.84,3330.32 2846.93,3340.26 2829.9,3350.8C2812.26,3361.71 2795.55,3373.23 2787.62,3388.11C2755.54,3448.22 2709.39,3471.67 2681.45,3478.18C2674.12,3479.89 2668,3480.43 2663.68,3480.19C2660.37,3480 2658,3479.29 2656.71,3478.39C2655.64,3477.66 2654.61,3476.18 2653.81,3473.91C2652.86,3471.21 2652.12,3467.22 2651.58,3462.16C2648.13,3429.74 2652.55,3351.81 2653.61,3293.03C2653.8,3282.59 2658.75,3275.86 2665.3,3270.71C2671.44,3265.89 2679.04,3262.52 2685.12,3258.59C2696.68,3251.11 2707.57,3236.26 2721.38,3218.94C2754.22,3177.74 2803.02,3122.59 2913.08,3115.63ZM2913.67,3119.76C2805.09,3126.53 2757,3180.93 2724.63,3221.54C2710.48,3239.29 2699.23,3254.42 2687.38,3262.09C2681.41,3265.95 2673.91,3269.24 2667.87,3273.99C2662.25,3278.41 2657.94,3284.15 2657.78,3293.11C2656.85,3344.42 2653.34,3410.36 2654.79,3447.71C2655.16,3457.16 2655.83,3464.75 2656.97,3469.76C2657.32,3471.29 2657.7,3472.57 2658.15,3473.55C2658.44,3474.21 2658.71,3474.71 2659.08,3474.97C2659.97,3475.59 2661.64,3475.9 2663.92,3476.03C2667.95,3476.26 2673.66,3475.72 2680.51,3474.12C2707.75,3467.78 2752.65,3444.77 2783.94,3386.15C2792.18,3370.7 2809.4,3358.59 2827.71,3347.25C2845.53,3336.22 2864.38,3325.91 2876.42,3313.64C2876.9,3313.16 2877.59,3312.93 2878.26,3313.05C2878.94,3313.17 2879.51,3313.61 2879.8,3314.23C2882.26,3319.56 2892.95,3358.58 2909.54,3395.67C2920.45,3420.07 2933.88,3443.66 2949.28,3455.97C2966.35,3469.6 2999.3,3520.98 3013.01,3544.02C3022.43,3559.86 3027.11,3567.2 3034.09,3570.63C3041.14,3574.1 3050.4,3573.62 3068.68,3574.31C3214.78,3579.81 3195.12,3570.28 3339.72,3574C3335.84,3486.86 3294.59,3293.17 3242.59,3137.26C3224.17,3082.03 3202.04,3057.59 3181.53,3048.51C3161.43,3039.62 3143.09,3045.7 3132.1,3051.3C3122.81,3056.03 3114.51,3053.48 3106.35,3050.27C3099.85,3047.71 3093.47,3044.68 3086.61,3045.91C3082.14,3046.7 3077.51,3049.36 3072.48,3055.05C3065.99,3062.38 3056.61,3067.34 3040.53,3073.4C3017.07,3082.25 2979.06,3093.68 2914.32,3119.62C2914.11,3119.7 2913.89,3119.75 2913.67,3119.76Z" style="fill:rgb(22,22,22);"/>
                </g>
                <g transform="matrix(1,0,0,1,0.88034,0.944519)">
                    <path d="M2998.65,3298.03C3001.33,3349.55 3012.83,3329.95 3035.11,3373.13C3055.81,3413.27 3096.11,3430.16 3101.46,3433.04C3115.18,3440.42 3144.64,3437.76 3146.87,3433.99C3171.64,3392.09 3166.99,3402.8 3171.45,3349.83C3172.09,3342.23 3164.61,3244.37 3168.13,3228.03C3172.53,3207.6 3174.11,3205.21 3175.24,3203.51C3243.12,3244.56 3268.82,3241.21 3276.68,3248.95C3301.46,3273.35 3349.05,3574.24 3341.87,3574.07C3334.7,3573.9 3036.66,3586.21 3030.11,3573.76C3019.72,3553.99 2969.92,3480.64 2960.22,3475.28C2958.62,3474.39 2921.07,3426.02 2917.46,3419.26C2891.24,3370.17 2878.71,3336.02 2877.4,3314.25C2876.15,3293.47 2945.3,3379.18 2960.76,3334.36C2967.89,3313.7 3000.99,3340.74 2998.65,3298.03Z" style="fill:rgb(22,22,22);"/>
                </g>
                <g id="scarf" transform="matrix(1,0,0,1,0.88034,0.944519)">
                    <path d="M3013.41,3105.09C3006.86,3192.26 2988.14,3231.87 3021.14,3339.11C3049.46,3328.3 3049.24,3326.9 3079.02,3329.75C3097.45,3331.51 3081.68,3160.68 3080.08,3097.18C3079.75,3083.99 3062.45,3072.71 3062.12,3063.06C3060.57,3016.94 3089.35,3013.03 3091.11,3007.86C3099.75,2982.45 3078.93,2903.34 3077.95,2894.59C3072.61,2846.95 3078.45,2844.23 3062.9,2799C3048.56,2757.29 2990.08,2663.95 2891.64,2713.39C2890.69,2713.87 2832.27,2781.3 2829.37,2787.2C2802.43,2842.12 2839.43,2857.8 2823.56,2873.24C2811.12,2885.36 2822.89,2899.3 2821.27,2907.89C2812.41,2954.93 2832.08,2948.86 2822.76,2973.33C2820.82,2978.44 2851.12,3002.47 2840.33,3057.48C2839.33,3062.59 2857.92,3072.21 2881.32,3099.14C2894.34,3114.12 2901.87,3106.82 2904.89,3120.32C2908.84,3137.96 2912.13,3136.77 2913.78,3155.24C2915.78,3177.77 2918.68,3178.17 2910.39,3199.34C2906.61,3209.02 2908.12,3209.38 2870.8,3323.11C2868.36,3330.56 2870.87,3330.24 2869.69,3421.09C2869.37,3445.44 2896.73,3446.35 2899.88,3446.46C2923.88,3447.25 2940.42,3452.15 2949.92,3436.42C2981.01,3384.95 2968.41,3379.93 2979.01,3346.59C2990.09,3311.71 2970.86,3255.23 2989.79,3206.51C2995.11,3192.82 2997.93,3152.81 3014.12,3118.53C3014.66,3117.37 3010.39,3119.53 3013.41,3105.09Z" style="fill:rgb(170,170,170);"/>
                    <path d="M3007.96,3139.83C2998.66,3168.21 2996.01,3196.26 2991.73,3207.27C2982.38,3231.35 2982.49,3257.36 2983.54,3281.65C2984.6,3306.49 2986.59,3329.59 2980.99,3347.22C2976.81,3360.39 2976.3,3369.09 2975.21,3378.04C2973.55,3391.81 2970.62,3406.18 2951.7,3437.5C2946.55,3446.03 2939.52,3449.01 2930.5,3449.71C2922.11,3450.36 2911.9,3448.94 2899.81,3448.54C2898.16,3448.48 2890.16,3448.21 2882.62,3444.76C2874.79,3441.19 2867.43,3434.32 2867.6,3421.07C2868.31,3366.58 2867.69,3344.9 2867.61,3334.67C2867.55,3327.45 2867.79,3325.61 2868.82,3322.46C2906.17,3208.62 2904.66,3208.27 2908.45,3198.58C2916.56,3177.87 2913.67,3177.47 2911.7,3155.43C2910.07,3137.09 2906.78,3138.28 2902.86,3120.77C2902.21,3117.88 2901.38,3116.07 2900.24,3114.83C2899.09,3113.59 2897.67,3112.93 2896.01,3112.18C2891.93,3110.37 2886.56,3108.35 2879.74,3100.5C2863.43,3081.73 2849.45,3071.41 2842.88,3065.15C2840.99,3063.35 2839.66,3061.82 2838.96,3060.54C2838.26,3059.26 2838.09,3058.11 2838.29,3057.08C2846.76,3013.9 2829.4,2990.18 2823.1,2979.85C2821.82,2977.75 2820.98,2976.1 2820.71,2974.92C2820.6,2974.43 2820.57,2973.98 2820.6,2973.58L2820.82,2972.59C2825.2,2961.08 2822.71,2956.76 2820.23,2949.77C2817.51,2942.16 2814.68,2931.64 2819.22,2907.51C2819.58,2905.62 2819.14,2903.44 2818.54,2901.07C2817.85,2898.33 2816.91,2895.36 2816.31,2892.29C2815.01,2885.59 2815.25,2878.43 2822.11,2871.75C2827.79,2866.22 2825.51,2860.64 2822.74,2852.8C2817.98,2839.35 2810.94,2820.05 2827.5,2786.29C2830.12,2780.94 2877.95,2725.41 2888.2,2714.02C2889.15,2712.96 2889.8,2712.26 2890.07,2712L2890.71,2711.53C2990.76,2661.28 3050.3,2755.93 3064.87,2798.32C3080.49,2843.76 3074.65,2846.49 3080.02,2894.36C3080.71,2900.49 3091.12,2941.1 3094.34,2973.64C3095.75,2987.94 3095.74,3000.71 3093.08,3008.53C3092.84,3009.22 3092.37,3009.93 3091.6,3010.64C3090.84,3011.33 3089.73,3012.08 3088.37,3012.93C3084.42,3015.39 3078.06,3018.97 3072.86,3026.39C3067.62,3033.85 3063.61,3045.17 3064.21,3062.99C3064.28,3065.08 3065.33,3067.22 3066.78,3069.49C3068.42,3072.06 3070.59,3074.73 3072.75,3077.51C3077.43,3083.55 3081.99,3090.12 3082.16,3097.13C3083.44,3148 3093.78,3267.66 3088.43,3312.58C3087.59,3319.67 3086.31,3324.97 3084.64,3328.01C3083.06,3330.87 3081.01,3332.03 3078.83,3331.83C3049.52,3329.02 3049.74,3330.43 3021.89,3341.05C3021.35,3341.26 3020.75,3341.23 3020.23,3340.98C3019.71,3340.73 3019.32,3340.27 3019.15,3339.72C2990.77,3247.5 3000.47,3205.13 3007.96,3139.83ZM3009.74,3123.19C3009.99,3120.75 3010.22,3118.28 3010.44,3115.76C3010.12,3113.68 3010.2,3110.28 3011.38,3104.66C3011.6,3103.58 3012.62,3102.87 3013.71,3103.02C3014.79,3103.18 3015.58,3104.15 3015.49,3105.24C3015.22,3108.8 3014.94,3112.28 3014.63,3115.68C3014.69,3115.86 3014.75,3116 3014.83,3116.11C3014.96,3116.31 3015.13,3116.34 3015.21,3116.4L3015.67,3116.82L3016.06,3117.43L3016.25,3118.37L3016.19,3118.87L3016,3119.41C3015.25,3121.01 3014.52,3122.62 3013.82,3124.24C3006.47,3197.97 2992.93,3239.12 3022.48,3336.36C3049.18,3326.12 3049.7,3324.85 3079.22,3327.68C3079.52,3327.71 3079.78,3327.55 3080.03,3327.32C3080.38,3326.99 3080.69,3326.55 3080.99,3326C3082.5,3323.26 3083.53,3318.47 3084.29,3312.09C3089.63,3267.29 3079.27,3147.96 3078,3097.24C3077.91,3093.63 3076.38,3090.21 3074.35,3086.91C3072.15,3083.35 3069.34,3079.96 3066.84,3076.71C3063.14,3071.91 3060.18,3067.34 3060.04,3063.13C3058.91,3029.63 3073.34,3017.65 3082.64,3011.6C3084.9,3010.13 3086.86,3009.04 3088.16,3008.07C3088.62,3007.73 3089.02,3007.51 3089.13,3007.19C3091.66,2999.76 3091.53,2987.63 3090.19,2974.05C3086.97,2941.53 3076.57,2900.95 3075.88,2894.82C3070.56,2847.41 3076.41,2844.69 3060.93,2799.68C3046.84,2758.69 2989.52,2666.8 2892.86,2715.11C2892.31,2715.71 2889.7,2718.58 2886.64,2722.06C2871.21,2739.64 2833.54,2783.43 2831.24,2788.12C2815.48,2820.25 2822.14,2838.61 2826.67,2851.41C2830.09,2861.07 2832.03,2867.91 2825.02,2874.74C2818.24,2881.33 2819.53,2888.56 2821.21,2894.95C2822.53,2899.97 2824.01,2904.59 2823.32,2908.28C2818.13,2935.83 2822.94,2944.72 2825.68,2952.59C2827.67,2958.31 2828.69,2963.54 2824.77,2973.92C2824.82,2974.09 2825,2974.68 2825.2,2975.11C2826.04,2976.83 2827.62,2979.19 2829.51,2982.27C2837.23,2994.8 2850.08,3018.6 2842.37,3057.88C2842.31,3058.21 2842.59,3058.53 2842.88,3058.97C2843.5,3059.88 2844.48,3060.92 2845.76,3062.14C2852.38,3068.43 2866.45,3078.85 2882.89,3097.77C2889.09,3104.91 2894,3106.73 2897.7,3108.38C2899.93,3109.37 2901.77,3110.35 2903.3,3112.01C2904.82,3113.66 2906.07,3116.01 2906.93,3119.86C2910.91,3137.64 2914.19,3136.44 2915.85,3155.06C2917.9,3178.07 2920.8,3178.48 2912.33,3200.1C2908.55,3209.77 2910.07,3210.13 2872.78,3323.76C2871.86,3326.57 2871.72,3328.2 2871.78,3334.63C2871.86,3344.88 2872.48,3366.58 2871.77,3421.12C2871.63,3432.22 2877.79,3437.98 2884.35,3440.97C2891.19,3444.1 2898.45,3444.32 2899.95,3444.37C2911.86,3444.77 2921.92,3446.2 2930.18,3445.56C2937.8,3444.97 2943.78,3442.54 2948.13,3435.34C2966.53,3404.89 2969.46,3390.94 2971.08,3377.54C2972.19,3368.37 2972.73,3359.46 2977.02,3345.96C2982.5,3328.71 2980.42,3306.13 2979.38,3281.83C2978.31,3256.98 2978.28,3230.39 2987.85,3205.76C2992.89,3192.78 2995.71,3156.18 3009.74,3123.19Z" style="fill:rgb(22,22,22);"/>
                </g>
                <g transform="matrix(1,0,0,1,0.88034,0.944519)">
                    <path d="M2910.14,3006.74C2906.63,3006.93 3046.79,3020.49 3040.16,3024.9C3025.35,3034.75 2992.23,3058.39 2988.29,3059.55C2952.41,3070.14 2955.64,3058.58 2923.6,3039.48C2922.98,3026.16 2920.12,3017.58 2910.14,3006.74Z" style="fill:rgb(250,249,246);"/>
                    <path d="M2910.86,3004.79C2911.3,3004.85 2912.25,3004.98 2913.35,3005.11C2931.49,3007.26 3025.09,3016.75 3039.26,3021.53C3040.37,3021.9 3041.11,3022.3 3041.51,3022.64L3042.1,3023.3L3042.42,3024.07L3042.46,3024.78L3042.29,3025.47L3041.92,3026.1L3041.31,3026.63C3029.46,3034.52 3005.87,3051.24 2994.89,3058.21C2991.9,3060.11 2989.74,3061.3 2988.88,3061.55C2975.88,3065.39 2967.82,3066.34 2961.44,3065.21C2954.96,3064.06 2950.13,3060.78 2943.67,3055.9C2938.44,3051.96 2932.06,3046.95 2922.53,3041.27C2921.93,3040.91 2921.55,3040.27 2921.52,3039.58C2920.93,3026.9 2918.23,3018.7 2908.85,3008.42L2908.74,3008.36L2908.3,3007.85L2908.01,3007.03L2908.04,3006.31L2908.21,3005.83L2908.56,3005.33L2909.32,3004.82L2910.03,3004.66C2910.32,3004.65 2910.6,3004.69 2910.86,3004.79ZM2915.28,3009.53C2922.54,3018.66 2924.97,3026.76 2925.62,3038.26C2934.79,3043.81 2941.04,3048.7 2946.18,3052.58C2952.02,3056.98 2956.32,3060.07 2962.17,3061.11C2968.11,3062.16 2975.59,3061.13 2987.7,3057.55C2988.82,3057.22 2992.4,3054.92 2997.28,3051.68C3008.28,3044.39 3025.39,3032.35 3036.17,3025.07C3034.7,3024.67 3032.78,3024.19 3030.78,3023.81C3005.46,3019.01 2935.37,3011.8 2915.28,3009.53Z" style="fill:rgb(22,22,22);"/>
                </g>
                <g transform="matrix(1,0,0,1,0.88034,0.944519)">
                    <path d="M2943.95,2769.93C2859.75,2776.95 2863.64,2862.19 2889.92,2962.33C2899.49,2998.78 2905.57,3008.58 2924.69,3027.56C2927.16,3030.01 3032.37,3067.56 3047.4,3009.73C3052.48,2990.2 3053.94,2989.87 3057.17,2971.82C3058.56,2964.06 3064.84,2880.9 3063.06,2868.39C3049.02,2770.13 2959.36,2770.03 2943.95,2769.93Z" style="fill:rgb(250,249,246);"/>
                    <path d="M2943.97,2767.85C2959.65,2767.95 3050.84,2768.1 3065.12,2868.09C3066.92,2880.68 3060.62,2964.38 3059.22,2972.18C3055.98,2990.31 3054.51,2990.64 3049.42,3010.25C3043.15,3034.36 3021.99,3042.77 2998.51,3043.78C2971.17,3044.94 2940.78,3036.06 2928.96,3031.69C2926.82,3030.9 2925.26,3030.24 2924.41,3029.82C2923.77,3029.5 2923.39,3029.2 2923.22,3029.04C2903.82,3009.78 2897.62,2999.85 2887.91,2962.86C2874.68,2912.45 2867.14,2865.78 2873.45,2830.84C2876.68,2813.01 2883.49,2798.19 2894.86,2787.36C2906.22,2776.54 2922.16,2769.66 2943.78,2767.86C2943.84,2767.85 2943.91,2767.85 2943.97,2767.85ZM2926.03,3025.95C2926.35,3026.11 2928.23,3026.98 2930.4,3027.78C2941.95,3032.05 2971.62,3040.75 2998.33,3039.61C3019.91,3038.69 3039.62,3031.36 3045.38,3009.21C3050.44,2989.75 3051.9,2989.43 3055.12,2971.45C3056.5,2963.74 3062.77,2881.11 3060.99,2868.68C3047.24,2772.35 2959.44,2772.11 2944.04,2772.02L2944.03,2772.02C2923.6,2773.74 2908.48,2780.14 2897.73,2790.38C2886.97,2800.63 2880.6,2814.7 2877.55,2831.58C2871.33,2866.05 2878.89,2912.07 2891.94,2961.8C2901.34,2997.63 2907.29,3007.34 2926.03,3025.95Z" style="fill:rgb(22,22,22);"/>
                </g>
                <g transform="matrix(1,0,0,1,0.88034,0.944519)">
                    <path d="M2873.43,2840.62C2875.11,2819.71 2875.44,2799.08 2887.29,2777.01C2918.11,2719.59 3016.69,2738.12 3028.32,2751.62C3048.67,2775.23 3050.03,2794.22 3053.89,2808.7C3058.43,2825.72 3059.16,2838.06 3059.43,2850.55C3052,2822.74 3018.09,2772.64 2957.11,2770.27C2887.42,2767.56 2875.59,2822.38 2873.43,2840.62Z" style="fill:rgb(22,22,22);"/>
                    <path d="M3057.42,2851.09C3050.13,2823.81 3016.85,2774.68 2957.03,2772.35C2932.95,2771.41 2915.95,2777.46 2903.94,2786.53C2875.91,2807.7 2875.18,2845.05 2875,2846.61C2874.87,2847.75 2873.85,2848.57 2872.71,2848.45C2871.58,2848.33 2870.75,2847.31 2870.86,2846.17C2873.09,2823.01 2872.38,2800.39 2885.45,2776.03C2904.35,2740.81 2948.09,2733.31 2982.7,2736.11C2998.79,2737.41 3012.87,2740.92 3021.5,2744.78C3025.49,2746.56 3028.37,2748.47 3029.9,2750.26C3050.55,2774.22 3051.98,2793.46 3055.9,2808.16C3060.5,2825.38 3061.24,2837.87 3061.52,2850.5C3061.54,2851.56 3060.77,2852.46 3059.73,2852.61C3058.68,2852.76 3057.69,2852.11 3057.42,2851.09ZM3056.73,2837.08C3056.08,2828.86 3054.75,2819.99 3051.88,2809.24C3048.07,2794.97 3046.79,2776.24 3026.74,2752.97C3025.03,2750.99 3021.21,2748.96 3015.98,2747.04C3007.6,2743.96 2995.69,2741.34 2982.36,2740.26C2949.25,2737.58 2907.21,2744.3 2889.12,2778C2882.28,2790.74 2879.35,2803.01 2877.76,2815.13C2882.17,2804.14 2889.43,2792.26 2901.43,2783.2C2914.05,2773.68 2931.89,2767.2 2957.19,2768.19C3010.7,2770.27 3043.75,2808.43 3056.73,2837.08Z" style="fill:rgb(22,22,22);"/>
                </g>
                <g id="shadow">
                    <g id="hand-shadow" transform="matrix(1,0,0,1,0.88034,0.944519)">
                        <path d="M3083.46,2959.74C3067.2,2946.87 3071.91,2924.03 3059.45,2915.83C3036.71,2900.86 3041.8,2895.43 3020.57,2878.46C3010.61,2870.5 2998.32,2850.55 2987.71,2840.46C2979.02,2832.2 2977.85,2833.38 2959.62,2805.79C2957.07,2808.29 2946.03,2814.96 2957.44,2833.09C2960.66,2838.2 2961.92,2837.12 2972.57,2855.54C2978.73,2866.19 2981.65,2873.27 2969.43,2871.93C2966.93,2871.66 2964.6,2866.62 2951.51,2862.4C2943.14,2859.71 2922.52,2839.12 2902.83,2849.47C2900.88,2850.49 2885.97,2855.25 2881.78,2863.91C2880.78,2865.96 2875.44,2866.58 2875.08,2866.23C2868.7,2860.17 2869.8,2856.79 2860.95,2857.97C2856.01,2858.63 2861.85,2878.22 2853.01,2882.89C2851.95,2883.45 2849.32,2888.28 2849.61,2889.65C2850.77,2894.97 2852.4,2894.03 2857.85,2893.45C2859.49,2885.59 2859.45,2885.77 2861.14,2877.84C2864.21,2877.51 2867.28,2877.18 2870.35,2876.84C2874.13,2885.99 2875.1,2890.05 2883.4,2884.66C2888.9,2881.1 2911.46,2875.66 2928.52,2885.37C2929.41,2887.32 2930.31,2889.26 2931.2,2891.21C2931.11,2891.21 2907.44,2887.58 2887.3,2889.14C2879.85,2889.71 2879.93,2892.6 2873.08,2890.05C2863.1,2886.34 2865.62,2893.09 2864.76,2903.58C2849.36,2908.21 2847.78,2907.98 2841.87,2922.96C2840.89,2925.46 2855.25,2931.4 2867.64,2913.01C2899.26,2915.43 2926.01,2904.05 2926.85,2913.24C2927.31,2918.19 2921.87,2914.75 2891.5,2920.55C2880.97,2922.56 2881.17,2923.62 2870.51,2923C2869.25,2933.78 2866.13,2937.61 2865.35,2939.25C2858.08,2938.38 2845.11,2939.14 2841.2,2941.8C2834.4,2946.45 2862.7,2960.08 2870.79,2952.48C2879.36,2944.44 2882.05,2950.06 2892.04,2943.66C2907.37,2933.84 2951.26,2938.25 2920.68,2950.01C2913.25,2952.87 2901.02,2960.48 2894.72,2963.25C2892,2964.44 2862.41,2985.5 2854.13,2996.43C2854.06,2996.51 2849.15,3016.45 2870.27,3001.27C2898.31,2981.12 2902.61,2985.77 2920.9,2980.34C2935.53,2975.99 2937.04,2970.39 2947.07,2975.12C2960.05,2981.24 2973.62,2972.82 2991.88,2984.41C3050.8,3021.79 3050.7,3025.2 3056.14,3022.71C3073.27,3014.89 3075.24,2980.03 3081.59,2969.31C3084.16,2964.97 3087.3,2964.68 3083.77,2961.2" style="fill:rgb(22,22,22);"/>
                        <path d="M2924.79,2913.8C2924.79,2913.69 2924.79,2913.54 2924.78,2913.43C2924.71,2912.67 2924.17,2912.3 2923.39,2912.07C2922.42,2911.77 2921.17,2911.67 2919.68,2911.68C2909.68,2911.72 2890.39,2916.61 2868.68,2915.18C2859.36,2928.29 2849.03,2928.92 2844.05,2927.38C2841.97,2926.74 2840.66,2925.63 2840.15,2924.73L2839.91,2924.21L2839.76,2923.59L2839.76,2922.9L2839.93,2922.2C2843.09,2914.19 2845.2,2910.31 2848.47,2907.75C2851.49,2905.39 2855.58,2904.16 2862.78,2901.99C2863.01,2898.16 2862.86,2894.9 2863.17,2892.57C2863.51,2889.99 2864.47,2888.31 2866.11,2887.49C2867.6,2886.75 2870,2886.69 2873.81,2888.1C2874.13,2888.22 2874.43,2888.33 2874.72,2888.42C2873.73,2887.84 2872.85,2886.93 2872.05,2885.64C2871.06,2884.07 2870.15,2881.84 2869.02,2879.08L2862.86,2879.75C2861.49,2886.21 2861.42,2886.54 2859.89,2893.87C2859.7,2894.76 2858.97,2895.42 2858.07,2895.52C2856.01,2895.74 2854.47,2896 2853.28,2895.99C2852.06,2895.98 2851.1,2895.72 2850.29,2895.19C2849.16,2894.44 2848.21,2893 2847.58,2890.09C2847.41,2889.3 2847.71,2887.65 2848.48,2885.97C2849.11,2884.59 2849.98,2883.14 2850.69,2882.26C2851.18,2881.64 2851.68,2881.24 2852.04,2881.05C2854,2880.01 2854.94,2877.99 2855.52,2875.69C2856.59,2871.44 2856.34,2866.26 2856.65,2862.59C2856.82,2860.6 2857.18,2858.97 2857.78,2857.93C2858.1,2857.38 2858.48,2856.95 2858.92,2856.62L2859.74,2856.15L2860.67,2855.91C2864.43,2855.41 2866.66,2855.71 2868.34,2856.5C2869.54,2857.06 2870.49,2857.89 2871.46,2858.99C2872.61,2860.29 2873.83,2862.06 2875.98,2864.2C2876.61,2864.13 2877.86,2863.96 2878.72,2863.64C2879.02,2863.53 2879.3,2863.4 2879.55,2863.26C2879.69,2863.17 2879.84,2863.12 2879.9,2863C2881.74,2859.21 2885.41,2856.05 2889.34,2853.61C2894.78,2850.24 2900.68,2848.25 2901.87,2847.62C2912.35,2842.11 2923.1,2844.7 2932.33,2849.17C2940.88,2853.31 2948.02,2859.09 2952.14,2860.42C2960.35,2863.06 2964.51,2866.03 2967.09,2868.03C2967.87,2868.64 2968.49,2869.15 2969.04,2869.52C2969.27,2869.68 2969.45,2869.84 2969.65,2869.86C2971.53,2870.07 2972.99,2870.07 2974.11,2869.84C2974.78,2869.71 2975.28,2869.53 2975.56,2869.17C2975.81,2868.85 2975.83,2868.41 2975.8,2867.91C2975.74,2867.01 2975.44,2865.97 2974.98,2864.79C2974.07,2862.45 2972.56,2859.68 2970.77,2856.59C2960.15,2838.22 2958.88,2839.29 2955.68,2834.2C2950.74,2826.34 2949.8,2820.43 2950.49,2816.04C2951.55,2809.35 2956.48,2805.96 2958.16,2804.3C2958.61,2803.87 2959.22,2803.66 2959.84,2803.72C2960.46,2803.79 2961.02,2804.12 2961.36,2804.64C2979.39,2831.94 2980.55,2830.78 2989.14,2838.95C2999.72,2849.01 3011.94,2868.9 3021.87,2876.84C3032.67,2885.47 3036.78,2891.16 3041.08,2896.6C3045.2,2901.82 3049.51,2906.79 3060.6,2914.09C3065.98,2917.63 3068.51,2923.62 3070.6,2930.52C3073.38,2939.74 3075.37,2950.68 3084.76,2958.11C3085.35,2958.58 3085.62,2959.32 3085.53,2960.02C3086.88,2961.43 3087.34,2962.57 3087.42,2963.49L3087.33,2964.66C3087.22,2965.12 3087.02,2965.58 3086.73,2966.05C3086.07,2967.08 3084.65,2968.22 3083.38,2970.37C3079.61,2976.74 3077.44,2991.73 3072.61,3004.37C3069.15,3013.43 3064.31,3021.27 3057.01,3024.61C3055.82,3025.15 3054.81,3025.44 3053.64,3025.42C3052.14,3025.38 3050.27,3024.76 3047.08,3022.86C3040.27,3018.82 3026.15,3008.62 2990.76,2986.16C2980.24,2979.49 2971.32,2979.79 2963.19,2979.78C2957.23,2979.77 2951.66,2979.59 2946.18,2977C2940.94,2974.53 2938.38,2975.33 2934.42,2977.15C2931.31,2978.58 2927.48,2980.56 2921.5,2982.34C2903.43,2987.7 2899.17,2983.07 2871.49,3002.96C2866.01,3006.89 2862.12,3008.57 2859.43,3008.95C2857.04,3009.3 2855.36,3008.73 2854.16,3007.78C2852.1,3006.17 2851.43,3003.09 2851.51,3000.32C2851.57,2998.18 2852,2996.32 2852.1,2995.95L2852.47,2995.17C2860.92,2984.02 2891.11,2962.56 2893.88,2961.34C2900.2,2958.57 2912.48,2950.94 2919.93,2948.07C2924.44,2946.33 2927.22,2944.83 2928.6,2943.47C2928.83,2943.25 2929.05,2942.91 2929.14,2942.76C2929.09,2942.71 2929.02,2942.63 2928.96,2942.59C2928.59,2942.29 2928.09,2942.04 2927.48,2941.81C2923.92,2940.45 2917.53,2940.01 2910.94,2940.56C2904.34,2941.1 2897.53,2942.62 2893.16,2945.42C2887.78,2948.86 2884.38,2949.09 2881.16,2949.52C2878.5,2949.88 2876.02,2950.43 2872.21,2954C2869.57,2956.48 2865.12,2957.23 2860.19,2956.6C2853.48,2955.74 2845.9,2952.48 2841.77,2949.23C2837.51,2945.87 2836.9,2942.21 2840.03,2940.08C2841.37,2939.17 2843.62,2938.4 2846.37,2937.87C2851.68,2936.84 2858.97,2936.59 2864.21,2937.04C2865.41,2934.94 2867.49,2930.93 2868.44,2922.76C2868.57,2921.66 2869.53,2920.86 2870.63,2920.92C2881.03,2921.52 2880.84,2920.47 2891.11,2918.51C2909.38,2915.01 2918.65,2914.86 2923.05,2914.22C2923.77,2914.11 2924.51,2913.89 2924.79,2913.8ZM3081.69,2960.99C3073.54,2954.29 3070.51,2945.18 3068.03,2936.61C3066.85,2932.54 3065.8,2928.61 3064.27,2925.19C3062.88,2922.07 3061.09,2919.4 3058.3,2917.57C3046.65,2909.9 3042.14,2904.66 3037.81,2899.18C3033.66,2893.93 3029.7,2888.43 3019.27,2880.09C3009.27,2872.1 2996.93,2852.1 2986.27,2841.97C2977.71,2833.83 2976.37,2834.77 2959.19,2808.92C2957.43,2810.49 2955.2,2812.91 2954.6,2816.69C2954.02,2820.41 2955.03,2825.34 2959.21,2831.98C2962.43,2837.1 2963.7,2836.03 2974.38,2854.5C2976.69,2858.5 2978.54,2862.02 2979.4,2864.82C2980.13,2867.19 2980.14,2869.17 2979.5,2870.64C2978.87,2872.08 2977.66,2873.2 2975.6,2873.77C2974.08,2874.19 2971.99,2874.31 2969.2,2874C2968.16,2873.89 2967.07,2873.3 2965.65,2872.2C2963.38,2870.43 2959.65,2867.22 2950.87,2864.39C2946.64,2863.02 2939.28,2857.16 2930.51,2852.92C2922.41,2849 2913,2846.48 2903.8,2851.31C2902.64,2851.92 2896.87,2853.85 2891.53,2857.15C2888.29,2859.17 2885.17,2861.68 2883.65,2864.82C2883.19,2865.76 2882.25,2866.6 2881.02,2867.19C2879.68,2867.83 2877.97,2868.21 2876.72,2868.34C2875.79,2868.44 2875.04,2868.39 2874.7,2868.31L2874.18,2868.12L2873.64,2867.74C2871.65,2865.84 2870.35,2864.2 2869.27,2862.86C2868.3,2861.67 2867.61,2860.73 2866.49,2860.23C2865.36,2859.73 2863.85,2859.7 2861.41,2860.01C2861.33,2860.18 2861.17,2860.56 2861.1,2860.85C2860.8,2862.12 2860.72,2863.84 2860.65,2865.76C2860.52,2869.11 2860.43,2873 2859.64,2876.39C2859.97,2876.05 2860.41,2875.82 2860.91,2875.77L2870.12,2874.77C2871.04,2874.67 2871.92,2875.19 2872.27,2876.05C2873.38,2878.72 2874.23,2880.95 2875.11,2882.61C2875.71,2883.76 2876.21,2884.62 2877.02,2884.91C2877.46,2885.08 2877.97,2885 2878.6,2884.81C2879.62,2884.49 2880.81,2883.86 2882.27,2882.92C2884.61,2881.4 2889.83,2879.51 2896.43,2878.52C2906.15,2877.05 2918.88,2877.49 2929.55,2883.56C2929.93,2883.78 2930.23,2884.11 2930.42,2884.5L2933.09,2890.34C2933.38,2890.97 2933.34,2891.71 2932.97,2892.3C2932.6,2892.9 2931.96,2893.27 2931.26,2893.29C2931.17,2893.29 2907.56,2889.66 2887.46,2891.21C2883.93,2891.49 2882.18,2892.33 2880.51,2892.78C2878.42,2893.34 2876.41,2893.51 2872.35,2892.01C2871.06,2891.52 2870.01,2891.23 2869.15,2891.14C2868.66,2891.08 2868.27,2891.07 2867.98,2891.22C2867.74,2891.33 2867.66,2891.59 2867.56,2891.87C2867.41,2892.32 2867.32,2892.84 2867.26,2893.44C2866.98,2896 2867.18,2899.57 2866.84,2903.74C2866.77,2904.6 2866.18,2905.32 2865.36,2905.57C2858.03,2907.78 2853.95,2908.75 2851.04,2911.03C2848.32,2913.16 2846.7,2916.45 2844.16,2922.84C2844.78,2923.14 2845.98,2923.65 2847.14,2923.76C2851.81,2924.2 2859.13,2921.92 2865.92,2911.85C2866.34,2911.23 2867.06,2910.88 2867.8,2910.94C2889.86,2912.62 2909.55,2907.55 2919.66,2907.51C2925.49,2907.49 2928.59,2909.35 2928.93,2913.05C2929.05,2914.35 2928.83,2915.3 2928.37,2916.05C2927.89,2916.83 2927.11,2917.47 2925.78,2917.89C2922.4,2918.95 2913.3,2918.51 2891.89,2922.6C2881.78,2924.53 2881.33,2925.58 2872.33,2925.18C2870.89,2934.93 2867.99,2938.54 2867.24,2940.14C2866.85,2940.95 2866,2941.42 2865.11,2941.32C2860.89,2940.81 2854.68,2940.88 2849.57,2941.57C2846.45,2941.99 2843.76,2942.58 2842.38,2943.52C2842.34,2943.55 2842.3,2943.58 2842.26,2943.61C2842.28,2943.68 2842.31,2943.76 2842.34,2943.82C2842.51,2944.16 2842.78,2944.49 2843.12,2944.85C2843.46,2945.21 2843.88,2945.58 2844.35,2945.95C2848.02,2948.85 2854.76,2951.7 2860.72,2952.47C2864.23,2952.91 2867.48,2952.73 2869.36,2950.96C2874.13,2946.49 2877.28,2945.84 2880.61,2945.39C2883.37,2945.02 2886.3,2944.86 2890.92,2941.91C2895.75,2938.81 2903.28,2937 2910.6,2936.4C2917.92,2935.8 2925.01,2936.41 2928.97,2937.92C2931.14,2938.75 2932.5,2939.95 2933.03,2941.19C2933.64,2942.62 2933.5,2944.33 2931.8,2946.16C2930.26,2947.82 2927.01,2949.81 2921.43,2951.96C2914.03,2954.8 2901.83,2962.4 2895.56,2965.16C2892.92,2966.31 2864.51,2986.55 2856.05,2997.35C2855.87,2998.18 2855.53,3000.12 2855.73,3001.97C2855.83,3002.95 2856.02,3003.95 2856.73,3004.51C2857.39,3005.03 2858.41,3005.02 2859.92,3004.6C2862.15,3003.97 2865.11,3002.42 2869.05,2999.58C2897.45,2979.18 2901.78,2983.84 2920.31,2978.34C2927.55,2976.19 2931.53,2973.72 2934.95,2972.39C2938.91,2970.84 2942.21,2970.52 2947.95,2973.23C2954.17,2976.16 2960.54,2975.53 2967.53,2975.63C2975.15,2975.74 2983.46,2976.6 2992.99,2982.65C3028.31,3005.06 3042.4,3015.25 3049.2,3019.28C3052.68,3021.34 3053.61,3021.58 3055.28,3020.81C3061.68,3017.89 3065.68,3010.83 3068.72,3002.88C3073.64,2990 3075.95,2974.74 3079.79,2968.25C3080.64,2966.81 3081.55,2965.77 3082.3,2964.92C3082.64,2964.53 3083.06,2963.98 3083.21,2963.77C3083.18,2963.71 3083.14,2963.64 3083.1,2963.58C3082.91,2963.31 3082.64,2963.02 3082.31,2962.69C3081.84,2962.23 3081.63,2961.6 3081.69,2960.99ZM2858.68,2879.36C2857.71,2881.63 2856.26,2883.48 2854.13,2884.65C2853.97,2884.89 2852.8,2886.55 2852.27,2887.71C2852,2888.29 2851.74,2889.17 2851.69,2889.37C2851.83,2890.01 2851.98,2890.54 2852.15,2890.98C2852.29,2891.32 2852.39,2891.58 2852.59,2891.72C2852.89,2891.91 2853.27,2891.84 2853.76,2891.81C2854.43,2891.77 2855.21,2891.67 2856.12,2891.55C2857.33,2885.76 2857.5,2884.93 2858.68,2879.36ZM2881.45,2888.13C2882.86,2887.7 2884.59,2887.26 2887.14,2887.06C2902.75,2885.85 2920.47,2887.75 2927.74,2888.67L2926.91,2886.86C2917.23,2881.59 2905.81,2881.32 2897.05,2882.64C2891.23,2883.52 2886.6,2885.08 2884.53,2886.41C2883.41,2887.14 2882.38,2887.71 2881.45,2888.13Z" style="fill:rgb(22,22,22);"/>
                    </g>
                    <g transform="matrix(1,0,0,1,0.88034,0.944519)">
                        <path d="M3267.42,3176.71C3269.11,3178.87 3279.94,3257.71 3290.99,3290.85C3294.05,3300.01 3281.51,3304.72 3279.86,3305.4C3272.76,3308.34 3258.03,3305.82 3253,3303.89C3223.49,3292.6 3176.64,3211.09 3173.43,3205.58C3165.78,3192.51 3143.8,3160.94 3138.9,3156.5C3111.65,3131.83 3120.81,3123.58 3088.87,3104.67C3087.51,3098.24 3082.52,3089.29 3081.17,3082.86C3064.57,3070.48 3060.13,3067.69 3065.49,3043.16C3066.3,3039.43 3049.52,3025.89 3051.87,3020.56C3059.94,3002.3 3085.31,2984.14 3072.33,2982.17C3074.55,2985.96 3114.3,3012.84 3095.9,3019.93C3094.67,3020.41 3095.64,3028.45 3097.48,3028.52C3117.71,3029.31 3118.68,3030.12 3130.39,3046.85C3136.23,3047.83 3142.32,3046.14 3148.16,3047.12C3150.24,3047.47 3151.72,3049.41 3153.39,3050.72C3165.89,3060.57 3176.62,3044.18 3187.48,3061.52C3188.23,3062.72 3265.1,3171.32 3267.42,3176.71Z" style="fill:rgb(22,22,22);"/>
                        <path d="M3073.58,2986.33C3071.96,2984.89 3070.87,2983.8 3070.53,2983.22C3070.12,2982.53 3070.15,2981.67 3070.6,2981C3071.05,2980.34 3071.85,2979.99 3072.64,2980.11C3075.59,2980.56 3077.07,2981.82 3077.69,2983.28C3077.87,2983.7 3077.97,2984.16 3078.01,2984.66C3079.26,2985.72 3080.71,2986.93 3082.27,2988.25C3089.07,2994.03 3097.78,3001.87 3101.19,3008.4C3102.65,3011.2 3103.17,3013.83 3102.6,3016.07C3102.04,3018.23 3100.5,3020.17 3097.46,3021.54C3097.45,3021.73 3097.43,3021.95 3097.44,3022.14C3097.44,3023.18 3097.61,3024.46 3097.9,3025.52C3097.99,3025.83 3098.14,3026.21 3098.26,3026.47C3108.41,3026.88 3113.81,3027.44 3118.15,3029.89C3122.46,3032.32 3125.78,3036.65 3131.58,3044.91C3134.08,3045.22 3136.62,3045.05 3139.15,3044.9C3142.29,3044.72 3145.43,3044.55 3148.51,3045.07C3149.66,3045.26 3150.7,3045.78 3151.65,3046.48C3152.71,3047.26 3153.66,3048.28 3154.68,3049.08C3160.37,3053.57 3165.69,3051.88 3170.79,3051.24C3173.93,3050.85 3177.02,3050.77 3180.08,3051.96C3183.13,3053.14 3186.21,3055.57 3189.24,3060.41C3190,3061.62 3266.5,3169.76 3269.31,3175.83L3269.31,3175.84L3269.36,3175.92C3269.45,3176.1 3269.56,3176.37 3269.66,3176.74C3270.06,3178.07 3270.69,3181.28 3271.51,3185.86C3275.49,3208.14 3284.15,3263.75 3292.97,3290.19C3294.47,3294.7 3292.96,3298.35 3290.41,3301.14C3287.03,3304.82 3281.73,3306.88 3280.66,3307.32C3277.59,3308.6 3273.21,3308.97 3268.7,3308.77C3262.18,3308.49 3255.4,3307.04 3252.26,3305.84C3243.17,3302.36 3232.42,3292.47 3221.82,3280.07C3197.62,3251.77 3173.89,3210.5 3171.63,3206.64C3164.06,3193.7 3142.35,3162.43 3137.5,3158.04C3126.42,3148.01 3121.26,3140.65 3116.98,3134.19C3110.81,3124.89 3106.54,3117.55 3087.81,3106.47C3087.3,3106.17 3086.95,3105.67 3086.83,3105.1C3085.53,3098.93 3080.88,3090.43 3079.31,3084.07C3071,3077.87 3065.78,3073.88 3063.21,3068.46C3060.57,3062.88 3060.62,3055.71 3063.42,3042.87C3063.3,3042.64 3062.61,3041.26 3061.87,3040.27C3059.89,3037.62 3056.78,3034.26 3054.24,3031.03C3052.39,3028.68 3050.85,3026.37 3050.11,3024.41C3049.43,3022.61 3049.4,3021 3049.96,3019.72C3054.86,3008.64 3066.03,2997.56 3071.36,2990.07C3072.36,2988.67 3073.14,2987.42 3073.58,2986.33ZM3076.86,2989.14C3075.33,2992.07 3072.24,2995.85 3068.67,3000.13C3063.42,3006.43 3057.09,3013.9 3053.78,3021.41C3053.69,3021.59 3053.72,3021.81 3053.76,3022.05C3053.84,3022.56 3054.05,3023.1 3054.33,3023.69C3055.42,3025.93 3057.54,3028.55 3059.7,3031.12C3062.45,3034.38 3065.28,3037.56 3066.59,3039.83C3067.48,3041.36 3067.72,3042.69 3067.52,3043.6C3064.99,3055.2 3064.6,3061.65 3066.98,3066.67C3069.38,3071.75 3074.49,3075.28 3082.42,3081.18C3082.82,3081.49 3083.11,3081.93 3083.21,3082.43C3084.5,3088.56 3089.1,3096.99 3090.7,3103.34C3106.49,3112.79 3112.21,3119.67 3117.36,3127.25C3122.4,3134.66 3126.86,3142.78 3140.3,3154.95C3145.25,3159.44 3167.5,3191.32 3175.22,3204.53C3177.47,3208.37 3200.99,3249.3 3224.99,3277.36C3235.05,3289.12 3245.13,3298.65 3253.75,3301.95C3256.64,3303.05 3262.88,3304.35 3268.88,3304.61C3272.72,3304.78 3276.45,3304.56 3279.06,3303.47C3279.83,3303.16 3283.13,3301.92 3285.87,3299.68C3288.2,3297.79 3290.22,3295.11 3289.02,3291.51C3280.15,3264.92 3271.41,3209 3267.41,3186.59C3266.6,3182.03 3265.69,3178.11 3265.61,3177.73C3265.57,3177.67 3265.54,3177.6 3265.51,3177.54C3263.19,3172.15 3186.46,3063.83 3185.71,3062.62C3183.41,3058.94 3181.16,3056.93 3178.85,3055.95C3175.28,3054.45 3171.67,3055.34 3167.94,3055.85C3162.88,3056.53 3157.66,3056.73 3152.1,3052.36C3151.26,3051.69 3150.46,3050.87 3149.61,3050.17C3149.06,3049.71 3148.5,3049.29 3147.81,3049.17C3145.05,3048.71 3142.22,3048.89 3139.4,3049.06C3136.26,3049.25 3133.12,3049.42 3130.05,3048.9C3129.5,3048.81 3129.01,3048.5 3128.69,3048.04C3123.1,3040.06 3120.15,3035.8 3116.11,3033.52C3112.08,3031.24 3107.02,3030.98 3097.4,3030.61L3096.72,3030.49L3096.14,3030.24L3095.6,3029.86L3095.03,3029.24C3094.35,3028.3 3093.76,3026.53 3093.48,3024.69C3093.15,3022.56 3093.28,3020.39 3093.69,3019.45L3094.29,3018.55L3094.67,3018.24L3095.15,3017.99C3096.76,3017.37 3097.82,3016.62 3098.33,3015.64C3098.89,3014.55 3098.71,3013.27 3098.19,3011.86C3097.5,3010.01 3096.2,3008.02 3094.56,3005.97C3089.77,2999.95 3082.14,2993.58 3076.86,2989.14Z" style="fill:rgb(22,22,22);"/>
                    </g>
                </g>
                <g id="arm-hand">
                    <g id="hand" transform="matrix(1,0,0,1,0.88034,0.944519)">
                        <path d="M3173.4,2744.29C3162.14,2738.15 3114.77,2681.99 3101.44,2677.53C3097.01,2676.04 3098.47,2672.75 3047.91,2654.21C3014.18,2641.84 2943.86,2624.54 2934.62,2622.52C2883.91,2611.41 2883.63,2610.93 2879.36,2609.47C2843.48,2597.23 2842.17,2598.4 2804.65,2605.01C2799.18,2605.98 2756.75,2600 2758.93,2613.2C2759.02,2613.74 2785.59,2618.47 2800.73,2618.66C2832.21,2619.07 2832.43,2616.49 2862.86,2624.64C2802.79,2615.03 2745.48,2615.07 2745.31,2615.02C2731.09,2611.32 2722.12,2618.62 2732.38,2628.87C2743.12,2639.6 2837.45,2634.68 2857.16,2638.76C2788.71,2637.39 2714.13,2621.38 2725.1,2644.95C2735.38,2667.01 2778.32,2660.88 2825.66,2680.28C2833.46,2683.48 2864.75,2680.85 2867.55,2680.94C2824.3,2680.49 2824.53,2682.74 2781.13,2682.85C2780.34,2682.85 2780.35,2680.27 2748.18,2687.54C2753.5,2701.62 2758.75,2705.59 2807.13,2711.84C2832.23,2715.08 2868.89,2704.36 2907.99,2729.06C2976.88,2772.58 3034.59,2756.99 3050.56,2777.21C3055.98,2784.07 3075.48,2803.37 3078.59,2807.19C3133.63,2757.34 3160.37,2765.28 3173.4,2744.29Z" style="fill:rgb(250,249,246);"/>
                        <path d="M2732.38,2631.49C2731.8,2631.12 2731.3,2630.74 2730.91,2630.34C2725.95,2625.39 2725.1,2620.86 2726.5,2617.66C2727.39,2615.61 2729.25,2613.95 2731.93,2612.97C2735.29,2611.73 2740.07,2611.55 2745.59,2612.94L2747.05,2612.96C2748.91,2612.98 2752.26,2613.03 2756.82,2613.14C2756.25,2608.38 2760,2605.25 2766.34,2603.76C2773.74,2602.03 2784.76,2602.31 2793.25,2602.68C2798.57,2602.92 2802.82,2603.22 2804.29,2602.96C2842.33,2596.26 2843.65,2595.09 2880.03,2607.5C2884.28,2608.95 2884.56,2609.42 2935.06,2620.48C2944.33,2622.51 3014.82,2639.85 3048.63,2652.25C3084.3,2665.34 3094.27,2670.9 3098.57,2673.57C3100.21,2674.58 3100.91,2675.15 3102.1,2675.55C3104.39,2676.32 3107.64,2678.45 3111.49,2681.61C3116.91,2686.06 3123.67,2692.57 3130.77,2699.72C3148.2,2717.27 3167.71,2738.81 3174.4,2742.46C3174.9,2742.73 3175.27,2743.2 3175.41,2743.76C3175.56,2744.31 3175.47,2744.9 3175.17,2745.39C3169.74,2754.14 3162.08,2758.16 3151.1,2763.05C3135.42,2770.02 3112.75,2779.05 3079.98,2808.74C3079.56,2809.12 3079,2809.31 3078.43,2809.27C3077.86,2809.22 3077.33,2808.95 3076.97,2808.5C3073.86,2804.68 3054.35,2785.37 3048.92,2778.5C3045.97,2774.76 3041.42,2772.4 3035.6,2770.61C3029.39,2768.7 3021.78,2767.45 3013,2766.12C2986.11,2762.03 2948.53,2757.13 2906.88,2730.82C2883.82,2716.25 2861.62,2714.25 2842.22,2714.27C2828.96,2714.28 2816.98,2715.21 2806.86,2713.9C2787.34,2711.38 2774.79,2709.22 2766.4,2706.63C2753.03,2702.51 2749.65,2697.33 2746.23,2688.28C2746.01,2687.71 2746.06,2687.08 2746.34,2686.55C2746.63,2686.02 2747.13,2685.64 2747.72,2685.51C2765.32,2681.53 2773.41,2680.48 2777.26,2680.34C2779.66,2680.25 2780.96,2680.59 2781.44,2680.76C2799.27,2680.71 2809.7,2680.3 2818.85,2679.87C2792.81,2670.26 2768.49,2667.85 2750.79,2663.35C2737.31,2659.92 2727.56,2655.16 2723.22,2645.83C2721.54,2642.23 2721.61,2639.34 2722.87,2637.07C2724.28,2634.52 2727.52,2632.62 2732.38,2631.49ZM2830.84,2679.31C2839.81,2678.93 2850.15,2678.68 2867.46,2678.85C2867.5,2678.85 2867.53,2678.85 2867.57,2678.85C2867.58,2678.85 2867.6,2678.85 2867.61,2678.85C2868.75,2678.89 2869.65,2679.84 2869.63,2680.98C2869.6,2682.12 2868.66,2683.03 2867.52,2683.02C2867.51,2683.02 2867.49,2683.02 2867.48,2683.02C2867.41,2683.02 2867.34,2683.02 2867.27,2683.02C2864.58,2683.03 2849.25,2684.22 2837.56,2683.9C2835.14,2683.84 2832.86,2683.7 2830.86,2683.47C2817.46,2684.03 2807.12,2684.87 2781.14,2684.93L2780.69,2684.89L2780.11,2684.71C2779.74,2684.57 2778.96,2684.3 2775.26,2684.65C2771.1,2685.04 2763.86,2686.19 2751.02,2689.04C2753.76,2695.51 2757.2,2699.43 2767.63,2702.65C2775.87,2705.19 2788.21,2707.3 2807.39,2709.77C2817.36,2711.06 2829.16,2710.11 2842.22,2710.1C2862.29,2710.09 2885.24,2712.22 2909.1,2727.3C2950.12,2753.21 2987.15,2757.98 3013.63,2762C3024.48,2763.65 3033.61,2765.2 3040.57,2767.93C3045.52,2769.87 3049.42,2772.41 3052.19,2775.92C3057.05,2782.07 3073.23,2798.22 3078.76,2804.24C3111.19,2775.21 3133.73,2766.21 3149.4,2759.24C3158.75,2755.08 3165.58,2751.75 3170.5,2744.88C3162.38,2738.9 3144.15,2719.11 3127.81,2702.65C3120.82,2695.62 3114.18,2689.21 3108.84,2684.83C3105.51,2682.1 3102.76,2680.16 3100.78,2679.5C3099.73,2679.15 3098.96,2678.73 3097.92,2678.08C3094.43,2675.9 3087.33,2670.89 3047.2,2656.16C3013.55,2643.82 2943.39,2626.57 2934.17,2624.55C2883.25,2613.4 2882.97,2612.91 2878.68,2611.44C2843.3,2599.37 2842.01,2600.54 2805.01,2607.07C2803.42,2607.35 2798.82,2607.1 2793.06,2606.85C2784.94,2606.49 2774.37,2606.16 2767.29,2607.82C2765.47,2608.24 2763.91,2608.79 2762.73,2609.54C2761.85,2610.1 2761.23,2610.78 2761.02,2611.65C2763.18,2612.14 2767.4,2612.91 2772.52,2613.7C2784.12,2614.22 2798.72,2615.1 2814.9,2616.59C2833.51,2616.41 2838.11,2615.86 2863.4,2622.63C2864.47,2622.92 2865.13,2623.99 2864.9,2625.08C2864.66,2626.16 2863.62,2626.87 2862.53,2626.7C2845.99,2624.05 2829.65,2622.14 2814.67,2620.75C2810.76,2620.79 2806.21,2620.82 2800.7,2620.74C2792.55,2620.64 2781.12,2619.24 2772.19,2617.86C2759.6,2617.3 2750.58,2617.16 2747,2617.12C2745.57,2617.11 2744.81,2617.04 2744.78,2617.04C2740.17,2615.83 2736.17,2615.85 2733.37,2616.88C2731.9,2617.42 2730.8,2618.21 2730.31,2619.33C2729.93,2620.22 2729.97,2621.26 2730.38,2622.43C2730.93,2623.95 2732.07,2625.61 2733.86,2627.39C2734.97,2628.51 2737.16,2629.32 2740.11,2630.08C2740.45,2630.17 2740.8,2630.25 2741.16,2630.34C2758.61,2629.24 2787.25,2632.43 2818.25,2634.7C2835.8,2634.98 2850.93,2635.34 2857.59,2636.72C2858.64,2636.94 2859.36,2637.92 2859.24,2638.99C2859.12,2640.06 2858.2,2640.87 2857.12,2640.84C2844.02,2640.58 2830.69,2639.78 2817.78,2638.82C2798.89,2638.53 2777.15,2638.34 2760.19,2637.05C2752.55,2636.46 2745.86,2635.65 2740.79,2634.53C2739.14,2634.65 2737.59,2634.81 2736.15,2635.02C2733.48,2635.41 2731.25,2635.96 2729.51,2636.74C2728.11,2637.36 2727.06,2638.1 2726.51,2639.09C2725.79,2640.39 2726.03,2642.01 2726.99,2644.07C2730.87,2652.39 2739.79,2656.26 2751.82,2659.31C2771.02,2664.19 2797.94,2666.67 2826.45,2678.36C2827.5,2678.79 2829.02,2679.09 2830.84,2679.31Z" style="fill:rgb(22,22,22);"/>
                        <g transform="matrix(1,0,0,1,-0.303721,-0.345533)">
                            <path d="M2779.65,2607.59C2779.49,2608.85 2779.4,2612.64 2775.16,2613.75C2769.05,2615.34 2758.38,2613.54 2760.62,2608.99C2764,2602.08 2776.88,2604.66 2779.65,2607.59Z" style="fill:rgb(22,22,22);"/>
                        </g>
                        <g transform="matrix(1.01128,0,0,1.53758,-62.8339,-1392.34)">
                            <path d="M2781.85,2612.71C2781.45,2615.77 2755.13,2615.6 2760.62,2608.99C2766.41,2602.01 2787.67,2609.51 2781.85,2612.71Z" style="fill:rgb(22,22,22);"/>
                        </g>
                        <g transform="matrix(1.01128,0,0,1.53758,-66.0452,-1373.42)">
                            <path d="M2780.36,2612.86C2780.21,2614 2758.24,2613.83 2760.62,2608.99C2763.28,2603.56 2778.36,2605.23 2783.48,2608.02C2784.88,2608.78 2779.76,2612.23 2780.36,2612.86Z" style="fill:rgb(22,22,22);"/>
                        </g>
                        <g transform="matrix(1.01128,0,0,1.53758,-41.9982,-1322.75)">
                            <path d="M2783.19,2610.4C2782.8,2613.46 2753.74,2616.35 2758.52,2608.88C2760.39,2605.96 2777.05,2604.07 2782.17,2606.86C2783.57,2607.62 2782.6,2609.77 2783.19,2610.4Z" style="fill:rgb(22,22,22);"/>
                        </g>
                        <path d="M2944.72,2622.07C2945.26,2622.55 2945.53,2623.3 2945.37,2624.05C2945.14,2625.17 2944.03,2625.9 2942.91,2625.66C2938.31,2624.7 2928.61,2624.95 2922.68,2623.8C2920.5,2623.38 2918.76,2622.74 2917.71,2621.92C2916.86,2621.28 2916.35,2620.5 2916.12,2619.64C2915.9,2618.79 2915.95,2617.82 2916.47,2616.73C2917.26,2615.05 2919.59,2612.71 2924.3,2609.78C2925.7,2608.91 2926.79,2608.59 2927.87,2608.67C2928.62,2608.72 2929.41,2608.96 2930.3,2609.48C2932.43,2610.73 2935.7,2614.12 2943.89,2620.09C2944.53,2620.56 2944.83,2621.33 2944.72,2622.07ZM2938.08,2620.95C2933.5,2617.43 2930.92,2615.07 2929.16,2613.74C2928.49,2613.23 2928.06,2612.87 2927.6,2612.83C2927.25,2612.79 2926.95,2613.03 2926.5,2613.31C2924.07,2614.83 2922.36,2616.11 2921.26,2617.2C2920.91,2617.56 2920.62,2617.88 2920.42,2618.19C2920.34,2618.31 2920.26,2618.47 2920.22,2618.57C2920.36,2618.68 2920.64,2618.87 2920.87,2618.97C2921.57,2619.28 2922.45,2619.51 2923.47,2619.71C2927.52,2620.49 2933.33,2620.63 2938.08,2620.95Z" style="fill:rgb(22,22,22);"/>
                        <path d="M2927.47,2613.7C2927.08,2612.62 2927.65,2611.43 2928.74,2611.05C2929.82,2610.66 2931.01,2611.23 2931.39,2612.32C2931.63,2612.99 2931.79,2613.65 2931.96,2614.28C2932.12,2614.89 2932.29,2615.49 2932.76,2616.07C2933.75,2617.28 2935.78,2618.34 2940.14,2619.61C2941.24,2619.94 2941.87,2621.09 2941.55,2622.2C2941.23,2623.3 2940.07,2623.93 2938.97,2623.61C2933.3,2621.96 2930.82,2620.28 2929.53,2618.7C2928.22,2617.1 2928.1,2615.5 2927.47,2613.7Z" style="fill:rgb(22,22,22);"/>
                    </g>
                    <g id="arm" transform="matrix(1,0,0,1,0.88034,0.944519)">
                        <path d="M3280.16,3249.28C3332.45,3249.65 3370.84,3221.11 3373.35,3210.26C3376.95,3194.72 3377.05,3194.71 3372.43,3011.09C3371.97,2993.03 3180.09,2754.6 3159.76,2713.83C3081.86,2779.91 3031.62,2774.73 3069.45,2819.09C3086.22,2838.76 3149.37,2958.03 3182.43,3049.03C3204.45,3109.63 3228.38,3155.71 3235.58,3174.27" style="fill:rgb(211,211,211);"/>
                        <path d="M3280.14,3251.37C3278.99,3251.36 3278.07,3250.42 3278.07,3249.27C3278.08,3248.12 3279.02,3247.19 3280.17,3247.2C3316.19,3247.45 3345.51,3233.8 3360.71,3221.9C3366.81,3217.13 3370.63,3212.79 3371.32,3209.79C3374.91,3194.29 3374.96,3194.28 3370.35,3011.14C3370.32,3010.23 3369.63,3008.68 3368.51,3006.5C3365.43,3000.53 3359.06,2990.77 3350.38,2978.35C3301.43,2908.26 3179.68,2754.36 3159.12,2717.09C3121.01,2749.03 3089.71,2763.99 3072.41,2776.3C3064.27,2782.1 3059.28,2787.12 3058.72,2793.41C3058.15,2799.82 3062.1,2807.26 3071.04,2817.74C3087.85,2837.46 3151.24,2957.05 3184.39,3048.32C3206.4,3108.9 3230.32,3154.96 3237.52,3173.51C3237.94,3174.58 3237.41,3175.79 3236.33,3176.21C3235.26,3176.62 3234.05,3176.09 3233.64,3175.02C3226.43,3156.46 3202.5,3110.36 3180.48,3049.74C3147.51,2959 3084.59,2840.05 3067.87,2820.45C3057.88,2808.74 3053.93,2800.2 3054.57,2793.04C3055.22,2785.76 3060.57,2779.62 3070,2772.91C3087.54,2760.42 3119.53,2745.23 3158.41,2712.24C3158.9,2711.82 3159.55,2711.66 3160.18,2711.78C3160.81,2711.91 3161.34,2712.32 3161.62,2712.9C3177.87,2745.49 3303.84,2904.44 3353.8,2975.96C3362.62,2988.59 3369.09,2998.53 3372.21,3004.6C3373.75,3007.58 3374.48,3009.78 3374.51,3011.04C3379.15,3195.14 3378.99,3195.15 3375.38,3210.73C3374.57,3214.24 3370.42,3219.59 3363.28,3225.18C3347.59,3237.46 3317.33,3251.62 3280.14,3251.37Z" style="fill:rgb(22,22,22);"/>
                    </g>
                </g>
                <g transform="matrix(1,0,0,1,0.88034,0.944519)">
                    <path d="M3005.17,2858.54C3017.84,2858.18 3016.77,2853.52 3029.28,2852.08C3055.27,2849.09 3062.24,2862.97 3058.38,2858.55C3057.99,2858.1 3056.67,2854.24 3055.16,2852.11C3052.87,2848.91 3031.06,2840.8 3016.37,2845.91C3011.39,2847.64 3004.77,2854.04 3004.26,2856.02" style="fill:rgb(22,22,22);"/>
                    <path d="M3059.83,2856.75C3060.6,2857.47 3061.02,2858.04 3061.16,2858.3L3061.44,2859.19L3061.42,2859.77L3061.25,2860.31L3060.98,2860.74L3060.59,2861.1L3060.06,2861.39L3059.37,2861.51L3058.82,2861.45L3058.22,2861.2C3057.98,2861.07 3057.49,2860.69 3056.81,2859.91C3056.73,2859.82 3056.6,2859.62 3056.44,2859.33C3056.11,2859.05 3055.73,2858.76 3055.32,2858.48C3051.47,2855.89 3043.31,2852.56 3029.51,2854.15C3023.61,2854.83 3020.91,2856.28 3018.19,2857.59C3015.11,2859.08 3012,2860.43 3005.23,2860.62C3004.08,2860.65 3003.12,2859.75 3003.08,2858.6C3003.08,2858.32 3003.12,2858.06 3003.21,2857.82C3002.42,2857.36 3002,2856.42 3002.24,2855.49C3002.44,2854.72 3003.27,2853.37 3004.62,2851.89C3007.26,2849 3011.92,2845.25 3015.68,2843.94C3026.43,2840.21 3040.82,2843.15 3049.31,2846.45C3053.33,2848.02 3056.06,2849.79 3056.86,2850.9C3057.95,2852.44 3059.29,2855.47 3059.83,2856.75ZM3006.33,2856.4C3011.39,2856.12 3013.89,2855.03 3016.38,2853.84C3019.42,2852.37 3022.44,2850.77 3029.04,2850.01C3038.96,2848.87 3046.24,2850.11 3051.3,2851.9C3050.33,2851.39 3049.15,2850.86 3047.8,2850.34C3040.03,2847.31 3026.88,2844.46 3017.05,2847.88C3013.85,2848.99 3009.94,2852.24 3007.7,2854.69C3007.05,2855.41 3006.51,2855.99 3006.33,2856.4Z" style="fill:rgb(22,22,22);"/>
                </g>
                <g transform="matrix(1,0,0,1,0.88034,0.944519)">
                    <path d="M2961.04,2841.18C2953.48,2842.17 2936.95,2839.65 2929.53,2845.08C2917.93,2853.57 2902.04,2861.17 2896.97,2865.09C2898.25,2862.54 2909.85,2839.39 2920.42,2838.28C2943.79,2835.82 2944.21,2828.66 2961.04,2841.18Z" style="fill:rgb(22,22,22);"/>
                </g>
                <g transform="matrix(1,0,0,1,0.88034,0.944519)">
                    <path d="M2961.31,2843.25C2956.75,2843.84 2948.94,2843.18 2941.81,2843.72C2937.51,2844.05 2933.46,2844.79 2930.76,2846.76C2919.18,2855.24 2903.31,2862.82 2898.25,2866.74C2897.48,2867.34 2896.4,2867.32 2895.65,2866.7C2894.9,2866.08 2894.68,2865.03 2895.11,2864.16C2896.03,2862.33 2902.14,2850.16 2909.44,2842.63C2912.88,2839.08 2916.63,2836.58 2920.2,2836.21C2929.46,2835.23 2935.07,2833.51 2939.55,2832.59C2946.86,2831.1 2951.41,2831.42 2962.28,2839.51C2962.96,2840.02 2963.27,2840.89 2963.05,2841.71C2962.84,2842.53 2962.15,2843.14 2961.31,2843.25ZM2954.72,2839.38C2948.81,2835.78 2945.37,2835.65 2940.39,2836.67C2935.82,2837.61 2930.08,2839.36 2920.64,2840.35C2916.84,2840.75 2913.03,2844.49 2909.59,2848.77C2906.88,2852.14 2904.47,2855.92 2902.6,2859.1C2909.76,2854.96 2920.1,2849.4 2928.3,2843.4C2931.53,2841.03 2936.33,2839.96 2941.49,2839.57C2945.96,2839.23 2950.7,2839.37 2954.72,2839.38Z" style="fill:rgb(22,22,22);"/>
                </g>
                <g id="mouth" transform="matrix(1,0,0,1,0.88034,0.944519)">
                    <g id="lower-lip">
                        <path id="curve" d="M2975.59,2970.83C2977.2,2970.11 2982.82,2969.76 2989.92,2969.8C3003.99,2969.88 3024.16,2971.06 3028.21,2971.35C3029.05,2971.42 3029.51,2971.54 3029.55,2971.56C3030.22,2971.83 3030.7,2972.42 3030.83,2973.13C3030.96,2973.84 3030.71,2974.56 3030.18,2975.04C3011.7,2991.68 2993.45,2984.22 2985.28,2980.05C2983.51,2979.14 2982.29,2978.39 2981.75,2978.22C2980.16,2977.72 2977.44,2976.19 2975.14,2974.36C2974.57,2973.91 2974.28,2973.19 2974.37,2972.47C2974.46,2971.74 2974.92,2971.12 2975.59,2970.83ZM2982.5,2974.06C2982.67,2974.13 2982.84,2974.19 2982.99,2974.24C2983.63,2974.44 2985.09,2975.27 2987.18,2976.34C2993.88,2979.76 3008.2,2985.74 3023.29,2975.22C3015.51,2974.76 3000.84,2974.02 2989.9,2973.96C2987.13,2973.95 2984.6,2973.97 2982.5,2974.06Z" style="fill:rgb(22,22,22);"/>
                        <path d="M2976.43,2972.73C2981.48,2970.48 3028.48,2973.38 3028.78,2973.49C3006.9,2993.2 2985.33,2977.15 2982.37,2976.23C2980.94,2975.78 2978.51,2974.37 2976.43,2972.73Z" style="fill:rgb(22,22,22);"/>
                    </g>
                    <g id="upper-lip">
                        <path d="M2963.55,2970.71C2964.49,2970.47 2964.2,2969.86 2974.92,2966.55C2978.35,2965.49 2992.42,2955.17 2996.88,2957.88C2998.04,2958.59 2999.73,2960 3000.49,2959.62C3013.42,2953.3 3013.71,2959.58 3018.99,2961.41C3020.24,2961.84 3019.86,2962.37 3031.34,2972.31C2985.16,2967.25 2977.05,2973.73 2963.55,2970.71Z" style="fill:rgb(22,22,22);"/>
                        <path id="curve1" serif:id="curve" d="M3000.13,2957.48C3005.9,2954.75 3009.39,2954.46 3011.87,2955.04C3013.7,2955.46 3015.06,2956.37 3016.37,2957.37C3017.37,2958.13 3018.32,2958.97 3019.67,2959.44C3020.29,2959.65 3020.68,2959.86 3021.43,2960.52C3022.46,2961.45 3024.68,2963.79 3032.7,2970.74C3033.39,2971.34 3033.61,2972.31 3033.25,2973.15C3032.88,2973.98 3032.02,2974.48 3031.11,2974.38C3003.61,2971.37 2989.71,2972.48 2980.1,2973.2C2973.4,2973.7 2968.7,2974 2963.1,2972.75C2962.16,2972.54 2961.49,2971.71 2961.47,2970.74C2961.46,2969.78 2962.11,2968.93 2963.04,2968.7C2963.18,2968.66 2963.25,2968.58 2963.44,2968.48C2964.38,2968 2966.55,2966.95 2974.31,2964.56C2976.69,2963.82 2984.25,2958.56 2990.1,2956.4C2993.37,2955.2 2996.24,2955.05 2997.97,2956.1C2998.44,2956.39 2999.01,2956.8 2999.56,2957.16C2999.73,2957.26 2999.96,2957.39 3000.13,2957.48ZM2972.61,2969.46C2974.8,2969.42 2977.12,2969.25 2979.79,2969.05C2988.76,2968.37 3001.4,2967.36 3025.07,2969.58C3021.66,2966.53 3020.05,2964.95 3019.13,2964.08C3018.67,2963.64 3018.59,2963.47 3018.31,2963.38C3016.49,2962.75 3015.17,2961.7 3013.84,2960.68C3012.99,2960.02 3012.13,2959.37 3010.93,2959.1C3008.93,2958.63 3006.16,2959.17 3001.4,2961.5L3000.74,2961.72L3000.13,2961.77L2999.53,2961.7C2999.31,2961.65 2999.07,2961.58 2998.82,2961.48C2997.9,2961.11 2996.7,2960.21 2995.8,2959.66C2995.28,2959.34 2994.53,2959.49 2993.65,2959.68C2992.29,2959.97 2990.72,2960.59 2989.09,2961.34C2983.65,2963.88 2977.63,2967.89 2975.54,2968.54C2974.45,2968.88 2973.47,2969.18 2972.61,2969.46Z" style="fill:rgb(22,22,22);"/>
                    </g>
                </g>
                <g transform="matrix(1,0,0,1,0.88034,0.944519)">
                    <path d="M2772.39,3172C2772.12,3194.47 2766.79,3203.99 2787.05,3213.7C2801.12,3220.45 2795.14,3228.14 2826.49,3215.87C2844.96,3208.64 2883.6,3265.8 2887.03,3273.76C2892.59,3286.65 2917.73,3315.79 2918.76,3305.42C2921.17,3281.02 2898.92,3261.08 2897.32,3232.36C2902.79,3238.26 2914.49,3245.08 2925.04,3284.66C2925.93,3288.02 2946.52,3326.33 2949.53,3322.98C2957.38,3314.25 2957.43,3323.47 2950.47,3280.38C2944.47,3243.23 2924.62,3212.67 2923.56,3210.97C2923.79,3216.93 2938.72,3235.47 2940.98,3241.83C2944.8,3252.57 2958.26,3273.82 2959.94,3281.72C2962.31,3292.8 2977.17,3317.85 2980.72,3318.09C2983.28,3318.26 2986.5,3318.22 2987.18,3315.76C2992.12,3297.84 2987.78,3273.64 2975.44,3237.68C2971.15,3225.2 2971,3227.72 2962.13,3217.9C2983.78,3232.25 2981.05,3235.33 3000.97,3251.83C3008.2,3257.82 3029.46,3281.42 3041.58,3275.27C3051.05,3270.47 3025.4,3232.73 3004.34,3219C2986.44,3207.32 2986.74,3200.59 2967.58,3191.14C2948.34,3181.66 2955.99,3181.81 2940,3170.91C2936.9,3168.8 2922.24,3165.52 2886.76,3150.12C2829.97,3125.47 2801.08,3149.68 2795.4,3154.31C2790.14,3158.61 2772.83,3157.72 2772.39,3172C2772.38,3172.11 2772.39,3172 2772.23,3173.35" style="fill:rgb(250,249,246);"/>
                    <path d="M2770.26,3174.04C2770.16,3173.75 2770.12,3173.43 2770.16,3173.11C2770.25,3172.35 2770.29,3172 2770.31,3171.89C2770.57,3163.77 2775.54,3159.89 2781.28,3157.49C2784.35,3156.21 2787.64,3155.38 2790.36,3154.46C2791.88,3153.94 2793.19,3153.43 2794.09,3152.7C2799.89,3147.96 2829.45,3122.98 2887.6,3148.21C2912.36,3158.96 2926.94,3163.78 2934.53,3166.43C2938.05,3167.66 2940.17,3168.5 2941.17,3169.18C2947.76,3173.68 2950.45,3176.35 2952.58,3178.56C2955.56,3181.67 2957.37,3183.79 2968.5,3189.27C2978.34,3194.12 2983.18,3198.28 2987.86,3202.72C2992.35,3206.97 2996.67,3211.51 3005.48,3217.25C3020.53,3227.07 3037.88,3248.9 3043.62,3262.8C3045.24,3266.73 3045.93,3270.1 3045.6,3272.5C3045.31,3274.69 3044.26,3276.25 3042.52,3277.13C3040.2,3278.31 3037.61,3278.61 3034.85,3278.19C3031.13,3277.64 3027.06,3275.75 3023.01,3273.15C3013.5,3267.06 3004.02,3257.06 2999.64,3253.43C2985.52,3241.73 2982.84,3236.8 2974.68,3229.78C2975.46,3231.51 2976.3,3233.77 2977.41,3237C2989.95,3273.52 2994.21,3298.12 2989.19,3316.31C2988.73,3317.98 2987.62,3319.03 2986.12,3319.63C2984.54,3320.26 2982.42,3320.29 2980.58,3320.17L2979.77,3320C2979.49,3319.9 2979.18,3319.75 2978.85,3319.54C2978.05,3319.03 2977,3318.03 2975.82,3316.61C2969.97,3309.53 2959.85,3291.25 2957.91,3282.15C2957.26,3279.11 2954.75,3274.01 2951.79,3268.32C2950.75,3266.32 2949.65,3264.25 2948.55,3262.17C2950.16,3267.88 2951.53,3273.87 2952.53,3280.05C2955.47,3298.24 2957.16,3307.15 2957.55,3312.03C2957.87,3316.06 2957.3,3317.83 2956.17,3319.33C2955.17,3320.65 2953.49,3321.69 2951.08,3324.37L2950.45,3324.89L2949.67,3325.2L2948.91,3325.27L2948.25,3325.16C2947.33,3324.91 2945.89,3323.83 2944.31,3321.94C2937.32,3313.56 2923.75,3287.94 2923.02,3285.2C2914.87,3254.59 2906.02,3243.91 2900,3237.92C2901.79,3249.58 2906.81,3259.79 2911.43,3269.62C2917.05,3281.61 2922.07,3293.05 2920.83,3305.62C2920.66,3307.32 2919.99,3308.36 2919.16,3308.97L2918.34,3309.43L2917.47,3309.65C2916.98,3309.72 2916.43,3309.7 2915.84,3309.57C2914.61,3309.32 2913.04,3308.54 2911.29,3307.28C2902.97,3301.3 2889.12,3283.85 2885.12,3274.59C2882.75,3269.1 2863.38,3239.89 2845.74,3225.28C2842.08,3222.26 2838.51,3219.87 2835.19,3218.5C2832.26,3217.31 2829.57,3216.9 2827.25,3217.81C2814.28,3222.88 2807.46,3224.58 2803.04,3224.43C2799.33,3224.31 2797.1,3223.02 2794.59,3221.13C2792.51,3219.56 2790.2,3217.52 2786.15,3215.58C2778.53,3211.93 2774.34,3208.22 2772.04,3204.01C2769.74,3199.79 2769.32,3195 2769.53,3189.01C2769.67,3184.76 2770.12,3179.85 2770.26,3174.04ZM2932.28,3231.17C2929.84,3227.48 2927.21,3223.56 2925.2,3220.12C2923,3216.35 2921.55,3213.05 2921.48,3211.06C2921.44,3210.11 2922.04,3209.26 2922.94,3208.98C2923.85,3208.7 2924.82,3209.07 2925.32,3209.87C2925.83,3210.68 2930.54,3217.94 2936.01,3229.32C2939.18,3234.15 2942.04,3238.6 2942.95,3241.13C2945.21,3247.51 2950.93,3257.63 2955.49,3266.4C2958.67,3272.51 2961.28,3278.01 2961.98,3281.28C2963.6,3288.85 2971.22,3303.08 2976.82,3311.02C2978.07,3312.8 2979.21,3314.25 2980.16,3315.22C2980.49,3315.55 2980.94,3315.91 2981.1,3316.03C2982.11,3316.09 2983.22,3316.12 2984.16,3315.89C2984.61,3315.78 2985.05,3315.66 2985.17,3315.2C2990.04,3297.56 2985.62,3273.76 2973.47,3238.35C2969.33,3226.31 2969.14,3228.77 2960.59,3219.29C2959.88,3218.51 2959.87,3217.33 2960.55,3216.54C2961.24,3215.74 2962.41,3215.58 2963.28,3216.16C2985.02,3230.57 2982.29,3233.65 3002.3,3250.22C3006.6,3253.79 3015.9,3263.65 3025.26,3269.64C3028.2,3271.53 3031.14,3273.03 3033.92,3273.75C3036.36,3274.39 3038.65,3274.42 3040.64,3273.41C3041.39,3273.03 3041.53,3272.17 3041.52,3271.11C3041.5,3269.3 3040.85,3267.01 3039.76,3264.39C3034.26,3251.07 3017.63,3230.15 3003.2,3220.74C2994.11,3214.81 2989.63,3210.14 2985,3205.74C2980.56,3201.54 2975.97,3197.6 2966.65,3193.01C2954.7,3187.11 2952.78,3184.79 2949.58,3181.45C2947.57,3179.37 2945.03,3176.86 2938.83,3172.63C2937.97,3172.05 2936.15,3171.41 2933.15,3170.36C2925.52,3167.7 2910.85,3162.85 2885.94,3152.04C2830.48,3127.97 2802.26,3151.41 2796.72,3155.93C2795.51,3156.92 2793.76,3157.7 2791.7,3158.4C2789.06,3159.3 2785.87,3160.1 2782.89,3161.34C2778.57,3163.14 2774.67,3165.93 2774.47,3172.03L2774.47,3172.07C2774.39,3178.81 2773.86,3184.39 2773.69,3189.15C2773.52,3194.28 2773.73,3198.4 2775.7,3202.01C2777.67,3205.64 2781.39,3208.68 2787.95,3211.82C2792.34,3213.93 2794.85,3216.11 2797.1,3217.8C2798.91,3219.17 2800.5,3220.18 2803.18,3220.26C2807.3,3220.4 2813.62,3218.66 2825.73,3213.93C2828.35,3212.9 2831.31,3212.92 2834.5,3213.85C2838.78,3215.1 2843.53,3218.05 2848.39,3222.07C2866.58,3237.13 2886.51,3267.28 2888.95,3272.94C2892.73,3281.71 2905.85,3298.23 2913.72,3303.9C2914.6,3304.53 2915.41,3305.02 2916.11,3305.31C2916.27,3305.38 2916.48,3305.43 2916.64,3305.47C2916.66,3305.38 2916.67,3305.29 2916.68,3305.21C2917.85,3293.39 2912.95,3282.67 2907.66,3271.4C2902.09,3259.54 2896.06,3247.12 2895.24,3232.48C2895.19,3231.6 2895.7,3230.79 2896.51,3230.44C2897.32,3230.1 2898.25,3230.3 2898.85,3230.94C2904.41,3236.94 2916.32,3243.87 2927.05,3284.12C2927.75,3286.75 2940.82,3311.25 2947.51,3319.27C2947.93,3319.78 2948.46,3320.29 2948.85,3320.65C2950.69,3318.77 2952.02,3317.9 2952.85,3316.81C2953.53,3315.91 2953.59,3314.8 2953.39,3312.36C2953.01,3307.54 2951.32,3298.72 2948.42,3280.71C2945.28,3261.29 2938.31,3243.69 2932.28,3231.17Z" style="fill:rgb(22,22,22);"/>
                </g>
                <g transform="matrix(1,0,0,1,0.88034,0.944519)">
                    <path d="M2981.23,3251.41C2983.53,3257.99 2998.22,3264.61 2997.75,3269.77C2996.86,3279.66 2987.98,3278.92 2986.67,3279.04C2984.89,3264.95 2981.53,3265.59 2981.23,3251.41Z" style="fill:rgb(250,249,246);"/>
                    <path d="M2983.2,3250.72C2983.66,3252.05 2984.77,3253.34 2986.1,3254.64C2988.47,3256.95 2991.57,3259.22 2994.14,3261.38C2996.06,3262.99 2997.69,3264.56 2998.67,3266.04C2999.55,3267.39 2999.94,3268.71 2999.83,3269.96C2999.51,3273.52 2998.27,3275.91 2996.73,3277.54C2993.25,3281.24 2987.93,3281.01 2986.86,3281.11C2985.74,3281.22 2984.74,3280.41 2984.61,3279.3C2983.74,3272.45 2982.49,3269.18 2981.42,3265.9C2980.27,3262.38 2979.31,3258.85 2979.15,3251.45C2979.13,3250.43 2979.86,3249.54 2980.86,3249.36C2981.87,3249.18 2982.86,3249.76 2983.2,3250.72ZM2983.83,3258.23C2984.21,3260.83 2984.76,3262.72 2985.38,3264.61C2986.41,3267.77 2987.59,3270.92 2988.48,3276.91C2990.04,3276.79 2992.14,3276.34 2993.7,3274.68C2994.73,3273.59 2995.47,3271.96 2995.68,3269.58C2995.73,3269 2995.31,3268.44 2994.8,3267.8C2993.98,3266.76 2992.79,3265.68 2991.46,3264.57C2989.04,3262.53 2986.16,3260.4 2983.83,3258.23Z" style="fill:rgb(22,22,22);"/>
                </g>
                <g transform="matrix(1,0,0,1,0.88034,0.944519)">
                    <path d="M3039.99,3261.58C3038.33,3261.15 3032.13,3258.35 3032.39,3265.05C3032.48,3267.32 3044.75,3279.41 3046.05,3276.3C3048.84,3269.63 3040.78,3262.46 3039.06,3261.94" style="fill:rgb(22,22,22);"/>
                    <path d="M3042.07,3261.47C3043.3,3262.46 3044.74,3263.89 3045.95,3265.62C3048.22,3268.87 3049.66,3273.07 3047.98,3277.1L3047.68,3277.64L3047.24,3278.14L3046.7,3278.53L3046.12,3278.77C3045.43,3278.97 3044.47,3278.93 3043.35,3278.47C3040.47,3277.28 3035.41,3272.71 3032.64,3269.37C3031.73,3268.27 3031.06,3267.29 3030.72,3266.59C3030.58,3266.31 3030.48,3266.05 3030.42,3265.82L3030.31,3265.13C3030.19,3262.17 3031.15,3260.54 3032.31,3259.63C3033.46,3258.73 3034.96,3258.45 3036.5,3258.59C3038.12,3258.74 3039.76,3259.37 3040.51,3259.57C3041.41,3259.8 3042.02,3260.59 3042.07,3261.47ZM3037.23,3262.94C3037.19,3262.93 3037.14,3262.91 3037.1,3262.91C3036.58,3262.79 3036.03,3262.69 3035.51,3262.73C3035.27,3262.74 3035.04,3262.76 3034.86,3262.92C3034.51,3263.25 3034.44,3263.85 3034.47,3264.75C3034.81,3265.18 3038.98,3270.31 3042,3272.7C3042.8,3273.34 3043.57,3273.88 3044.25,3274.27C3044.32,3274.31 3044.39,3274.35 3044.46,3274.38C3044.89,3272.11 3043.82,3269.84 3042.54,3268.01C3041.53,3266.57 3040.35,3265.38 3039.4,3264.61C3039,3264.29 3038.46,3263.95 3038.41,3263.92C3037.89,3263.75 3037.48,3263.39 3037.23,3262.94Z" style="fill:rgb(22,22,22);"/>
                </g>
                <g transform="matrix(1,0,0,1,0.88034,0.944519)">
                    <path d="M2986.72,3305.6C2983.91,3302.54 2984.01,3302.32 2980.08,3301.08C2972.93,3298.82 2976.72,3318.57 2984.19,3321.14C2990.34,3323.26 2989.7,3306.7 2985.87,3304.6" style="fill:rgb(22,22,22);"/>
                    <path d="M2987.08,3302.89C2988.02,3303.49 2988.9,3304.61 2989.54,3306.16C2990.74,3309.08 2991.2,3313.67 2990.6,3317.19C2989.82,3321.73 2987.22,3324.39 2983.51,3323.11C2981,3322.25 2978.73,3319.85 2977.1,3316.78C2974.84,3312.53 2973.77,3307.05 2974.35,3303.59C2974.7,3301.48 2975.67,3300.01 2976.99,3299.31C2977.96,3298.79 2979.19,3298.62 2980.7,3299.09C2984.53,3300.3 2985,3300.63 2987.08,3302.89ZM2985.46,3307.26C2985.37,3307.18 2985.28,3307.1 2985.19,3307.01C2982.75,3304.36 2982.85,3304.14 2979.45,3303.07C2979.25,3303 2979.08,3302.95 2978.94,3302.99C2978.77,3303.04 2978.74,3303.26 2978.67,3303.46C2978.38,3304.21 2978.31,3305.2 2978.37,3306.32C2978.51,3309.28 2979.6,3312.98 2981.32,3315.77C2982.31,3317.37 2983.47,3318.69 2984.87,3319.17C2985.27,3319.31 2985.53,3319.11 2985.73,3318.79C2986.1,3318.2 2986.34,3317.39 2986.49,3316.49C2986.91,3314.07 2986.7,3311.03 2986.03,3308.74C2985.87,3308.19 2985.68,3307.68 2985.46,3307.26Z" style="fill:rgb(22,22,22);"/>
                </g>
                <g transform="matrix(1,0,0,1,0.88034,0.944519)">
                    <path d="M2953.35,3306.6C2953.35,3306.6 2946.26,3303.07 2946.11,3307.02C2945.57,3321.76 2954.49,3328.19 2955.58,3323.4C2958.08,3312.44 2953.63,3307.94 2952.7,3306.99" style="fill:rgb(22,22,22);"/>
                    <path d="M2955.41,3306.92C2957.18,3309.27 2959.76,3314.41 2957.61,3323.86C2957.46,3324.52 2957.22,3325.05 2956.92,3325.48L2956.31,3326.16L2955.53,3326.68L2954.67,3326.97L2953.79,3327.05C2953.29,3327.03 2952.75,3326.92 2952.18,3326.7C2950.7,3326.11 2948.89,3324.59 2947.37,3322.05C2945.39,3318.76 2943.78,3313.65 2944.03,3306.95C2944.05,3306.39 2944.16,3305.91 2944.31,3305.51L2944.65,3304.84L2945.11,3304.25L2945.66,3303.79L2946.26,3303.46C2946.61,3303.3 2947.01,3303.19 2947.43,3303.13C2949.98,3302.75 2954.15,3304.68 2954.15,3304.68C2955.05,3305.06 2955.55,3306 2955.41,3306.92ZM2950.76,3307.78C2950.32,3307.62 2949.83,3307.47 2949.34,3307.36C2949,3307.29 2948.49,3307.27 2948.19,3307.27C2947.98,3313.88 2949.78,3318.66 2951.86,3321.23C2952.37,3321.87 2953.17,3322.43 2953.6,3322.7C2955.68,3313.22 2952.03,3309.29 2951.21,3308.46C2951.01,3308.26 2950.86,3308.02 2950.76,3307.78Z" style="fill:rgb(22,22,22);"/>
                </g>
                <g transform="matrix(1,0,0,1,0.88034,0.944519)">
                    <path d="M2916.07,3291.85C2915.12,3291.62 2905.51,3285.52 2905.68,3297.55C2905.73,3300.91 2913.81,3312.93 2918.49,3311.24C2924.12,3309.21 2920.17,3303.29 2919.68,3302.03C2918.96,3300.18 2918.46,3296.12 2914.86,3291.7" style="fill:rgb(22,22,22);"/>
                    <path d="M2916.7,3289.86C2917.74,3290.19 2918.36,3291.28 2918.09,3292.35C2918.07,3292.41 2918.06,3292.47 2918.03,3292.53C2920.47,3296.33 2920.98,3299.63 2921.62,3301.28C2921.88,3301.96 2923.05,3303.92 2923.43,3305.97C2923.68,3307.35 2923.6,3308.77 2923,3310.02C2922.39,3311.28 2921.27,3312.45 2919.2,3313.2C2917.24,3313.91 2914.76,3313.19 2912.38,3311.3C2909.36,3308.9 2906.34,3304.7 2904.8,3301.52C2904.01,3299.9 2903.61,3298.49 2903.6,3297.58C2903.53,3293.03 2904.82,3290.62 2906.35,3289.36C2907.97,3288.03 2910.05,3287.81 2912.04,3288.18C2914.03,3288.55 2916.53,3289.78 2916.7,3289.86ZM2913.1,3292.82C2912.78,3292.7 2912.45,3292.58 2912.1,3292.48C2911.07,3292.18 2909.87,3291.87 2908.99,3292.58C2908.1,3293.32 2907.73,3294.85 2907.76,3297.52C2907.77,3298.13 2908.21,3299.07 2908.79,3300.19C2909.88,3302.28 2911.6,3304.76 2913.47,3306.66C2914.41,3307.63 2915.38,3308.45 2916.33,3308.94C2916.86,3309.21 2917.34,3309.44 2917.79,3309.28C2918.51,3309.02 2918.99,3308.7 2919.22,3308.26C2919.61,3307.53 2919.36,3306.66 2919.11,3305.88C2918.66,3304.48 2917.92,3303.27 2917.73,3302.78C2917.06,3301.04 2916.64,3297.18 2913.25,3293.02C2913.2,3292.95 2913.15,3292.89 2913.1,3292.82Z" style="fill:rgb(22,22,22);"/>
                </g>
                <g transform="matrix(1,0,0,1,0.88034,0.944519)">
                    <path d="M2874.82,3316.56C2873.82,3324.23 2795.76,3367.43 2789.67,3381.27C2779.7,3403.96 2782.68,3422.66 2719.91,3459.01C2677.8,3483.4 2673.55,3479.68 2656.34,3478.73C2648.23,3478.28 2651.42,3389.88 2654.56,3387.8C2666.08,3380.17 2700.57,3377.7 2704.25,3377.06C2741.15,3370.64 2732.57,3355.57 2762.33,3338.86C2787.93,3324.48 2795.33,3294.06 2828.84,3215.01C2859.45,3220.77 2875.79,3254.5 2884.7,3274.44C2886.26,3277.95 2864.29,3262.9 2862.21,3269.59C2858.83,3280.43 2869.3,3308.78 2874.82,3316.56Z" style="fill:rgb(22,22,22);"/>
                </g>
            </g>
        </g>
    </g>
</svg>
